<svg width="289" height="59" viewBox="0 0 289 59" fill="none" xmlns="http://www.w3.org/2000/svg">
<path d="M14.5129 29.026C22.5282 29.026 29.0258 22.528 29.0258 14.5129C29.0258 6.4977 22.5282 0 14.5129 0C6.4977 0 0 6.4977 0 14.5129C0 22.528 6.4977 29.026 14.5129 29.026Z" fill="#1D1D1F"/>
<path d="M14.5129 58.052C22.5282 58.052 29.0258 51.554 29.0258 43.539C29.0258 35.524 22.5282 29.026 14.5129 29.026C6.4977 29.026 0 35.524 0 43.539C0 51.554 6.4977 58.052 14.5129 58.052Z" fill="#1D1D1F"/>
<path d="M76.6281 40.843H96.0871V35.544H83.055V10.4446H76.6281V40.843Z" fill="#1D1D1F"/>
<path d="M109.272 41.2879C116.188 41.2879 120.493 36.5529 120.493 29.5319C120.493 22.4669 116.188 17.7469 109.272 17.7469C102.355 17.7469 98.051 22.4669 98.051 29.5319C98.051 36.5529 102.355 41.2879 109.272 41.2879ZM109.301 36.3899C106.11 36.3899 104.478 33.4659 104.478 29.4879C104.478 25.5099 106.11 22.5709 109.301 22.5709C112.433 22.5709 114.066 25.5099 114.066 29.4879C114.066 33.4659 112.433 36.3899 109.301 36.3899Z" fill="#1D1D1F"/>
<path d="M133.621 49.867C140.137 49.867 144.768 46.8979 144.768 41.0649V18.0439H138.49V21.8729H138.252C137.406 20.0179 135.55 17.7469 131.736 17.7469C126.734 17.7469 122.504 21.6359 122.504 29.3989C122.504 36.9829 126.615 40.5159 131.751 40.5159C135.387 40.5159 137.421 38.6899 138.252 36.8049H138.519V40.9759C138.519 44.1079 136.515 45.3249 133.769 45.3249C130.979 45.3249 129.569 44.1079 129.049 42.7269L123.202 43.5139C123.959 47.1059 127.476 49.867 133.621 49.867ZM133.755 35.7659C130.653 35.7659 128.96 33.302 128.96 29.3689C128.96 25.4949 130.623 22.7789 133.755 22.7789C136.827 22.7789 138.549 25.3759 138.549 29.3689C138.549 33.3909 136.797 35.7659 133.755 35.7659Z" fill="#1D1D1F"/>
<path d="M158.847 41.2879C165.764 41.2879 170.068 36.5529 170.068 29.5319C170.068 22.4669 165.764 17.7469 158.847 17.7469C151.93 17.7469 147.626 22.4669 147.626 29.5319C147.626 36.5529 151.93 41.2879 158.847 41.2879ZM158.876 36.3899C155.685 36.3899 154.053 33.4659 154.053 29.4879C154.053 25.5099 155.685 22.5709 158.876 22.5709C162.008 22.5709 163.641 25.5099 163.641 29.4879C163.641 33.4659 162.008 36.3899 158.876 36.3899Z" fill="#1D1D1F"/>
<path d="M172.925 40.842H179.248V18.044H172.925V40.842ZM176.102 15.105C177.986 15.105 179.53 13.6653 179.53 11.899C179.53 10.1475 177.986 8.70776 176.102 8.70776C174.231 8.70776 172.688 10.1475 172.688 11.899C172.688 13.6653 174.231 15.105 176.102 15.105Z" fill="#1D1D1F"/>
<path d="M183.06 49.3919H189.383V37.1909H189.576C190.451 39.0909 192.366 41.2129 196.047 41.2129C201.242 41.2129 205.294 37.1019 205.294 29.4729C205.294 21.6359 201.064 17.7469 196.062 17.7469C192.247 17.7469 190.422 20.0179 189.576 21.8729H189.294V18.0439H183.06V49.3919ZM189.249 29.4429C189.249 25.3759 190.971 22.7789 194.044 22.7789C197.175 22.7789 198.837 25.4949 198.837 29.4429C198.837 33.4209 197.145 36.1819 194.044 36.1819C191 36.1819 189.249 33.5099 189.249 29.4429Z" fill="#1D1D1F"/>
<path d="M227.225 24.5449C226.66 20.3449 223.277 17.7469 217.517 17.7469C211.684 17.7469 207.84 20.4479 207.854 24.8419C207.84 28.2559 209.992 30.4669 214.445 31.3579L218.393 32.1449C220.382 32.5449 221.288 33.2729 221.317 34.4159C221.288 35.7659 219.818 36.7309 217.607 36.7309C215.35 36.7309 213.851 35.7659 213.465 33.9109L207.246 34.2369C207.84 38.6009 211.551 41.2879 217.591 41.2879C223.499 41.2879 227.729 38.2749 227.744 33.7769C227.729 30.4819 225.577 28.5079 221.154 27.6029L217.027 26.771C214.905 26.311 214.118 25.5839 214.133 24.4859C214.118 23.1199 215.662 22.2299 217.621 22.2299C219.818 22.2299 221.124 23.4319 221.436 24.9009L227.225 24.5449Z" fill="#1D1D1F"/>
<path d="M245.092 31.1349C245.107 34.1929 243.014 35.7959 240.743 35.7959C238.353 35.7959 236.81 34.1189 236.795 31.4319V18.0439H230.472V32.5599C230.487 37.8889 233.604 41.1389 238.19 41.1389C241.619 41.1389 244.082 39.3729 245.107 36.7009H245.345V40.8419H251.415V18.0439H245.092V31.1349Z" fill="#1D1D1F"/>
<path d="M255.218 40.8419H261.541V27.1569C261.541 24.6339 263.144 22.9569 265.252 22.9569C267.33 22.9569 268.725 24.3819 268.725 26.6229V40.8419H274.855V26.9199C274.855 24.5599 276.206 22.9569 278.506 22.9569C280.525 22.9569 282.039 24.219 282.039 26.757V40.8419H288.347V25.5099C288.347 20.5669 285.408 17.7469 281.163 17.7469C277.824 17.7469 275.226 19.4539 274.291 22.0659H274.053C273.326 19.4239 270.996 17.7469 267.864 17.7469C264.792 17.7469 262.461 19.3799 261.511 22.0659H261.244V18.0439H255.218V40.8419Z" fill="#1D1D1F"/>
<path d="M29.0254 0H58.051L29.0254 29.026V0Z" fill="#1D1D1F"/>
<path d="M43.5383 58.052C51.554 58.052 58.051 51.554 58.051 43.539C58.051 35.524 51.554 29.026 43.5383 29.026C35.523 29.026 29.0254 35.524 29.0254 43.539C29.0254 51.554 35.523 58.052 43.5383 58.052Z" fill="#1D1D1F"/>
<path d="M76.6281 40.843H96.0871V35.544H83.055V10.4446H76.6281V40.843Z" fill="#1D1D1F"/>
<path d="M109.272 41.2879C116.188 41.2879 120.493 36.5529 120.493 29.5319C120.493 22.4669 116.188 17.7469 109.272 17.7469C102.355 17.7469 98.051 22.4669 98.051 29.5319C98.051 36.5529 102.355 41.2879 109.272 41.2879ZM109.301 36.3899C106.11 36.3899 104.478 33.4659 104.478 29.4879C104.478 25.5099 106.11 22.5709 109.301 22.5709C112.433 22.5709 114.066 25.5099 114.066 29.4879C114.066 33.4659 112.433 36.3899 109.301 36.3899Z" fill="#1D1D1F"/>
<path d="M133.621 49.867C140.137 49.867 144.768 46.8979 144.768 41.0649V18.0439H138.49V21.8729H138.252C137.406 20.0179 135.55 17.7469 131.736 17.7469C126.734 17.7469 122.504 21.6359 122.504 29.3989C122.504 36.9829 126.615 40.5159 131.751 40.5159C135.387 40.5159 137.421 38.6899 138.252 36.8049H138.519V40.9759C138.519 44.1079 136.515 45.3249 133.769 45.3249C130.979 45.3249 129.569 44.1079 129.049 42.7269L123.202 43.5139C123.959 47.1059 127.476 49.867 133.621 49.867ZM133.755 35.7659C130.653 35.7659 128.96 33.302 128.96 29.3689C128.96 25.4949 130.623 22.7789 133.755 22.7789C136.827 22.7789 138.549 25.3759 138.549 29.3689C138.549 33.3909 136.797 35.7659 133.755 35.7659Z" fill="#1D1D1F"/>
<path d="M158.847 41.2879C165.764 41.2879 170.068 36.5529 170.068 29.5319C170.068 22.4669 165.764 17.7469 158.847 17.7469C151.93 17.7469 147.626 22.4669 147.626 29.5319C147.626 36.5529 151.93 41.2879 158.847 41.2879ZM158.876 36.3899C155.685 36.3899 154.053 33.4659 154.053 29.4879C154.053 25.5099 155.685 22.5709 158.876 22.5709C162.008 22.5709 163.641 25.5099 163.641 29.4879C163.641 33.4659 162.008 36.3899 158.876 36.3899Z" fill="#1D1D1F"/>
<path d="M172.925 40.842H179.248V18.044H172.925V40.842ZM176.102 15.105C177.986 15.105 179.53 13.6653 179.53 11.899C179.53 10.1475 177.986 8.70776 176.102 8.70776C174.231 8.70776 172.688 10.1475 172.688 11.899C172.688 13.6653 174.231 15.105 176.102 15.105Z" fill="#1D1D1F"/>
<path d="M183.06 49.3919H189.383V37.1909H189.576C190.451 39.0909 192.366 41.2129 196.047 41.2129C201.242 41.2129 205.294 37.1019 205.294 29.4729C205.294 21.6359 201.064 17.7469 196.062 17.7469C192.247 17.7469 190.422 20.0179 189.576 21.8729H189.294V18.0439H183.06V49.3919ZM189.249 29.4429C189.249 25.3759 190.971 22.7789 194.044 22.7789C197.175 22.7789 198.837 25.4949 198.837 29.4429C198.837 33.4209 197.145 36.1819 194.044 36.1819C191 36.1819 189.249 33.5099 189.249 29.4429Z" fill="#1D1D1F"/>
<path d="M227.225 24.5449C226.66 20.3449 223.277 17.7469 217.517 17.7469C211.684 17.7469 207.84 20.4479 207.854 24.8419C207.84 28.2559 209.992 30.4669 214.445 31.3579L218.393 32.1449C220.382 32.5449 221.288 33.2729 221.317 34.4159C221.288 35.7659 219.818 36.7309 217.607 36.7309C215.35 36.7309 213.851 35.7659 213.465 33.9109L207.246 34.2369C207.84 38.6009 211.551 41.2879 217.591 41.2879C223.499 41.2879 227.729 38.2749 227.744 33.7769C227.729 30.4819 225.577 28.5079 221.154 27.6029L217.027 26.771C214.905 26.311 214.118 25.5839 214.133 24.4859C214.118 23.1199 215.662 22.2299 217.621 22.2299C219.818 22.2299 221.124 23.4319 221.436 24.9009L227.225 24.5449Z" fill="#1D1D1F"/>
<path d="M245.092 31.1349C245.107 34.1929 243.014 35.7959 240.743 35.7959C238.353 35.7959 236.81 34.1189 236.795 31.4319V18.0439H230.472V32.5599C230.487 37.8889 233.604 41.1389 238.19 41.1389C241.619 41.1389 244.082 39.3729 245.107 36.7009H245.345V40.8419H251.415V18.0439H245.092V31.1349Z" fill="#1D1D1F"/>
<path d="M255.218 40.8419H261.541V27.1569C261.541 24.6339 263.144 22.9569 265.252 22.9569C267.33 22.9569 268.725 24.3819 268.725 26.6229V40.8419H274.855V26.9199C274.855 24.5599 276.206 22.9569 278.506 22.9569C280.525 22.9569 282.039 24.219 282.039 26.757V40.8419H288.347V25.5099C288.347 20.5669 285.408 17.7469 281.163 17.7469C277.824 17.7469 275.226 19.4539 274.291 22.0659H274.053C273.326 19.4239 270.996 17.7469 267.864 17.7469C264.792 17.7469 262.461 19.3799 261.511 22.0659H261.244V18.0439H255.218V40.8419Z" fill="#1D1D1F"/>
</svg>
