<svg width="750" height="460" viewBox="0 0 750 460" fill="none" xmlns="http://www.w3.org/2000/svg">
<path d="M29.9385 303.414C29.9385 310.078 35.3666 315.479 42.0626 315.479H83V291.349H42.0626C35.3666 291.349 29.9385 296.751 29.9385 303.414Z" fill="#E0E3EB"/>
<path d="M83 320V285" stroke="#1D1D1F" stroke-width="4"/>
<path opacity="0.8" d="M134.646 329.159H37.6538C33.3927 329.159 29.9385 332.596 29.9385 336.836C29.9385 341.076 33.3927 344.514 37.6538 344.514H134.646C138.907 344.514 142.362 341.076 142.362 336.836C142.362 332.596 138.907 329.159 134.646 329.159Z" fill="#E0E3EB"/>
<path fill-rule="evenodd" clip-rule="evenodd" d="M16 68H214V264H16V68Z" stroke="#0A84FF" stroke-width="4"/>
<path d="M18.4628 59H13.1723C9.76341 59 7 61.7499 7 65.1421V70.4068C7 73.799 9.76341 76.549 13.1723 76.549H18.4628C21.8716 76.549 24.635 73.799 24.635 70.4068V65.1421C24.635 61.7499 21.8716 59 18.4628 59Z" fill="white" stroke="#0A84FF" stroke-width="3" stroke-linecap="round"/>
<path d="M216.463 59H211.172C207.763 59 205 61.7499 205 65.1421V70.4068C205 73.799 207.763 76.549 211.172 76.549H216.463C219.872 76.549 222.635 73.799 222.635 70.4068V65.1421C222.635 61.7499 219.872 59 216.463 59Z" fill="white" stroke="#0A84FF" stroke-width="3" stroke-linecap="round"/>
<path d="M216.463 255H211.172C207.763 255 205 257.75 205 261.142V266.407C205 269.799 207.763 272.549 211.172 272.549H216.463C219.872 272.549 222.635 269.799 222.635 266.407V261.142C222.635 257.75 219.872 255 216.463 255Z" fill="white" stroke="#0A84FF" stroke-width="3" stroke-linecap="round"/>
<path d="M18.4628 255H13.1723C9.76341 255 7 257.75 7 261.142V266.407C7 269.799 9.76341 272.549 13.1723 272.549H18.4628C21.8716 272.549 24.635 269.799 24.635 266.407V261.142C24.635 257.75 21.8716 255 18.4628 255Z" fill="white" stroke="#0A84FF" stroke-width="3" stroke-linecap="round"/>
<path fill-rule="evenodd" clip-rule="evenodd" d="M212.063 272H216.099V297.224H212.063V272Z" fill="#0A84FF"/>
<path d="M417.001 291.349H302.374C295.678 291.349 290.25 296.751 290.25 303.414C290.25 310.078 295.678 315.479 302.374 315.479H417.001C423.697 315.479 429.125 310.078 429.125 303.414C429.125 296.751 423.697 291.349 417.001 291.349Z" fill="#E0E3EB"/>
<path opacity="0.8" d="M394.957 329.159H297.965C293.704 329.159 290.25 332.596 290.25 336.836C290.25 341.076 293.704 344.514 297.965 344.514H394.957C399.219 344.514 402.673 341.076 402.673 336.836C402.673 332.596 399.219 329.159 394.957 329.159Z" fill="#E0E3EB"/>
<path d="M677.312 291.349H562.685C555.989 291.349 550.561 296.751 550.561 303.414C550.561 310.078 555.989 315.479 562.685 315.479H677.312C684.008 315.479 689.436 310.078 689.436 303.414C689.436 296.751 684.008 291.349 677.312 291.349Z" fill="#E0E3EB"/>
<path opacity="0.8" d="M655.268 329.159H558.276C554.015 329.159 550.561 332.596 550.561 336.836C550.561 341.076 554.015 344.514 558.276 344.514H655.268C659.53 344.514 662.984 341.076 662.984 336.836C662.984 332.596 659.53 329.159 655.268 329.159Z" fill="#E0E3EB"/>
<rect x="20" y="72" width="190" height="188" rx="94" fill="#E0E3EB"/>
<path fill-rule="evenodd" clip-rule="evenodd" d="M115 167.7C124.941 167.7 133 174.11 133 177.403C133 180.696 124.941 187.106 115 187.106C105.059 187.106 97 180.696 97 177.403C97 174.11 105.059 167.7 115 167.7Z" fill="#F0F2F4"/>
<path fill-rule="evenodd" clip-rule="evenodd" d="M115 145C120.361 145 124.708 149.347 124.708 154.708C124.708 160.07 120.361 164.416 115 164.416C109.638 164.416 105.292 160.07 105.292 154.708C105.292 149.347 109.638 145 115 145Z" fill="#F0F2F4"/>
<rect x="280" y="72" width="190" height="188" rx="94" fill="#34C759"/>
<path fill-rule="evenodd" clip-rule="evenodd" d="M375 167.7C384.941 167.7 393 174.11 393 177.403C393 180.696 384.941 187.106 375 187.106C365.059 187.106 357 180.696 357 177.403C357 174.11 365.059 167.7 375 167.7Z" fill="#F0F2F4"/>
<path fill-rule="evenodd" clip-rule="evenodd" d="M375 145C380.361 145 384.708 149.347 384.708 154.708C384.708 160.07 380.361 164.416 375 164.416C369.638 164.416 365.292 160.07 365.292 154.708C365.292 149.347 369.638 145 375 145Z" fill="#F0F2F4"/>
<rect x="540" y="72" width="190" height="188" rx="94" fill="#0A84FF"/>
<rect x="193" y="299" width="42" height="129" rx="8" fill="white"/>
<path d="M225 329.5C225 323.701 220.299 319 214.5 319C208.701 319 204 323.701 204 329.5C204 335.299 208.701 340 214.5 340C220.299 340 225 335.299 225 329.5Z" fill="#FFCC00" stroke="#FFCC00" stroke-width="3" stroke-linecap="round"/>
<path d="M225 363.5C225 357.701 220.299 353 214.5 353C208.701 353 204 357.701 204 363.5C204 369.299 208.701 374 214.5 374C220.299 374 225 369.299 225 363.5Z" fill="#34C759" stroke="#34C759" stroke-width="3" stroke-linecap="round"/>
<path d="M225 397.5C225 391.701 220.299 387 214.5 387C208.701 387 204 391.701 204 397.5C204 403.299 208.701 408 214.5 408C220.299 408 225 403.299 225 397.5Z" fill="#0A84FF" stroke="#0A84FF" stroke-width="3" stroke-linecap="round"/>
<rect x="193" y="299" width="42" height="129" rx="8" stroke="#0A84FF" stroke-width="4"/>
<path fill-rule="evenodd" clip-rule="evenodd" d="M635 167.7C644.941 167.7 653 174.11 653 177.403C653 180.696 644.941 187.106 635 187.106C625.059 187.106 617 180.696 617 177.403C617 174.11 625.059 167.7 635 167.7Z" fill="#F0F2F4"/>
<path fill-rule="evenodd" clip-rule="evenodd" d="M635 145C640.361 145 644.708 149.347 644.708 154.708C644.708 160.07 640.361 164.416 635 164.416C629.638 164.416 625.292 160.07 625.292 154.708C625.292 149.347 629.638 145 635 145Z" fill="#F0F2F4"/>
</svg>
