<svg width="512" height="512" viewBox="0 0 512 512" fill="none" xmlns="http://www.w3.org/2000/svg">
<path d="M272.399 153.729C257.355 153.729 242.399 155.956 227.677 160.35L235.397 117.826H414.003V0H139.201L85.661 278.621L185.388 292.698C189.579 289.289 211.437 256.824 252.317 256.824C289.7 256.824 310.281 282.796 310.281 329.934C310.281 379.182 289.612 408.581 254.998 408.581C199.231 408.581 200.154 342.979 198.719 339.968L74.997 352.464C76.586 355.547 81.567 512 253.986 512C372.858 512 437.004 417.356 437.004 328.294C437.003 213.685 354.196 153.729 272.399 153.729V153.729Z" fill="#1D1D1F"/>
</svg>
