<svg width="48" height="48" viewBox="0 0 48 48" fill="none" xmlns="http://www.w3.org/2000/svg">
<path d="M24 48C37.2548 48 48 37.2548 48 24C48 10.7452 37.2548 0 24 0C10.7452 0 0 10.7452 0 24C0 37.2548 10.7452 48 24 48Z" fill="#E7F8EB"/>
<path d="M19.7917 29.3438L15.2355 24.7875C14.7234 24.2754 13.8962 24.2754 13.3841 24.7875C12.872 25.2996 12.872 26.1268 13.3841 26.6389L18.8726 32.1274C19.3847 32.6395 20.2119 32.6395 20.724 32.1274L34.6159 18.2355C35.128 17.7234 35.128 16.8962 34.6159 16.3841C34.1039 15.872 33.2766 15.872 32.7645 16.3841L19.7917 29.3438Z" fill="#34C759"/>
</svg>
