<svg width="48" height="48" viewBox="0 0 48 48" fill="none" xmlns="http://www.w3.org/2000/svg">
<g clip-path="url(#clip0)">
<path d="M20.12 10H11.64L12.96 3.64C13.12 2.9 12.88 2.14 12.36 1.6C11.48 0.720002 10.06 0.720002 9.2 1.6L1.2 9.6C0.42 10.34 0 11.36 0 12.42V24C0 26.2 1.8 28 4 28H15.84C17.44 28 18.88 27.04 19.52 25.58L23.8 15.58C24.92 12.94 22.98 10 20.12 10ZM44 20H32.16C30.56 20 29.12 20.96 28.48 22.42L24.2 32.42C23.08 35.06 25 38 27.88 38H36.36L35.04 44.36C34.88 45.1 35.12 45.86 35.64 46.4C36.52 47.28 37.94 47.28 38.8 46.4L46.8 38.4C47.56 37.64 47.98 36.64 47.98 35.58V24C48 21.8 46.2 20 44 20Z" fill="#007AFF"/>
</g>
<defs>
<clipPath id="clip0">
<rect width="48" height="48" fill="white"/>
</clipPath>
</defs>
</svg>
