<svg width="48" height="48" viewBox="0 0 48 48" fill="none" xmlns="http://www.w3.org/2000/svg">
<path d="M35.5 21.7778H42.4C44.953 21.7778 47 19.7778 47 17.3333V8.44444C47 5.97778 44.93 4 42.4 4H35.5C32.947 4 30.9 6 30.9 8.44444V10.6667H17.123V8.44444C17.123 5.97778 15.053 4 12.523 4H5.6C3.07 4 1 6 1 8.44444V17.3333C1 19.8 3.07 21.7778 5.6 21.7778H12.5C15.053 21.7778 17.1 19.7778 17.1 17.3333V15.1111H21.7V30.6889C21.7 34.3556 24.782 37.3333 28.577 37.3333H30.9V39.5556C30.9 42.0222 32.97 44 35.5 44H42.4C44.953 44 47 42 47 39.5556V30.6667C47 28.2 44.93 26.2222 42.4 26.2222H35.5C32.947 26.2222 30.9 28.2222 30.9 30.6667V32.8889H28.577C27.335 32.8889 26.3 31.8889 26.3 30.6889V15.1111H30.9V17.3333C30.9 19.7778 32.97 21.7778 35.5 21.7778Z" fill="#007AFF"/>
</svg>
