<svg width="48" height="48" viewBox="0 0 48 48" fill="none" xmlns="http://www.w3.org/2000/svg">
<path d="M42.4 8.44444H35.109L32.257 5.44444C31.406 4.53333 30.164 4 28.876 4H19.124C17.836 4 16.594 4.53333 15.72 5.44444L12.891 8.44444H5.6C3.07 8.44444 1 10.4444 1 12.8889V39.5556C1 42 3.07 44 5.6 44H42.4C44.93 44 47 42 47 39.5556V12.8889C47 10.4444 44.93 8.44444 42.4 8.44444ZM24 37.3333C17.652 37.3333 12.5 32.3556 12.5 26.2222C12.5 20.0889 17.652 15.1111 24 15.1111C30.348 15.1111 35.5 20.0889 35.5 26.2222C35.5 32.3556 30.348 37.3333 24 37.3333ZM24 17.3333L21.125 23.4444L14.8 26.2222L21.125 29L24 35.1111L26.875 29L33.2 26.2222L26.875 23.4444L24 17.3333Z" fill="#007AFF"/>
</svg>
