<svg width="48" height="48" viewBox="0 0 48 48" fill="none" xmlns="http://www.w3.org/2000/svg">
<path d="M14.8 37.8C12.27 37.8 10.223 39.87 10.223 42.4C10.223 44.93 12.27 47 14.8 47C17.33 47 19.4 44.93 19.4 42.4C19.4 39.87 17.33 37.8 14.8 37.8ZM1 1V5.6H5.6L13.88 23.057L10.775 28.692C10.407 29.336 10.2 30.095 10.2 30.9C10.2 33.43 12.27 35.5 14.8 35.5H42.4V30.9H15.766C15.444 30.9 15.191 30.647 15.191 30.325L15.26 30.049L17.33 26.3H34.465C36.19 26.3 37.708 25.357 38.49 23.931L46.724 9.004C46.908 8.682 47 8.291 47 7.9C47 6.635 45.965 5.6 44.7 5.6H10.683L8.521 1H1ZM37.8 37.8C35.27 37.8 33.223 39.87 33.223 42.4C33.223 44.93 35.27 47 37.8 47C40.33 47 42.4 44.93 42.4 42.4C42.4 39.87 40.33 37.8 37.8 37.8Z" fill="#007AFF"/>
</svg>
