<svg width="48" height="48" viewBox="0 0 48 48" fill="none" xmlns="http://www.w3.org/2000/svg">
<path d="M46.9647 35.5222L44.5166 13.7622C44.0427 9.90889 40.6865 7 36.659 7H11.3093C7.2818 7 3.92554 9.90889 3.4912 13.7244L1.0431 35.4844C0.648247 38.4311 3.01737 41 6.05775 41C7.40026 41 8.70327 40.4711 9.65093 39.5644L16.0871 33.4444H31.8812L38.2779 39.5644C39.2255 40.4711 40.5285 41 41.871 41C44.9509 41 47.32 38.4311 46.9647 35.5222ZM21.0227 21.1667H16.0871V25.8889H14.1128V21.1667H9.1771V19.2778H14.1128V14.5556H16.0871V19.2778H21.0227V21.1667ZM29.907 18.3333C28.8014 18.3333 27.9327 17.5022 27.9327 16.4444C27.9327 15.3867 28.8014 14.5556 29.907 14.5556C31.0125 14.5556 31.8812 15.3867 31.8812 16.4444C31.8812 17.5022 31.0125 18.3333 29.907 18.3333ZM33.8555 25.8889C32.7499 25.8889 31.8812 25.0578 31.8812 24C31.8812 22.9422 32.7499 22.1111 33.8555 22.1111C34.9611 22.1111 35.8298 22.9422 35.8298 24C35.8298 25.0578 34.9611 25.8889 33.8555 25.8889Z" fill="#007AFF"/>
</svg>
