<svg width="48" height="48" viewBox="0 0 48 48" fill="none" xmlns="http://www.w3.org/2000/svg">
<path d="M29.2778 25.0465L30.6078 30.8038C30.8189 31.7106 29.8267 32.4276 29.0244 31.9426L24 28.9058L18.9544 31.9426C18.1522 32.4276 17.16 31.7106 17.3711 30.8038L18.7222 25.0676L14.2889 21.2505C13.5711 20.639 13.9511 19.4791 14.88 19.3947L20.7489 18.8886L23.0289 13.4899C23.3878 12.6252 24.6122 12.6252 24.9711 13.4899L27.2511 18.8675L33.12 19.3736C34.0489 19.458 34.4289 20.6179 33.7111 21.2295L29.2778 25.0465ZM7.51222 7.92241C5.99222 8.59725 5 10.1156 5 11.7817V21.6934C5 33.3977 13.1067 44.3428 24 47C34.8933 44.3428 43 33.3977 43 21.6934V11.7817C43 10.1156 42.0078 8.59725 40.4878 7.92241L25.71 1.36378C24.6122 0.878739 23.3667 0.878739 22.29 1.36378L7.51222 7.92241Z" fill="#007AFF"/>
</svg>
