<svg width="48" height="48" viewBox="0 0 48 48" fill="none" xmlns="http://www.w3.org/2000/svg">
<path d="M42.837 6H5.6C3.07 6 1.023 8.025 1.023 10.5V19.5C3.553 19.5 5.6 21.525 5.6 24C5.6 26.475 3.553 28.5 1 28.5V37.5C1 39.975 3.07 42 5.6 42H42.4C44.93 42 47 39.975 47 37.5V10.5C47 8.025 45.137 6 42.837 6ZM37.179 26.925L17.652 32.01C17.146 32.145 16.617 31.92 16.364 31.4925L13.788 27.105C13.374 26.43 13.765 25.5525 14.524 25.35C14.892 25.26 15.306 25.3275 15.605 25.575L18.02 27.42L23.517 25.98L19.17 18.6C18.572 17.61 19.124 16.3275 20.251 16.0125C20.849 15.855 21.493 16.0125 21.953 16.4175L30.44 24.1575L36.052 22.695C37.225 22.38 38.444 23.0775 38.766 24.225C39.065 25.395 38.375 26.5875 37.179 26.925Z" fill="#007AFF"/>
</svg>
