<svg width="48" height="48" viewBox="0 0 48 48" fill="none" xmlns="http://www.w3.org/2000/svg">
<path d="M20.439 2.12871L11.3655 16.4257C10.3655 17.9777 11.5362 20 13.4387 20H31.5613C33.4638 20 34.6345 17.9777 33.6345 16.4257L24.5854 2.12871C23.6342 0.623762 21.3902 0.623762 20.439 2.12871Z" fill="#007AFF"/>
<path d="M36 47C42.0751 47 47 42.0751 47 36C47 29.9249 42.0751 25 36 25C29.9249 25 25 29.9249 25 36C25 42.0751 29.9249 47 36 47Z" fill="#007AFF"/>
<path d="M3.375 46H17.625C18.9313 46 20 44.9313 20 43.625V29.375C20 28.0687 18.9313 27 17.625 27H3.375C2.06875 27 1 28.0687 1 29.375V43.625C1 44.9313 2.06875 46 3.375 46Z" fill="#007AFF"/>
</svg>
