<svg width="48" height="48" viewBox="0 0 48 48" fill="none" xmlns="http://www.w3.org/2000/svg">
<path d="M42.6875 15.2L36.9375 9.33333C36.9375 8.27733 38.375 6.45867 38.375 4.93333C38.375 3.32 37.0813 2 35.5 2C29.2612 2 25.8687 6.4 25.8687 6.4H13.9375C6.89375 6.4 1 12.1787 1 19.6C1 26.4347 6.75 46 6.75 46H19.6875V41.6H24V46H36.9375L40.5312 32.8L47 31.3333V15.2H42.6875ZM26.875 18.1333H15.375V13.7333H26.875V18.1333ZM33.3438 22.5333C32.165 22.5333 31.1875 21.536 31.1875 20.3333C31.1875 19.1307 32.165 18.1333 33.3438 18.1333C34.5225 18.1333 35.5 19.1307 35.5 20.3333C35.5 21.536 34.5225 22.5333 33.3438 22.5333Z" fill="#007AFF"/>
</svg>
