<svg width="48" height="48" viewBox="0 0 48 48" fill="none" xmlns="http://www.w3.org/2000/svg">
<path d="M36.0888 7.7351C34.4263 5.41613 32.5262 3.25475 30.3887 1.31853C29.5575 0.55304 28.1563 1.2735 28.3938 2.35418C28.845 4.47053 29.32 7.2623 29.32 9.76138C29.32 14.3993 26.1137 18.1592 21.2212 18.1592C17.5637 18.1592 14.5713 16.0654 13.265 13.071C13.0275 12.6207 12.9325 12.3505 12.79 11.8552C12.5288 10.9096 11.2225 10.6169 10.6525 11.45C10.225 12.0578 9.82125 12.6657 9.44125 13.3186C6.615 17.9116 5 23.27 5 28.9886C5 38.9399 13.5025 47 24 47C34.4975 47 43 38.9399 43 28.9886C43 21.1311 40.435 13.8365 36.0888 7.7351V7.7351ZM23.3113 40.2457C19.0838 40.2457 15.6637 37.0937 15.6637 33.1762C15.6637 29.5289 18.1575 26.9623 22.3375 26.1518C25.8288 25.4763 29.415 24.0579 31.9087 21.829C32.5737 21.2437 33.6662 21.5138 33.8562 22.3469C34.4025 24.6433 34.6875 27.0298 34.6875 29.4389C34.7112 35.4051 29.605 40.2457 23.3113 40.2457V40.2457Z" fill="#007AFF"/>
</svg>
