<svg width="48" height="48" viewBox="0 0 48 48" fill="none" xmlns="http://www.w3.org/2000/svg">
<path d="M42.8218 10.734L43.933 8.3303L46.3367 7.21913C47.2211 6.81095 47.2211 5.56372 46.3367 5.15553L43.933 4.04437L42.8218 1.6633C42.4136 0.778901 41.1664 0.778901 40.7582 1.6633L39.647 4.06705L37.266 5.17821C36.3816 5.5864 36.3816 6.83362 37.266 7.24181L39.6697 8.35297L40.7809 10.734C41.1664 11.6184 42.4363 11.6184 42.8218 10.734Z" fill="#007AFF"/>
<path d="M16.7434 10.734L17.8546 8.3303L20.2583 7.21913C21.1427 6.81095 21.1427 5.56372 20.2583 5.15553L17.8546 4.06705L16.7434 1.6633C16.3579 0.778901 15.088 0.778901 14.7025 1.6633L13.5913 4.06705L11.1876 5.17821C10.3032 5.5864 10.3032 6.83362 11.1876 7.24181L13.5913 8.35297L14.7025 10.734C15.088 11.6184 16.3579 11.6184 16.7434 10.734Z" fill="#007AFF"/>
<path d="M40.7809 27.7417L39.6697 30.1454L37.266 31.2566C36.3816 31.6648 36.3816 32.912 37.266 33.3202L39.6697 34.4313L40.7809 36.8351C41.1891 37.7195 42.4363 37.7195 42.8445 36.8351L43.9557 34.4313L46.3367 33.2975C47.2211 32.8893 47.2211 31.6421 46.3367 31.2339L43.933 30.1227L42.8218 27.719C42.4363 26.8573 41.1664 26.8573 40.7809 27.7417Z" fill="#007AFF"/>
<path d="M36.6083 17.8092L30.1908 11.3917C29.3064 10.5073 27.8777 10.5073 26.9933 11.3917L1.64061 36.7217C0.756211 37.6061 0.756211 39.0348 1.64061 39.9192L8.05816 46.3367C8.94256 47.2211 10.3712 47.2211 11.2556 46.3367L36.5857 21.0066C37.4927 20.1449 37.4927 18.6936 36.6083 17.8092ZM28.6714 22.5487L25.474 19.3512L28.6034 16.2218L31.8008 19.4193L28.6714 22.5487Z" fill="#007AFF"/>
</svg>
