<svg width="48" height="48" viewBox="0 0 48 48" fill="none" xmlns="http://www.w3.org/2000/svg">
<path d="M25.3354 29.9562V44.5652C25.3354 45.9043 26.4305 47 27.7689 47H42.3702C43.7086 47 44.8037 45.9043 44.8037 44.5652V29.9562C44.8037 28.617 43.7086 27.5214 42.3702 27.5214H27.7689C26.4305 27.5214 25.3354 28.617 25.3354 29.9562ZM3.43354 47H18.0348C19.3732 47 20.4683 45.9043 20.4683 44.5652V29.9562C20.4683 28.617 19.3732 27.5214 18.0348 27.5214H3.43354C2.09509 27.5214 1 28.617 1 29.9562V44.5652C1 45.9043 2.09509 47 3.43354 47ZM1 5.60791V20.2169C1 21.556 2.09509 22.6517 3.43354 22.6517H18.0348C19.3732 22.6517 20.4683 21.556 20.4683 20.2169V5.60791C20.4683 4.26876 19.3732 3.17308 18.0348 3.17308H3.43354C2.09509 3.17308 1 4.26876 1 5.60791ZM32.5144 1.71219L22.1718 12.0359C21.2227 12.9854 21.2227 14.5194 22.1718 15.469L32.5144 25.817C33.4634 26.7666 34.9966 26.7666 35.9456 25.817L46.2882 15.469C47.2373 14.5194 47.2373 12.9854 46.2882 12.0359L35.97 1.71219C35.0209 0.762604 33.4634 0.762604 32.5144 1.71219V1.71219Z" fill="#007AFF"/>
</svg>
