<svg width="48" height="48" viewBox="0 0 48 48" fill="none" xmlns="http://www.w3.org/2000/svg">
<path d="M41.8889 1H6.11111C3.3 1 1 3.3 1 6.11111V24C1 26.8111 3.3 29.1111 6.11111 29.1111H41.8889C44.7 29.1111 47 26.8111 47 24V6.11111C47 3.3 44.7 1 41.8889 1ZM41.8889 16.3333H33.8644C32.6633 16.3333 31.7178 17.1767 31.3856 18.3267C30.4656 21.5467 27.45 24 24 24C20.55 24 17.5344 21.5467 16.6144 18.3267C16.2822 17.1767 15.3367 16.3333 14.1356 16.3333H6.11111V8.66667C6.11111 7.26111 7.26111 6.11111 8.66667 6.11111H39.3333C40.7389 6.11111 41.8889 7.26111 41.8889 8.66667V16.3333ZM33.89 34.2222H44.4444C45.85 34.2222 47 35.3722 47 36.7778V41.8889C47 44.7 44.7 47 41.8889 47H6.11111C3.3 47 1 44.7 1 41.8889V36.7778C1 35.3722 2.15 34.2222 3.55556 34.2222H14.11C15.3111 34.2222 16.2822 35.0911 16.6144 36.2667C17.5089 39.5122 20.4733 41.8889 24 41.8889C27.5267 41.8889 30.4911 39.5122 31.3856 36.2667C31.7178 35.0911 32.6889 34.2222 33.89 34.2222Z" fill="#007AFF"/>
</svg>
