<svg width="48" height="48" viewBox="0 0 48 48" fill="none" xmlns="http://www.w3.org/2000/svg">
<path d="M29.3987 38.3847C28.7548 40.4312 27.0762 42.1098 25.0296 42.7537C21.5574 43.8574 18.2691 42.2248 16.7745 39.4884C15.9697 37.9937 17.1654 36.2001 18.867 36.2001H18.89C19.6718 36.2001 20.4537 36.5681 20.8216 37.2579C21.2125 37.9937 21.9713 38.4996 22.8681 38.4996C24.1328 38.4996 25.1676 37.4649 25.1676 36.2001C25.1676 34.9354 24.1328 33.9007 22.8681 33.9007H3.29949C2.03477 33.9007 1 32.8659 1 31.6012C1 30.3365 2.03477 29.3017 3.29949 29.3017H22.8451C27.3521 29.3017 30.8933 33.6707 29.3987 38.3847ZM39.8843 10.147C39.2175 7.24961 36.849 4.88114 33.9516 4.21429C29.9045 3.29449 26.2024 5.43301 24.7077 8.76727C23.9949 10.3079 25.0986 12.0555 26.7772 12.0555C27.674 12.0555 28.5019 11.5496 28.8468 10.7448C29.3757 9.48011 30.5944 8.60631 32.0431 8.60631C33.9516 8.60631 35.4923 10.147 35.4923 12.0555C35.4923 13.9641 33.9516 15.5048 32.0431 15.5048H3.29949C2.03477 15.5048 1 16.5395 1 17.8043C1 19.069 2.03477 20.1037 3.29949 20.1037H32.0431C37.1019 20.1037 41.0801 15.4128 39.8843 10.147ZM38.7116 22.4032H3.29949C2.03477 22.4032 1 23.438 1 24.7027C1 25.9674 2.03477 27.0022 3.29949 27.0022H38.9415C40.8501 27.0022 42.3908 28.5429 42.3908 30.4514C42.3908 31.9001 41.517 33.1188 40.2522 33.6477C39.4244 33.9926 38.9415 34.8205 38.9415 35.7173C38.9415 37.3959 40.6891 38.4996 42.2298 37.8098C45.5181 36.3381 47.6336 32.7279 46.8288 28.7728C46.0469 25.0016 42.5517 22.4032 38.7116 22.4032Z" fill="#007AFF"/>
</svg>
