<svg width="46" height="46" viewBox="0 0 46 46" fill="none" xmlns="http://www.w3.org/2000/svg">
<path d="M10.35 46H2.3C1.035 46 0 44.95 0 43.6667V17.3333C0 16.05 1.035 15 2.3 15H10.35C11.615 15 12.65 16.05 12.65 17.3333V43.6667C12.65 44.95 11.615 46 10.35 46ZM27.025 0H18.975C17.71 0 16.675 1.05 16.675 2.33333V43.6667C16.675 44.95 17.71 46 18.975 46H27.025C28.29 46 29.325 44.95 29.325 43.6667V2.33333C29.325 1.05 28.29 0 27.025 0ZM43.7 20.6667H35.65C34.385 20.6667 33.35 21.7167 33.35 23V43.6667C33.35 44.95 34.385 46 35.65 46H43.7C44.965 46 46 44.95 46 43.6667V23C46 21.7167 44.965 20.6667 43.7 20.6667Z" fill="#007AFF"/>
</svg>
