<svg width="48" height="48" viewBox="0 0 48 48" fill="none" xmlns="http://www.w3.org/2000/svg">
<path d="M41.5238 22.9048H38.2381V14.1429C38.2381 11.7333 36.2667 9.7619 33.8571 9.7619H25.0952V6.47619C25.0952 3.45333 22.6419 1 19.619 1C16.5962 1 14.1429 3.45333 14.1429 6.47619V9.7619H5.38095C2.97143 9.7619 1.0219 11.7333 1.0219 14.1429V22.4667H4.28571C7.54952 22.4667 10.2 25.1171 10.2 28.381C10.2 31.6448 7.54952 34.2952 4.28571 34.2952H1V42.619C1 45.0286 2.97143 47 5.38095 47H13.7048V43.7143C13.7048 40.4505 16.3552 37.8 19.619 37.8C22.8829 37.8 25.5333 40.4505 25.5333 43.7143V47H33.8571C36.2667 47 38.2381 45.0286 38.2381 42.619V33.8571H41.5238C44.5467 33.8571 47 31.4038 47 28.381C47 25.3581 44.5467 22.9048 41.5238 22.9048Z" fill="#007AFF"/>
</svg>
