<svg width="48" height="48" viewBox="0 0 48 48" fill="none" xmlns="http://www.w3.org/2000/svg">
<path d="M46.2443 30.3488L41.6443 27.2647L27.2857 17.5812V4.31625C27.2857 2.49231 25.8071 1 24 1C22.1929 1 20.7143 2.49231 20.7143 4.31625V17.5812L6.84857 26.8999L1.75571 30.3488C1.29571 30.6473 1 31.1779 1 31.7748C1 32.9686 2.15 33.7977 3.23429 33.3997L20.7143 27.53V40.795L16.6071 43.5475C16.1143 43.9122 15.7857 44.476 15.7857 45.1061C15.7857 46.2999 16.87 47.1953 18.02 46.9632L24 45.7693L29.98 46.9632C31.13 47.1953 32.2143 46.2999 32.2143 45.1061C32.2143 44.476 31.8857 43.8791 31.3929 43.5475L27.2857 40.795V27.53L44.7657 33.3997C45.8829 33.7645 47 32.9355 47 31.7748C47 31.1779 46.7043 30.6473 46.2443 30.3488Z" fill="#007AFF"/>
</svg>
