<svg width="48" height="48" viewBox="0 0 48 48" fill="none" xmlns="http://www.w3.org/2000/svg">
<path d="M46.8148 18.8475L38.1547 37.275C37.6192 38.3775 35.9198 38.0175 35.9198 36.8025V21.75H32.4278C31.776 21.75 31.2638 21.255 31.2638 20.625V7.125C31.2638 6.495 31.776 6 32.4278 6H45.837C46.6518 6 47.2338 6.81 46.9079 7.5525L42.9038 17.25H45.7439C46.6053 17.25 47.164 18.105 46.8148 18.8475ZM31.2638 26.25V42H5.65597C3.09519 42 1 39.975 1 37.5V30.75C1 28.275 3.09519 26.25 5.65597 26.25H31.2638ZM10.8939 34.125C10.8939 33.2025 10.1024 32.4375 9.14795 32.4375C8.19348 32.4375 7.40196 33.2025 7.40196 34.125C7.40196 35.0475 8.19348 35.8125 9.14795 35.8125C10.1024 35.8125 10.8939 35.0475 10.8939 34.125ZM26.6079 6V21.75H5.65597C3.09519 21.75 1 19.725 1 17.25V10.5C1 8.025 3.09519 6 5.65597 6H26.6079ZM10.8939 13.875C10.8939 12.9525 10.1024 12.1875 9.14795 12.1875C8.19348 12.1875 7.40196 12.9525 7.40196 13.875C7.40196 14.7975 8.19348 15.5625 9.14795 15.5625C10.1024 15.5625 10.8939 14.7975 10.8939 13.875Z" fill="#007AFF"/>
</svg>
