<svg width="533" height="430" viewBox="0 0 533 430" fill="none" xmlns="http://www.w3.org/2000/svg">
<g clip-path="url(#clip0)">
<path fill-rule="evenodd" clip-rule="evenodd" d="M173.461 452.709C160.258 460.293 145.371 466.052 134.416 476.726C121.073 489.928 109.977 505.799 102.393 522.793C85.9606 559.731 73.3201 598.495 62.9269 637.54C54.219 669.984 61.6628 706.501 136.803 698.776C183.292 694.001 182.028 628.973 205.202 633.186C293.404 649.479 265.736 561.838 295.23 561.838C324.725 561.838 333.994 644.142 380.904 634.591C410.961 628.552 374.022 484.029 362.927 454.113C358.011 440.911 350.286 427.288 338.629 419.422C326.972 411.557 311.663 409.731 297.618 409.731C276.27 409.591 254.5 411.979 234.416 418.861C212.365 426.445 193.545 441.052 173.461 452.709Z" fill="#1D1D1F"/>
<path fill-rule="evenodd" clip-rule="evenodd" d="M257.028 160.153C245.23 161.978 226.41 136.838 238.769 123.074C242.842 118.58 249.163 119.984 251.831 115.49C259.135 103.832 268.264 96.9504 283.011 96.2482C295.09 95.6864 313.067 111.276 304.219 124.198C299.163 131.501 280.623 134.872 276.129 136.557C266.578 140.209 266.438 158.748 257.028 160.153Z" fill="#F0F2F4"/>
<path fill-rule="evenodd" clip-rule="evenodd" d="M307.309 330.799C307.309 330.799 512.084 261.417 523.18 230.237C534.416 198.776 453.236 44.4223 400.708 6.92227C385.258 -4.17324 344.107 0.742492 322.197 13.6638C311.241 20.1245 309.697 38.102 309.697 38.102C309.697 38.102 315.034 45.6863 318.545 47.0908C322.056 48.3548 323.32 42.5964 323.32 42.5964C323.32 42.5964 335.258 56.5009 342.562 55.6582C348.039 54.956 352.955 46.8099 352.955 46.8099C352.955 46.8099 359.416 50.8829 367.421 52.0065C375.427 53.1301 384.977 51.4447 384.977 51.4447C384.977 51.4447 432.59 156.782 427.955 173.636C425.708 181.922 379.921 201.726 379.921 201.726C379.921 201.726 328.657 176.866 307.028 204.816C285.258 232.765 262.506 242.456 293.124 313.664" fill="#F0F2F4"/>
<path fill-rule="evenodd" clip-rule="evenodd" d="M307.309 331.782C306.887 331.782 306.466 331.501 306.325 331.08C306.185 330.518 306.466 329.956 306.887 329.816C308.994 329.113 511.382 260.293 522.196 229.816C533.011 199.479 453.516 45.8269 400.146 7.62461C384.696 -3.33044 343.545 2.14708 322.758 14.5066C313.207 20.1246 310.96 35.2932 310.679 37.8212C312.224 40.0684 316.297 45.1246 318.825 46.1078C319.387 46.2482 319.809 46.2482 320.089 46.1078C321.354 45.4055 322.056 43.1583 322.196 42.4561C322.337 42.0347 322.618 41.7538 322.898 41.7538C323.32 41.6134 323.601 41.7538 323.882 42.0347C327.112 45.8269 336.663 55.3774 342.28 54.6752C347.196 54.1134 351.831 46.3887 351.831 46.2482C351.972 45.9673 352.252 45.8269 352.393 45.8269C352.674 45.8269 352.955 45.8269 353.095 45.9673C353.095 45.9673 359.556 49.8999 367.14 51.0235C374.865 52.1471 384.275 50.4617 384.415 50.4617C384.837 50.3212 385.258 50.6021 385.539 51.0235C387.505 55.3774 433.151 156.922 428.657 173.776C426.41 182.344 384.837 200.462 380.061 202.568C379.78 202.709 379.5 202.709 379.219 202.568C378.657 202.288 328.376 178.411 307.449 205.377C304.5 209.17 301.55 212.681 298.601 216.052C280.483 237.119 267.561 252.288 293.685 313.243C293.966 313.804 293.685 314.366 293.123 314.507C292.561 314.647 292 314.507 291.859 313.945C265.174 251.866 278.516 236.276 297.056 214.788C299.865 211.417 302.955 208.046 305.904 204.254C326.831 177.288 374.724 198.355 379.64 200.743C397.898 192.877 425.146 179.254 426.691 173.495C430.904 157.906 388.067 61.8381 383.994 52.7089C381.606 53.1302 373.741 54.1134 366.859 53.1302C360.258 52.1471 354.921 49.4785 352.814 48.3549C351.41 50.4617 347.056 56.2201 342.28 56.9224C335.82 57.6246 326.55 48.355 323.32 44.8437C322.898 45.9673 322.056 47.3718 320.792 48.0741C319.949 48.6358 318.825 48.6358 317.842 48.2145C314.191 46.81 309.134 39.6471 308.573 38.9448C308.432 38.8044 308.432 38.5235 308.432 38.2426C308.432 37.5403 310.258 19.7033 321.494 13.1021C342.983 0.321241 384.696 -5.29674 400.988 6.36057C429.5 26.7257 463.769 78.8325 486.382 120.686C514.471 172.653 529.078 215.911 523.741 230.799C512.646 262.119 315.595 329.113 307.168 331.922C307.589 331.782 307.449 331.782 307.309 331.782Z" fill="#1D1D1F"/>
<path fill-rule="evenodd" clip-rule="evenodd" d="M318.123 193.58L386.803 182.484L434.275 286.979L327.955 331.641L318.123 193.58Z" fill="#0A84FF"/>
<path fill-rule="evenodd" clip-rule="evenodd" d="M392.281 786.276L350.848 606.36C350.848 606.36 345.792 600.462 337.646 590.771C307.73 555.518 236.101 469.984 217.14 437.54C186.241 384.731 113.769 362.962 113.769 362.962L130.483 494.141L27.9547 532.484C27.9547 532.484 -12.2138 274.198 -0.556526 249.759C6.6064 234.731 16.9997 216.473 33.2918 212.962C64.612 206.22 100.286 207.905 128.938 222.091C199.443 256.922 269.949 298.074 322.899 356.08C378.376 416.894 436.663 491.613 455.483 540.63C478.516 600.462 498.179 778.13 498.179 778.13L392.281 786.276Z" fill="#254898"/>
<path fill-rule="evenodd" clip-rule="evenodd" d="M162.646 189.647C179.5 152.147 202.393 159.31 243.404 160.012C259.416 160.293 338.067 186.417 338.067 186.417C338.067 186.417 352.814 217.877 352.814 243.861C352.814 272.512 349.022 333.327 346.635 361.979C343.685 397.653 300.427 387.4 300.427 387.4C300.427 387.4 194.949 367.737 174.163 339.928C141.859 296.67 140.595 238.804 162.646 189.647Z" fill="#0A84FF"/>
<path fill-rule="evenodd" clip-rule="evenodd" d="M165.455 528.692C156.747 522.793 175.005 509.17 171.775 501.023C168.545 493.018 152.533 496.389 152.533 496.389C152.533 496.389 120.932 521.389 113.348 533.327C106.466 544.422 116.017 561.136 107.449 563.804C99.584 566.192 88.9098 541.754 92.8424 530.658C98.039 516.332 85.3986 541.894 80.4829 541.473C75.5671 541.052 67.9829 530.237 76.8312 509.31C80.4829 500.602 110.68 476.445 110.539 472.793C109.275 388.383 103.657 304.113 102.253 219.703C101.972 206.22 103.236 192.737 105.764 179.535C115.876 126.304 205.483 162.4 205.483 162.4L183.854 270.125L186.803 445.265C186.803 445.265 207.59 467.035 207.309 478.692C207.028 509.872 177.533 536.698 165.455 528.692Z" fill="#F0F2F4"/>
<path fill-rule="evenodd" clip-rule="evenodd" d="M106.325 565.068C104.78 565.068 102.814 564.366 100.426 561.979C94.1061 555.377 88.9094 539.366 91.8589 530.658C91.7184 530.799 91.578 531.08 91.4375 531.22C86.9431 537.821 83.151 542.737 80.342 542.597C78.2353 542.456 75.9881 540.771 74.4431 538.102C72.4768 534.872 68.8252 525.743 75.8476 509.17C77.9544 504.254 87.7858 494.984 96.3532 486.698C102.112 481.22 109.275 474.479 109.415 472.934C108.853 430.097 107.027 386.417 105.202 344.141C103.516 303.411 101.831 261.276 101.129 219.844C100.848 206.501 102.112 192.877 104.64 179.535C106.747 168.439 112.364 160.293 121.494 155.377C133.572 148.776 151.55 147.793 174.584 152.568C191.718 156.08 205.482 161.557 205.623 161.698C206.044 161.838 206.325 162.4 206.185 162.821L184.696 270.546L187.645 445.125C190.173 447.793 208.432 467.597 208.292 478.833C207.87 500.883 193.263 521.529 179.359 528.833C173.6 531.922 168.263 532.203 164.752 529.816C159.134 526.024 163.067 519.563 166.438 513.804C169.106 509.45 171.915 504.816 170.651 501.726C167.982 494.984 154.64 497.372 152.814 497.653C150.145 499.759 121.072 522.934 114.05 534.17C110.82 539.226 111.381 545.686 111.803 551.445C112.224 557.625 112.786 563.524 107.589 565.068C107.308 564.928 106.887 565.068 106.325 565.068ZM93.9656 525.321C94.1061 525.321 94.2465 525.321 94.5274 525.462C95.5105 526.024 95.3701 527.007 93.8252 531.08C91.0162 538.945 95.9319 554.394 101.971 560.574C103.376 561.979 105.342 563.524 107.168 562.962C110.679 561.838 110.539 557.765 110.117 551.304C109.696 545.265 109.134 538.524 112.645 532.906C120.23 520.967 150.707 496.67 151.971 495.686C152.112 495.546 152.252 495.546 152.393 495.546C153.095 495.406 169.247 492.035 172.758 500.743C174.443 504.816 171.353 509.872 168.404 514.647C164.471 521.248 162.224 525.462 166.016 527.99C169.106 529.956 173.6 529.675 178.657 526.866C191.999 519.844 206.044 499.9 206.466 478.552C206.606 467.456 186.381 446.108 186.1 445.827C185.96 445.686 185.82 445.406 185.82 445.125L182.73 269.984V269.844L204.078 162.821C197.336 160.293 148.46 142.456 122.196 156.782C113.629 161.417 108.432 169.141 106.466 179.535C103.938 192.877 102.814 206.22 103.095 219.563C103.797 260.995 105.482 303.13 107.168 343.861C108.853 386.136 110.679 429.675 111.381 472.653C111.381 474.619 107.589 478.271 97.6173 487.821C89.4712 495.546 79.3589 505.097 77.533 509.591C70.9319 525.321 74.1622 533.889 75.9881 536.698C77.533 539.226 79.2184 540.209 80.4825 540.349C82.4488 540.349 87.3645 533.327 89.6117 529.816C92.2802 526.445 93.1229 525.321 93.9656 525.321Z" fill="#1D1D1F"/>
<path fill-rule="evenodd" clip-rule="evenodd" d="M165.455 528.692C156.747 522.793 175.005 509.17 171.775 501.023C168.545 493.018 152.533 496.389 152.533 496.389C152.533 496.389 120.932 521.389 113.348 533.327C106.466 544.422 116.017 561.136 107.449 563.804C99.584 566.192 88.9098 541.754 92.8424 530.658C98.039 516.332 85.3986 541.894 80.4829 541.473C75.5671 541.052 67.9829 530.237 76.8312 509.31C80.4829 500.602 110.68 476.445 110.539 472.793C109.275 388.383 103.657 304.113 102.253 219.703C101.972 206.22 103.236 192.737 105.764 179.535C115.876 126.304 205.483 162.4 205.483 162.4L183.854 270.125L186.803 445.265C186.803 445.265 207.59 467.035 207.309 478.692C207.028 509.872 177.533 536.698 165.455 528.692Z" fill="#F0F2F4"/>
<path fill-rule="evenodd" clip-rule="evenodd" d="M106.325 565.068C104.78 565.068 102.814 564.366 100.426 561.979C94.1061 555.377 88.9094 539.366 91.8589 530.658C91.7184 530.799 91.578 531.08 91.4375 531.22C86.9431 537.821 83.151 542.737 80.342 542.597C78.2353 542.456 75.9881 540.771 74.4431 538.102C72.4768 534.872 68.8252 525.743 75.8476 509.17C77.9544 504.254 87.7858 494.984 96.3532 486.698C102.112 481.22 109.275 474.479 109.415 472.934C108.853 430.097 107.027 386.417 105.202 344.141C103.516 303.411 101.831 261.276 101.129 219.844C100.848 206.501 102.112 192.877 104.64 179.535C106.747 168.439 112.364 160.293 121.494 155.377C133.572 148.776 151.55 147.793 174.584 152.568C191.718 156.08 205.482 161.557 205.623 161.698C206.044 161.838 206.325 162.4 206.185 162.821L184.696 270.546L187.645 445.125C190.173 447.793 208.432 467.597 208.292 478.833C207.87 500.883 193.263 521.529 179.359 528.833C173.6 531.922 168.263 532.203 164.752 529.816C159.134 526.024 163.067 519.563 166.438 513.804C169.106 509.45 171.915 504.816 170.651 501.726C167.982 494.984 154.64 497.372 152.814 497.653C150.145 499.759 121.072 522.934 114.05 534.17C110.82 539.226 111.381 545.686 111.803 551.445C112.224 557.625 112.786 563.524 107.589 565.068C107.308 564.928 106.887 565.068 106.325 565.068ZM93.9656 525.321C94.1061 525.321 94.2465 525.321 94.5274 525.462C95.5105 526.024 95.3701 527.007 93.8252 531.08C91.0162 538.945 95.9319 554.394 101.971 560.574C103.376 561.979 105.342 563.524 107.168 562.962C110.679 561.838 110.539 557.765 110.117 551.304C109.696 545.265 109.134 538.524 112.645 532.906C120.23 520.967 150.707 496.67 151.971 495.686C152.112 495.546 152.252 495.546 152.393 495.546C153.095 495.406 169.247 492.035 172.758 500.743C174.443 504.816 171.353 509.872 168.404 514.647C164.471 521.248 162.224 525.462 166.016 527.99C169.106 529.956 173.6 529.675 178.657 526.866C191.999 519.844 206.044 499.9 206.466 478.552C206.606 467.456 186.381 446.108 186.1 445.827C185.96 445.686 185.82 445.406 185.82 445.125L182.73 269.984V269.844L204.078 162.821C197.336 160.293 148.46 142.456 122.196 156.782C113.629 161.417 108.432 169.141 106.466 179.535C103.938 192.877 102.814 206.22 103.095 219.563C103.797 260.995 105.482 303.13 107.168 343.861C108.853 386.136 110.679 429.675 111.381 472.653C111.381 474.619 107.589 478.271 97.6173 487.821C89.4712 495.546 79.3589 505.097 77.533 509.591C70.9319 525.321 74.1622 533.889 75.9881 536.698C77.533 539.226 79.2184 540.209 80.4825 540.349C82.4488 540.349 87.3645 533.327 89.6117 529.816C92.2802 526.445 93.1229 525.321 93.9656 525.321Z" fill="#1D1D1F"/>
<path fill-rule="evenodd" clip-rule="evenodd" d="M212.225 162.821C212.225 162.821 162.927 120.967 119.949 148.074C90.8764 166.473 97.1966 246.108 97.1966 246.108L186.522 271.248L212.225 162.821Z" fill="#0A84FF"/>
<path fill-rule="evenodd" clip-rule="evenodd" d="M104.921 334.45C104.64 334.45 104.36 334.31 104.079 334.029C98.6011 325.883 94.2472 319.563 89.6124 312.962C86.1011 307.905 82.4494 302.568 78.0955 296.389L77.9551 296.248C77.8146 296.248 77.8146 296.108 77.6742 296.108C77.2528 295.827 77.1124 295.265 77.5337 294.844C77.8146 294.422 78.3764 294.282 78.7978 294.703L78.9382 294.844C79.0786 294.984 79.5 295.124 79.6404 295.546C83.9944 301.866 87.5056 307.063 91.1573 312.119C95.7921 318.72 100.146 325.04 105.624 333.186C105.904 333.608 105.764 334.169 105.343 334.45C105.202 334.31 105.062 334.45 104.921 334.45Z" fill="#1D1D1F"/>
<path fill-rule="evenodd" clip-rule="evenodd" d="M263.207 147.934L246.634 182.906C246.634 182.906 239.471 192.456 254.78 197.793C270.089 202.99 295.229 203.13 295.229 203.13L305.904 167.175L263.207 147.934Z" fill="#F0F2F4"/>
<path fill-rule="evenodd" clip-rule="evenodd" d="M295.23 204.113C294.247 204.113 269.668 203.973 254.359 198.636C248.741 196.67 245.37 194.001 244.247 190.49C242.983 186.417 245.23 182.905 245.651 182.344L262.224 147.512C262.505 147.091 263.067 146.81 263.488 147.091L306.044 166.332C306.466 166.473 306.747 167.035 306.606 167.456L295.932 203.411C296.073 203.832 295.651 204.113 295.23 204.113ZM263.769 149.198L247.617 183.327C247.617 183.327 247.617 183.467 247.477 183.467C247.477 183.467 245.23 186.557 246.213 189.928C247.056 192.737 250.005 195.125 255.061 196.81C268.544 201.445 290.174 202.007 294.528 202.147L304.64 167.737L263.769 149.198Z" fill="#1D1D1F"/>
<path fill-rule="evenodd" clip-rule="evenodd" d="M303.938 116.333C312.505 129.956 317.702 142.456 320.792 151.164C327.674 169.984 308.292 183.608 303.095 184.029C285.399 183.748 275.989 177.147 270.651 168.158C264.472 157.906 259.275 137.821 258.011 133.327C257.028 128.833 272.337 124.759 278.376 120.827C284.416 117.316 300.005 110.153 303.938 116.333Z" fill="#F0F2F4"/>
<path fill-rule="evenodd" clip-rule="evenodd" d="M303.095 184.872C287.084 184.591 276.129 179.254 269.668 168.58C265.595 161.838 261.101 149.338 256.887 133.467C256.045 129.675 262.646 126.866 269.528 123.776C272.758 122.372 275.708 121.108 277.674 119.844C277.955 119.703 299.303 107.344 304.64 115.63C313.488 129.675 318.685 142.456 321.494 150.602C324.865 160.012 321.915 167.737 318.826 172.512C314.191 179.956 306.466 184.731 303.095 184.872ZM298.32 114.928C292.562 114.928 283.573 119.001 278.797 121.67C276.691 122.934 273.601 124.338 270.371 125.743C265.314 127.849 258.292 130.939 258.854 133.046C262.927 148.776 267.421 160.995 271.354 167.597C277.393 177.568 287.786 182.625 302.955 182.906C305.342 182.765 312.646 178.552 317.14 171.529C320.09 167.035 322.758 160.012 319.668 151.445C316.859 143.299 311.663 130.658 302.955 116.754C302.112 115.349 300.427 114.928 298.32 114.928Z" fill="#1D1D1F"/>
<path fill-rule="evenodd" clip-rule="evenodd" d="M304.921 152.428C304.78 152.428 304.78 152.428 304.64 152.428C304.078 152.288 303.797 151.726 303.937 151.304L305.061 147.372L300.005 144.563C299.864 144.422 299.724 144.422 299.724 144.282L293.965 134.872C293.685 134.451 293.825 133.889 294.246 133.608C294.668 133.327 295.23 133.467 295.51 133.889L301.128 143.158L306.606 146.248C307.027 146.529 307.168 146.951 307.027 147.372L305.623 152.147C305.623 152.147 305.342 152.428 304.921 152.428Z" fill="#1D1D1F"/>
<path fill-rule="evenodd" clip-rule="evenodd" d="M305.904 161.838C303.095 161.838 300.146 160.574 298.179 158.327C297.899 157.905 297.899 157.344 298.179 157.063C298.601 156.782 299.163 156.782 299.443 157.063C301.269 159.029 303.797 160.153 306.325 160.012C306.887 160.012 307.309 160.434 307.309 160.855C307.309 161.417 306.887 161.838 306.466 161.838C306.325 161.838 306.045 161.838 305.904 161.838Z" fill="#1D1D1F"/>
<path fill-rule="evenodd" clip-rule="evenodd" d="M273.741 146.669C273.741 146.669 276.41 142.596 281.325 140.63C286.382 138.383 291.297 140.349 291.297 140.349C291.297 140.349 289.472 145.125 283.432 147.372C278.797 149.478 273.741 146.669 273.741 146.669Z" fill="white"/>
<path fill-rule="evenodd" clip-rule="evenodd" d="M289.753 142.737C289.753 142.877 287.786 145.405 284.837 146.81C282.028 148.355 279.079 147.933 279.079 147.933C278.236 146.248 277.393 143.58 282.168 140.911C285.82 139.507 289.191 141.051 289.753 142.737Z" fill="#1D1D1F"/>
<path fill-rule="evenodd" clip-rule="evenodd" d="M312.084 131.08C307.589 132.625 304.78 135.574 304.78 135.574C304.78 135.574 309.134 138.945 314.331 137.54C314.893 137.4 315.174 137.4 315.735 137.259C315.454 136.838 312.084 131.22 312.084 131.08Z" fill="white"/>
<path fill-rule="evenodd" clip-rule="evenodd" d="M315.034 135.293C314.753 134.731 314.191 134.17 313.91 133.608C313.77 133.467 313.629 133.046 313.348 132.906C313.208 132.906 312.786 131.782 312.646 131.782C308.573 132.484 307.59 135.715 307.871 137.54C307.871 137.54 310.258 138.664 313.489 138.243C314.472 138.102 315.315 137.962 316.017 137.54C315.876 136.698 315.455 135.995 315.034 135.293Z" fill="#1D1D1F"/>
<path fill-rule="evenodd" clip-rule="evenodd" d="M272.758 135.889C272.056 135.889 271.213 135.889 270.511 135.608C269.809 135.327 269.107 134.625 269.388 133.922C269.388 132.939 270.371 132.237 271.213 131.956C274.584 130.271 278.657 129.709 282.309 130.411C283.713 130.552 285.118 131.254 285.539 132.799C285.68 134.203 284.837 134.484 283.713 134.765C279.921 135.608 276.27 135.889 272.758 135.889Z" fill="#1D1D1F"/>
<path fill-rule="evenodd" clip-rule="evenodd" d="M303.235 126.304C302.674 126.445 302.112 126.445 301.55 126.304C300.988 126.164 300.567 125.602 300.426 125.181C300.286 124.338 300.988 123.636 301.41 123.214C303.797 121.389 306.466 120.546 309.275 120.546C310.258 120.546 311.522 120.827 311.943 122.091C312.224 123.074 311.662 123.636 310.96 123.917C308.573 125.04 305.904 125.883 303.235 126.304Z" fill="#1D1D1F"/>
<path fill-rule="evenodd" clip-rule="evenodd" d="M265.735 150.743C264.19 147.934 260.96 145.967 257.87 145.967C254.64 146.108 251.409 148.355 250.567 151.304C249.724 154.254 251.269 158.046 254.078 159.591C256.044 160.434 258.291 160.434 260.258 159.731C262.224 159.029 264.19 157.905 265.876 156.501" fill="#F0F2F4"/>
<path fill-rule="evenodd" clip-rule="evenodd" d="M257.309 161.276C256.044 161.276 254.78 160.995 253.657 160.574C250.286 158.889 248.601 154.675 249.584 151.164C250.567 147.793 253.938 145.265 257.73 145.125C261.382 145.125 264.893 147.231 266.578 150.321C266.859 150.742 266.578 151.445 266.157 151.585C265.735 151.866 265.033 151.585 264.893 151.164C263.629 148.636 260.679 146.95 257.87 146.95C255.061 147.091 252.252 149.057 251.55 151.585C250.848 154.254 252.252 157.484 254.64 158.748C256.325 159.45 258.151 159.45 260.118 158.889C261.803 158.327 263.488 157.344 265.314 155.799C265.735 155.518 266.297 155.518 266.719 155.939C267 156.36 267 156.922 266.578 157.344C264.612 159.029 262.646 160.012 260.679 160.714C259.556 161.136 258.432 161.276 257.309 161.276Z" fill="#1D1D1F"/>
<path fill-rule="evenodd" clip-rule="evenodd" d="M261.522 156.22C261.1 156.22 260.82 155.939 260.679 155.658C259.977 153.692 257.87 152.287 255.763 152.428C255.342 152.428 254.78 152.007 254.78 151.585C254.78 151.023 255.202 150.602 255.623 150.602C258.572 150.462 261.522 152.287 262.505 155.096C262.645 155.518 262.365 156.08 261.943 156.22C261.662 156.22 261.522 156.22 261.522 156.22Z" fill="#1D1D1F"/>
<path fill-rule="evenodd" clip-rule="evenodd" d="M257.449 155.377C257.308 155.377 257.168 155.377 257.168 155.377C256.746 155.237 256.465 154.675 256.606 154.113C257.027 153.13 258.01 152.287 259.274 152.007C259.836 151.866 260.258 152.287 260.398 152.709C260.538 153.271 260.117 153.692 259.696 153.832C259.134 153.973 258.572 154.254 258.291 154.816C258.151 155.237 257.87 155.377 257.449 155.377Z" fill="#1D1D1F"/>
<path fill-rule="evenodd" clip-rule="evenodd" d="M334.134 52.4279C333.994 52.4279 333.854 52.4279 333.713 52.2875C333.292 52.0066 333.011 51.4448 333.292 51.0234C336.522 44.1414 342 34.7313 350.848 32.3437C351.41 32.2032 351.831 32.4841 351.972 33.0459C352.112 33.6077 351.831 34.029 351.269 34.1695C343.123 36.2762 338.067 45.265 334.977 51.8661C334.837 52.147 334.556 52.4279 334.134 52.4279Z" fill="#1D1D1F"/>
<path fill-rule="evenodd" clip-rule="evenodd" d="M323.32 43.4392C323.179 43.4392 323.179 43.4392 323.039 43.4392C322.617 43.2987 322.337 42.7369 322.477 42.3156C324.865 35.2931 332.73 24.7594 341.438 22.7931C341.999 22.6527 342.421 22.9336 342.561 23.4954C342.702 24.0572 342.421 24.4785 341.859 24.619C333.853 26.4448 326.55 36.4167 324.303 42.8774C324.022 43.2987 323.741 43.4392 323.32 43.4392Z" fill="#1D1D1F"/>
<path fill-rule="evenodd" clip-rule="evenodd" d="M313.91 43.018C313.769 43.018 313.769 43.018 313.629 43.018C313.067 42.8775 312.786 42.3157 312.926 41.8944C313.207 41.0517 318.966 20.2652 330.904 18.1584C331.466 18.018 331.887 18.4393 332.028 18.8607C332.168 19.4225 331.747 19.8438 331.325 19.9843C320.511 21.8101 314.893 42.1753 314.893 42.3157C314.752 42.7371 314.331 43.018 313.91 43.018Z" fill="#1D1D1F"/>
<path fill-rule="evenodd" clip-rule="evenodd" d="M-1.9611 268.72C-1.9611 268.72 -2.38245 242.316 7.16812 229.675C23.3198 208.327 51.1288 209.731 51.1288 209.731C51.1288 209.731 49.3029 228.411 30.9041 247.091C12.7861 265.771 -1.9611 268.72 -1.9611 268.72Z" fill="#34C759"/>
<path fill-rule="evenodd" clip-rule="evenodd" d="M256.326 102.569C255.062 104.394 233.714 113.383 236.803 129.254C237.365 132.344 240.596 133.748 242.562 135.855C256.607 151.445 265.517 124.545 279 123C289.112 121.877 307.169 130.939 313.067 119.142C325.708 93.7202 284.416 63.664 256.326 102.569Z" fill="#F0F2F4"/>
<path fill-rule="evenodd" clip-rule="evenodd" d="M242.28 185.574C242.28 185.574 235.82 188.804 232.168 194.563C240.735 207.905 249.584 217.596 258.151 230.939C265.033 223.917 271.775 220.686 278.797 213.664C285.258 220.125 291.719 226.585 298.179 233.046C299.865 222.934 305.061 211.698 306.325 201.445L302.674 194.844C302.674 194.844 299.724 196.529 297.337 197.372C285.539 201.726 272.477 201.023 261.241 195.265L242.28 185.574Z" fill="#1D1D1F"/>
<mask id="mask0" style="mask-type:alpha" maskUnits="userSpaceOnUse" x="404" y="336" width="28" height="27">
<path d="M404.359 349.478C404.359 342.316 410.399 336.557 417.983 336.557C425.567 336.557 431.607 342.316 431.607 349.478C431.607 356.641 425.567 362.4 417.983 362.4C410.539 362.54 404.359 356.641 404.359 349.478Z" fill="white"/>
</mask>
<g mask="url(#mask0)">
<path d="M404.359 349.478C404.359 342.316 410.399 336.557 417.983 336.557C425.567 336.557 431.607 342.316 431.607 349.478C431.607 356.641 425.567 362.4 417.983 362.4C410.539 362.54 404.359 356.641 404.359 349.478Z" fill="#34C759"/>
<path fill-rule="evenodd" clip-rule="evenodd" d="M439.893 377.568C439.893 377.007 439.753 376.445 439.753 375.602C440.455 376.024 441.017 376.164 441.86 376.585C441.438 375.602 441.157 375.181 440.876 374.479C441.438 374.338 442 374.198 442.983 373.917C442.562 373.355 442.14 372.934 441.719 372.512C441.157 373.074 440.596 373.355 440.174 373.917C439.893 374.338 439.612 374.9 439.331 375.462C439.051 374.479 438.77 373.636 438.489 372.934C437.927 373.917 437.084 374.619 436.803 375.462C436.522 376.445 436.663 377.428 435.118 377.007C434.697 379.535 433.713 377.007 432.59 377.147C432.59 377.568 432.449 378.13 432.73 378.552C433.433 379.535 434.275 380.518 434.978 381.501C435.539 382.344 436.101 383.186 436.803 384.31C435.82 384.029 435.258 384.029 434.837 383.748C434.416 383.467 434.135 383.046 433.713 382.625C433.573 382.906 433.152 383.186 432.871 383.608C431.185 382.484 429.5 381.361 427.674 380.237C428.938 379.535 430.483 378.692 428.376 377.288C429.219 377.007 429.921 376.726 430.624 376.445C430.483 375.743 430.202 375.04 430.062 374.198C429.64 374.9 429.36 375.321 428.938 375.883C428.798 375.602 428.657 375.321 428.517 374.9C426.831 375.883 425.989 378.271 423.601 377.99C423.601 377.568 423.601 377.007 423.461 376.304C424.163 377.288 424.444 377.709 425.287 376.445C426.27 375.04 427.815 373.917 429.079 372.793C428.657 372.372 427.955 371.67 426.972 370.967C426.551 371.108 425.848 371.529 424.865 371.95C425.708 370.546 426.551 369.282 427.253 368.018C427.534 367.456 427.674 366.754 427.674 366.052C427.674 365.771 427.393 365.49 427.253 365.068C426.972 365.349 426.691 365.63 426.41 365.771C425.708 365.63 424.725 365.63 424.303 365.068C423.742 364.507 423.601 363.524 423.039 362.821C423.039 363.102 423.039 363.383 422.899 363.804C422.337 363.524 421.916 363.383 421.635 363.243C421.916 362.4 422.056 361.838 422.337 360.995C423.601 360.855 425.146 360.855 427.112 360.715C425.848 360.012 425.146 359.31 424.163 359.17C423.32 359.029 422.337 359.591 421.494 360.012C421.354 359.872 421.213 359.731 421.073 359.731C421.494 359.029 421.775 358.186 422.197 357.203C421.635 357.203 421.213 357.063 420.792 357.063C420.652 355.939 420.371 354.956 420.23 353.833C419.107 357.063 419.107 357.203 419.669 357.625C419.247 357.625 418.545 357.765 418.545 357.765C418.264 356.922 417.983 355.939 418.124 355.237C418.264 354.394 419.107 353.692 419.809 352.568C419.528 352.709 419.669 352.568 419.669 352.568C420.23 352.568 420.792 352.568 421.354 352.428C421.073 352.007 420.792 351.726 420.511 351.304C419.949 350.743 419.388 350.743 418.966 351.585C418.826 352.007 418.545 352.428 418.124 352.709C417.843 352.99 417.421 353.13 416.86 353.552C417.843 351.866 417 349.619 415.596 349.619C415.596 348.917 415.736 348.215 415.736 347.372C416.719 347.372 417.983 347.231 419.247 347.231C418.405 346.529 417.562 345.686 417 345.125C417 345.265 417.14 345.686 417.281 346.248C416.298 346.389 415.174 345.125 414.893 347.372C414.753 347.231 414.612 346.95 414.472 346.81C414.472 345.967 414.472 345.265 414.472 344.282C414.051 344.141 413.348 343.72 412.365 343.299C412.927 342.737 413.489 342.175 414.191 341.613C413.629 341.192 413.208 340.911 412.646 340.49C412.365 341.192 412.225 341.754 411.944 342.597C411.663 342.035 411.522 341.754 411.382 341.473C410.68 341.613 409.978 342.035 409.275 342.035C408.854 342.035 408.433 341.192 407.73 340.63C407.169 341.052 406.326 342.456 405.202 341.192C404.64 340.63 404.36 339.928 403.798 339.366C403.938 339.226 404.079 339.226 404.079 339.085C404.5 339.507 405.062 339.788 405.483 340.209C406.466 337.962 404.219 338.804 403.657 337.821C404.219 337.259 404.781 336.557 405.624 335.715C405.343 335.574 404.781 335.434 404.219 335.153C404.079 334.17 404.079 332.906 402.674 332.484C401.831 333.327 404.219 335.293 401.691 335.434C401.831 335.995 401.831 336.557 401.972 337.119L401.831 337.259C400.567 336.838 399.584 337.259 398.461 338.804C399.444 338.383 400.006 338.102 400.848 337.821C400.567 338.524 400.427 339.085 400.146 339.647C399.022 339.085 398.18 339.366 397.899 340.771C396.916 339.366 398.461 336.557 400.146 336.276C400.287 335.434 400.287 334.591 400.427 333.748C399.022 334.31 398.039 333.748 397.337 332.484C397.056 332.063 395.933 331.922 395.23 332.063C394.247 332.203 393.545 332.484 393.685 331.08C393.685 330.518 393.124 329.956 392.843 329.394C392.843 329.394 393.124 329.113 393.264 328.833C391.157 327.99 392.14 326.164 391.438 324.619C390.034 323.776 389.893 325.321 389.331 326.164C389.051 326.585 388.77 327.007 388.629 327.288C388.348 327.007 387.927 326.726 387.787 326.445C387.365 326.585 386.803 326.866 386.242 327.007C386.242 326.585 386.242 326.164 386.242 325.743C386.242 325.602 386.101 325.321 385.961 325.181C385.399 324.9 384.978 324.619 385.539 323.917C385.539 323.917 385.118 323.355 384.978 322.653C385.399 322.934 385.961 323.074 386.101 323.355C386.803 324.759 387.646 324.9 388.91 324.057C389.331 323.776 390.034 323.636 390.596 323.495C390.174 320.827 389.893 318.158 389.472 315.49C389.753 315.49 389.893 315.349 390.174 315.349C390.315 316.192 390.596 317.175 390.736 318.018C391.017 317.597 391.438 317.175 391.719 316.754C390.315 316.052 391.438 314.647 391.017 313.664C391.438 313.524 391.719 313.383 392.14 313.102C392.14 313.524 392.14 313.945 392.281 314.226C392.983 315.068 392.421 316.613 393.966 316.894C394.528 317.035 394.949 317.737 395.371 318.158C396.354 316.613 396.494 316.613 398.601 317.877C397.758 317.175 397.056 316.473 396.213 315.771C395.933 315.49 395.511 315.49 395.23 315.209C395.09 314.928 395.09 314.507 394.949 314.226C395.371 314.226 395.792 314.226 396.073 314.366C397.337 314.928 398.601 315.63 400.146 316.052C398.32 314.507 398.601 312.962 399.725 310.855C400.567 311.979 401.27 312.821 401.691 313.664C401.972 313.524 402.534 313.243 403.096 313.102C404.219 312.54 405.483 312.119 406.747 311.557C407.169 312.54 408.011 313.383 409.556 312.681C410.258 312.4 410.82 313.804 410.399 314.507C409.837 315.771 408.994 316.894 410.961 317.877C411.522 318.158 411.522 319.422 411.803 320.265C412.506 319.703 413.489 319.001 413.91 320.827C415.736 320.546 417.562 320.406 419.247 320.125C419.388 320.546 419.669 321.108 419.809 321.529C420.511 323.074 421.635 324.479 420.792 326.304C422.618 327.288 423.32 327.007 423.601 325.181C424.444 325.743 425.287 326.304 426.129 326.866C426.27 326.445 426.27 326.164 426.41 325.883C426.551 325.602 426.831 325.321 427.112 325.181C427.253 325.462 427.534 325.743 427.674 326.024C427.815 326.445 427.955 326.866 428.376 327.568C427.393 328.552 429.781 330.799 427.253 331.641C427.815 332.906 428.517 333.186 429.64 332.344C429.781 332.203 430.343 332.063 430.483 332.203C430.764 332.344 430.905 332.765 430.905 333.046C430.764 334.31 431.185 334.872 432.449 335.153C432.73 335.153 432.871 335.574 433.011 335.855C433.433 337.4 433.854 339.085 434.275 340.49C434.978 340.911 435.539 341.333 436.242 341.754C436.101 341.894 435.961 342.035 435.961 342.175C435.539 341.894 435.118 341.754 434.837 341.473C433.994 342.175 433.152 342.877 432.449 343.58C432.59 343.72 432.73 343.861 432.871 344.001C433.152 343.72 433.573 343.439 433.994 343.018C434.416 344.563 434.697 346.389 436.944 346.108C437.084 346.81 435.399 348.495 438.067 347.653C437.365 349.198 436.944 350.462 438.77 351.164C438.91 351.304 438.91 352.007 438.91 352.568C440.455 352.147 440.315 353.411 440.455 354.254C440.596 355.237 439.612 356.501 438.91 356.782C439.191 357.484 439.472 358.046 439.753 358.748C438.629 357.484 438.348 359.029 437.506 359.31C439.331 360.574 440.034 360.574 441.017 359.029C441.438 358.889 441.86 358.889 442.281 358.748C442.14 356.361 442.421 356.08 444.388 355.377C444.669 355.237 445.23 355.518 445.23 355.658C445.371 356.361 445.511 357.203 445.511 357.906C445.511 358.327 445.09 358.748 445.09 359.45C445.511 359.029 446.073 358.608 446.494 358.046C446.635 358.186 446.775 358.186 446.916 358.327C446.775 359.45 446.635 360.715 446.354 362.119C447.197 361.979 448.18 361.838 449.022 361.698C448.18 362.4 447.899 363.945 446.494 362.821C446.073 363.243 445.652 363.664 445.23 364.085C444.669 364.226 444.107 364.226 443.405 364.366C443.405 364.226 443.264 363.945 442.983 363.804C442.702 363.524 442.281 363.383 441.86 363.243C441.86 363.243 441.438 363.664 441.579 363.804C441.86 364.085 442.14 364.226 442.421 364.507C442.843 364.928 443.124 365.49 443.405 366.052C443.264 366.192 443.264 366.333 443.124 366.473C444.247 366.473 445.511 366.473 446.775 366.473C447.337 367.737 446.494 369.001 445.652 369.422C443.545 370.546 441.719 369.703 440.596 367.597C440.455 368.72 440.455 369.984 440.315 371.248C442 370.125 443.264 370.827 444.107 372.372C444.247 372.512 444.247 372.653 444.388 372.793C444.669 373.074 444.949 373.355 445.23 373.636C444.809 373.636 444.247 373.776 443.264 373.776C443.124 374.479 442.983 375.462 442.843 376.304C442.702 376.726 442.562 377.288 442.281 377.568C442.14 377.709 441.579 377.288 441.157 377.147C440.596 377.428 440.174 377.568 439.893 377.568ZM429.64 336.136C429.5 336.276 429.219 336.417 429.079 336.417C429.36 337.119 429.5 337.821 429.64 338.383C428.938 340.349 426.27 340.911 426.551 343.861C427.112 343.439 427.955 343.158 427.955 343.018C427.534 341.473 429.36 341.473 429.781 340.49C430.062 339.928 431.326 339.366 431.185 339.085C430.905 338.102 430.202 337.119 429.64 336.136ZM435.539 353.271C436.522 352.849 435.68 352.147 435.539 351.445C435.399 350.883 435.961 350.181 436.242 349.479C436.242 349.338 436.101 349.338 436.101 349.198C435.68 349.619 435.258 349.9 434.837 350.321C434.135 347.372 433.433 346.81 431.466 347.793C431.466 348.215 431.607 348.776 431.607 349.338C432.028 349.057 432.309 348.776 432.59 348.495C433.152 349.338 433.573 350.04 433.994 350.883C434.416 351.726 434.978 352.428 435.539 353.271ZM420.652 354.254C420.792 354.956 421.073 355.658 421.354 356.501C422.618 355.518 423.742 354.816 425.146 353.833C424.022 353.411 423.18 353.13 422.478 352.849C421.775 353.271 421.213 353.692 420.652 354.254ZM415.034 323.917C416.017 323.636 417.14 323.495 416.438 324.759C415.174 327.288 415.455 327.99 418.405 328.692C417.562 328.13 416.86 327.709 416.017 327.007C416.86 325.883 417.702 324.9 418.545 323.776C415.876 323.355 415.455 323.355 415.034 323.917ZM408.433 317.877C407.449 315.63 406.045 315.771 404.219 316.333C404.64 316.894 405.062 317.456 405.483 317.877C405.764 317.175 406.185 316.754 407.028 317.597C407.309 318.018 408.011 317.877 408.433 317.877ZM429.64 364.647C427.815 364.928 427.955 363.804 428.236 362.681C427.674 362.681 427.112 362.681 426.691 362.681C427.674 365.068 428.798 366.333 429.781 365.911C429.64 365.49 429.64 365.209 429.64 364.647ZM422.056 347.512C422.197 348.215 422.337 349.198 422.478 350.602C423.32 350.181 424.022 349.759 424.865 349.338C423.742 348.495 422.899 347.934 422.056 347.512ZM424.022 356.22C425.427 355.939 426.27 355.799 427.253 355.658C425.287 354.394 425.287 354.394 424.022 356.22ZM396.775 327.709C397.056 328.973 397.337 329.675 397.478 330.658C398.039 330.377 398.461 330.237 398.882 329.956C398.18 329.254 397.618 328.692 396.775 327.709ZM400.146 320.125C400.427 320.125 400.567 320.265 400.848 320.265C401.129 319.282 401.551 318.299 401.831 317.316C401.551 317.316 401.41 317.175 401.129 317.175C400.848 318.018 400.567 319.141 400.146 320.125Z" fill="#F0F2F4"/>
</g>
<mask id="mask1" style="mask-type:alpha" maskUnits="userSpaceOnUse" x="2" y="126" width="29" height="26">
<path d="M2.95508 138.945C2.95508 131.782 8.9944 126.023 16.5787 126.023C24.1629 126.023 30.2023 131.782 30.2023 138.945C30.2023 146.108 24.1629 151.866 16.5787 151.866C9.13485 151.866 2.95508 145.967 2.95508 138.945Z" fill="white"/>
</mask>
<g mask="url(#mask1)">
<path d="M2.95508 138.945C2.95508 131.782 8.9944 126.023 16.5787 126.023C24.1629 126.023 30.2023 131.782 30.2023 138.945C30.2023 146.108 24.1629 151.866 16.5787 151.866C9.13485 151.866 2.95508 145.967 2.95508 138.945Z" fill="#34C759"/>
<path fill-rule="evenodd" clip-rule="evenodd" d="M20.6521 179.254C20.6521 178.692 20.5116 178.13 20.5116 177.287C21.2139 177.709 21.7757 177.849 22.6184 178.271C22.197 177.287 21.9161 176.866 21.6352 176.164C22.197 176.023 22.7588 175.883 23.7419 175.602C23.3206 175.04 22.8992 174.619 22.4779 174.198C21.9161 174.759 21.3543 175.04 20.933 175.602C20.6521 176.023 20.3712 176.585 20.0903 177.147C19.8094 176.164 19.5285 175.321 19.2476 174.619C18.6858 175.602 17.8431 176.304 17.5622 177.147C17.2813 178.13 17.4217 179.113 15.8768 178.692C15.4554 181.22 14.4723 178.692 13.3487 178.832C13.3487 179.254 13.2082 179.816 13.4891 180.237C14.1914 181.22 15.0341 182.203 15.7363 183.186C16.2981 184.029 16.8599 184.872 17.5622 185.995C16.579 185.714 16.0172 185.714 15.5959 185.434C15.1745 185.153 14.8936 184.731 14.4723 184.31C14.3318 184.591 13.9105 184.872 13.6296 185.293C11.9442 184.169 10.2588 183.046 8.43296 181.922C9.697 181.22 11.2419 180.377 9.1352 178.973C9.9779 178.692 10.6801 178.411 11.3824 178.13C11.2419 177.428 10.961 176.726 10.8206 175.883C10.3993 176.585 10.1184 177.007 9.697 177.568C9.55655 177.287 9.4161 177.007 9.27565 176.585C7.59026 177.568 6.74756 179.956 4.35992 179.675C4.35992 179.254 4.35992 178.692 4.21947 177.99C4.92172 178.973 5.20262 179.394 6.04532 178.13C7.02846 176.726 8.57341 175.602 9.83745 174.478C9.4161 174.057 8.71386 173.355 7.73071 172.653C7.30936 172.793 6.60712 173.214 5.62397 173.636C6.46667 172.231 7.30936 170.967 8.01161 169.703C8.29251 169.141 8.43296 168.439 8.43296 167.737C8.43296 167.456 8.15206 167.175 8.01161 166.754C7.73071 167.035 7.44981 167.316 7.16891 167.456C6.46667 167.316 5.48352 167.316 5.06217 166.754C4.50037 166.192 4.35992 165.209 3.79813 164.507C3.79813 164.787 3.79813 165.068 3.65768 165.49C3.09588 165.209 2.67453 165.068 2.39363 164.928C2.67453 164.085 2.81498 163.523 3.09588 162.681C4.35992 162.54 5.90487 162.54 7.87116 162.4C6.60711 161.698 5.90487 160.995 4.92172 160.855C4.07903 160.714 3.09588 161.276 2.25318 161.698C2.11273 161.557 1.97228 161.417 1.83183 161.417C2.25318 160.714 2.53408 159.872 2.95543 158.889C2.39363 158.889 1.97228 158.748 1.55093 158.748C1.41048 157.625 1.12959 156.641 0.98914 155.518C-0.134456 158.748 -0.134456 158.889 0.427341 159.31C0.00599313 159.31 -0.696255 159.45 -0.696255 159.45C-0.977154 158.608 -1.25805 157.625 -1.1176 156.922C-0.977154 156.08 -0.134456 155.377 0.567791 154.254C0.286892 154.394 0.427341 154.254 0.427341 154.254C0.989139 154.254 1.55093 154.254 2.11273 154.113C1.83183 153.692 1.55093 153.411 1.27003 152.99C0.708237 152.428 0.146442 152.428 -0.274906 153.271C-0.415356 153.692 -0.696255 154.113 -1.1176 154.394C-1.3985 154.675 -1.81985 154.816 -2.38165 155.237C-1.3985 153.552 -2.2412 151.304 -3.64569 151.304C-3.64569 150.602 -3.50525 149.9 -3.50525 149.057C-2.5221 149.057 -1.25805 148.917 0.00599289 148.917C-0.836704 148.214 -1.6794 147.372 -2.2412 146.81C-2.2412 146.95 -2.10075 147.372 -1.9603 147.934C-2.94345 148.074 -4.06704 146.81 -4.34794 149.057C-4.48839 148.917 -4.62884 148.636 -4.76929 148.495C-4.76929 147.653 -4.76929 146.95 -4.76929 145.967C-5.19064 145.827 -5.89288 145.405 -6.87603 144.984C-6.31423 144.422 -5.75244 143.861 -5.05019 143.299C-5.61199 142.877 -6.03333 142.596 -6.59513 142.175C-6.87603 142.877 -7.01648 143.439 -7.29738 144.282C-7.57828 143.72 -7.71873 143.439 -7.85918 143.158C-8.56142 143.299 -9.26367 143.72 -9.96592 143.72C-10.3873 143.72 -10.8086 142.877 -11.5109 142.316C-12.0727 142.737 -12.9154 144.141 -14.039 142.877C-14.6007 142.316 -14.8816 141.613 -15.4434 141.052C-15.303 140.911 -15.1625 140.911 -15.1625 140.771C-14.7412 141.192 -14.1794 141.473 -13.7581 141.894C-12.7749 139.647 -15.0221 140.49 -15.5839 139.507C-15.0221 138.945 -14.4603 138.243 -13.6176 137.4C-13.8985 137.259 -14.4603 137.119 -15.0221 136.838C-15.1625 135.855 -15.1625 134.591 -16.567 134.169C-17.4097 135.012 -15.0221 136.978 -17.5502 137.119C-17.4097 137.681 -17.4097 138.243 -17.2693 138.804L-17.4097 138.945C-18.6738 138.523 -19.6569 138.945 -20.7805 140.49C-19.7974 140.068 -19.2356 139.787 -18.3929 139.507C-18.6738 140.209 -18.8142 140.771 -19.0951 141.332C-20.2187 140.771 -21.0614 141.052 -21.3423 142.456C-22.3255 141.052 -20.7805 138.243 -19.0951 137.962C-18.9547 137.119 -18.9547 136.276 -18.8142 135.434C-20.2187 135.995 -21.2019 135.434 -21.9041 134.169C-22.185 133.748 -23.3086 133.608 -24.0109 133.748C-24.994 133.889 -25.6963 134.169 -25.5558 132.765C-25.5558 132.203 -26.1176 131.641 -26.3985 131.08C-26.3985 131.08 -26.1176 130.799 -25.9772 130.518C-28.0839 129.675 -27.1008 127.849 -27.803 126.304C-29.2075 125.462 -29.3479 127.007 -29.9097 127.849C-30.1906 128.271 -30.4715 128.692 -30.612 128.973C-30.8929 128.692 -31.3142 128.411 -31.4547 128.13C-31.876 128.271 -32.4378 128.552 -32.9996 128.692C-32.9996 128.271 -32.9996 127.849 -32.9996 127.428C-32.9996 127.287 -33.1401 127.007 -33.2805 126.866C-33.8423 126.585 -34.2637 126.304 -33.7019 125.602C-33.7019 125.602 -34.1232 125.04 -34.2637 124.338C-33.8423 124.619 -33.2805 124.759 -33.1401 125.04C-32.4378 126.445 -31.5951 126.585 -30.3311 125.743C-29.9097 125.462 -29.2075 125.321 -28.6457 125.181C-29.067 122.512 -29.3479 119.844 -29.7693 117.175C-29.4884 117.175 -29.3479 117.035 -29.067 117.035C-28.9266 117.877 -28.6457 118.861 -28.5052 119.703C-28.2243 119.282 -27.803 118.861 -27.5221 118.439C-28.9266 117.737 -27.803 116.332 -28.2243 115.349C-27.803 115.209 -27.5221 115.068 -27.1007 114.787C-27.1007 115.209 -27.1007 115.63 -26.9603 115.911C-26.2581 116.754 -26.8199 118.299 -25.2749 118.58C-24.7131 118.72 -24.2918 119.422 -23.8704 119.844C-22.8873 118.299 -22.7468 118.299 -20.6401 119.563C-21.4828 118.861 -22.185 118.158 -23.0277 117.456C-23.3086 117.175 -23.73 117.175 -24.0109 116.894C-24.1513 116.613 -24.1513 116.192 -24.2918 115.911C-23.8704 115.911 -23.4491 115.911 -23.1682 116.052C-21.9041 116.613 -20.6401 117.316 -19.0951 117.737C-20.921 116.192 -20.6401 114.647 -19.5165 112.54C-18.6738 113.664 -17.9715 114.507 -17.5502 115.349C-17.2693 115.209 -16.7075 114.928 -16.1457 114.787C-15.0221 114.226 -13.7581 113.804 -12.494 113.243C-12.0727 114.226 -11.23 115.068 -9.68502 114.366C-8.98277 114.085 -8.42097 115.49 -8.84232 116.192C-9.40412 117.456 -10.2468 118.58 -8.28053 119.563C-7.71873 119.844 -7.71873 121.108 -7.43783 121.95C-6.73558 121.389 -5.75244 120.686 -5.33109 122.512C-3.50524 122.231 -1.6794 122.091 0.00599289 121.81C0.146442 122.231 0.427342 122.793 0.567791 123.214C1.27004 124.759 2.39363 126.164 1.55093 127.99C3.37678 128.973 4.07903 128.692 4.35992 126.866C5.20262 127.428 6.04532 127.99 6.88802 128.552C7.02847 128.13 7.02847 127.849 7.16891 127.568C7.30936 127.287 7.59026 127.007 7.87116 126.866C8.01161 127.147 8.29251 127.428 8.43296 127.709C8.57341 128.13 8.71386 128.552 9.1352 129.254C8.15206 130.237 10.5397 132.484 8.01161 133.327C8.57341 134.591 9.27565 134.872 10.3993 134.029C10.5397 133.889 11.1015 133.748 11.2419 133.889C11.5228 134.029 11.6633 134.45 11.6633 134.731C11.5228 135.995 11.9442 136.557 13.2082 136.838C13.4891 136.838 13.6296 137.259 13.77 137.54C14.1914 139.085 14.6127 140.771 15.0341 142.175C15.7363 142.596 16.2981 143.018 17.0004 143.439C16.8599 143.58 16.7195 143.72 16.7195 143.861C16.2981 143.58 15.8768 143.439 15.5959 143.158C14.7532 143.861 13.9105 144.563 13.2082 145.265C13.3487 145.405 13.4891 145.546 13.6296 145.686C13.9105 145.405 14.3318 145.125 14.7532 144.703C15.1745 146.248 15.4554 148.074 17.7026 147.793C17.8431 148.495 16.1577 150.181 18.8262 149.338C18.124 150.883 17.7026 152.147 19.5285 152.849C19.6689 152.99 19.6689 153.692 19.6689 154.254C21.2139 153.832 21.0734 155.096 21.2139 155.939C21.3543 156.922 20.3712 158.186 19.6689 158.467C19.9498 159.169 20.2307 159.731 20.5116 160.434C19.388 159.169 19.1071 160.714 18.2644 160.995C20.0903 162.259 20.7925 162.259 21.7757 160.714C22.197 160.574 22.6184 160.574 23.0397 160.434C22.8993 158.046 23.1801 157.765 25.1464 157.063C25.4273 156.922 25.9891 157.203 25.9891 157.344C26.1296 158.046 26.27 158.889 26.27 159.591C26.27 160.012 25.8487 160.434 25.8487 161.136C26.27 160.714 26.8318 160.293 27.2532 159.731C27.3936 159.872 27.5341 159.872 27.6745 160.012C27.5341 161.136 27.3936 162.4 27.1127 163.804C27.9554 163.664 28.9386 163.523 29.7813 163.383C28.9386 164.085 28.6577 165.63 27.2532 164.507C26.8318 164.928 26.4105 165.349 25.9891 165.771C25.4273 165.911 24.8655 165.911 24.1633 166.052C24.1633 165.911 24.0228 165.63 23.7419 165.49C23.461 165.209 23.0397 165.068 22.6184 164.928C22.6184 164.928 22.197 165.349 22.3375 165.49C22.6184 165.771 22.8993 165.911 23.1801 166.192C23.6015 166.613 23.8824 167.175 24.1633 167.737C24.0228 167.877 24.0228 168.018 23.8824 168.158C25.006 168.158 26.27 168.158 27.5341 168.158C28.0959 169.422 27.2532 170.686 26.4105 171.108C24.3037 172.231 22.4779 171.389 21.3543 169.282C21.2139 170.405 21.2139 171.669 21.0734 172.934C22.7588 171.81 24.0228 172.512 24.8655 174.057C25.006 174.198 25.006 174.338 25.1464 174.478C25.4273 174.759 25.7082 175.04 25.9891 175.321C25.5678 175.321 25.006 175.462 24.0228 175.462C23.8824 176.164 23.7419 177.147 23.6015 177.99C23.461 178.411 23.3206 178.973 23.0397 179.254C22.8993 179.394 22.3375 178.973 21.9161 178.832C21.4948 179.113 21.0734 179.254 20.6521 179.254ZM10.5397 137.962C10.3993 138.102 10.1184 138.243 9.9779 138.243C10.2588 138.945 10.3993 139.647 10.5397 140.209C9.83745 142.175 7.16891 142.737 7.44981 145.686C8.01161 145.265 8.85431 144.984 8.85431 144.844C8.43296 143.299 10.2588 143.299 10.6801 142.316C10.961 141.754 12.2251 141.192 12.0846 140.911C11.6633 139.787 11.1015 138.804 10.5397 137.962ZM16.2981 155.096C17.2813 154.675 16.4386 153.973 16.2981 153.271C16.1577 152.709 16.7195 152.007 17.0004 151.304C17.0004 151.164 16.8599 151.164 16.8599 151.023C16.4386 151.445 16.0172 151.726 15.5959 152.147C14.8936 149.198 14.1914 148.636 12.2251 149.619C12.2251 150.04 12.3655 150.602 12.3655 151.164C12.7869 150.883 13.0678 150.602 13.3487 150.321C13.9105 151.164 14.3318 151.866 14.7532 152.709C15.315 153.411 15.7363 154.113 16.2981 155.096ZM1.55093 155.939C1.69138 156.641 1.97228 157.344 2.25318 158.186C3.51723 157.203 4.64082 156.501 6.04532 155.518C4.92172 155.096 4.07902 154.816 3.37678 154.535C2.67453 154.956 2.11273 155.518 1.55093 155.939ZM-4.20749 125.602C-3.22434 125.321 -2.10075 125.181 -2.803 126.445C-4.06704 128.973 -3.78614 129.675 -0.836704 130.377C-1.6794 129.816 -2.38165 129.394 -3.22435 128.692C-2.38165 127.568 -1.53895 126.585 -0.696255 125.462C-3.22434 125.181 -3.78614 125.04 -4.20749 125.602ZM-10.6682 119.703C-11.6513 117.456 -13.0558 117.596 -14.8816 118.158C-14.4603 118.72 -14.039 119.282 -13.6176 119.703C-13.3367 119.001 -12.9154 118.58 -12.0727 119.422C-11.7918 119.703 -11.23 119.563 -10.6682 119.703ZM10.3993 166.332C8.57341 166.613 8.71386 165.49 8.99475 164.366C8.43296 164.366 7.87116 164.366 7.44981 164.366C8.43296 166.754 9.55655 168.018 10.5397 167.596C10.5397 167.175 10.3993 166.894 10.3993 166.332ZM2.95543 149.198C3.09588 149.9 3.23633 150.883 3.37678 152.287C4.21947 151.866 4.92172 151.445 5.76442 151.023C4.50037 150.181 3.79813 149.759 2.95543 149.198ZM4.92172 157.905C6.32622 157.625 7.16891 157.484 8.15206 157.344C6.18577 156.08 6.18577 156.08 4.92172 157.905ZM-22.3255 129.394C-22.0446 130.658 -21.7637 131.361 -21.6232 132.344C-21.0614 132.063 -20.6401 131.922 -20.2187 131.641C-20.921 130.939 -21.4828 130.377 -22.3255 129.394ZM-18.9547 121.81C-18.6738 121.81 -18.5333 121.95 -18.2524 121.95C-17.9715 120.967 -17.5502 119.984 -17.2693 119.001C-17.5502 119.001 -17.6906 118.861 -17.9715 118.861C-18.3929 119.844 -18.6738 120.827 -18.9547 121.81Z" fill="#F0F2F4"/>
</g>
<path fill-rule="evenodd" clip-rule="evenodd" d="M358.151 50.1807C358.011 50.1807 358.011 50.1807 357.871 50.1807C352.112 48.6358 349.163 43.2987 347.337 39.2256C347.196 38.8043 347.337 38.2425 347.758 37.9616C348.18 37.8212 348.741 37.9616 349.022 38.383C351.55 44.1414 354.5 47.2313 358.292 48.2144C358.854 48.3549 359.135 48.9167 358.994 49.338C358.854 49.8998 358.573 50.1807 358.151 50.1807Z" fill="#1D1D1F"/>
<path d="M200.567 198.074C198.18 195.967 195.792 193.86 193.545 191.754C194.107 190.349 194.809 188.523 195.652 186.136C197.337 190.209 198.882 194.001 200.567 198.074Z" fill="#1D1D1F"/>
<path fill-rule="evenodd" clip-rule="evenodd" d="M408.994 195.546C407.871 197.372 406.888 199.057 405.624 201.023C404.641 200.181 403.517 199.057 402.253 197.793C403.096 197.372 403.657 197.091 403.798 196.95C403.377 196.108 402.955 195.405 402.534 194.703C404.781 194.282 407.028 192.737 408.994 195.546Z" fill="#1D1D1F"/>
<path d="M380.343 194.001C382.45 194.001 383.994 194.001 385.68 194.001C386.523 191.894 387.646 190.771 389.191 193.299C387.927 194.703 386.944 195.967 385.82 197.231C384.135 199.198 382.59 198.495 380.343 194.001Z" fill="#1D1D1F"/>
<path fill-rule="evenodd" clip-rule="evenodd" d="M414.612 196.108C411.382 194.844 408.573 190.209 409.977 187.54C410.68 188.945 411.101 190.349 411.944 190.911C412.786 191.473 414.191 191.332 415.455 191.473C415.174 193.018 414.893 194.563 414.612 196.108Z" fill="#1D1D1F"/>
<path d="M184.557 151.304C185.399 148.917 188.911 148.776 192.984 151.726C190.596 152.709 188.911 153.552 186.944 154.535C186.944 152.849 186.944 152.007 186.944 151.164C186.242 151.164 185.54 151.164 184.557 151.304Z" fill="#1D1D1F"/>
<path d="M375.006 186.697C376.972 186.136 378.798 185.433 380.904 184.872C378.938 187.821 377.253 190.349 375.567 192.877C375.286 192.877 375.006 192.737 374.725 192.737C374.865 190.77 374.865 188.664 375.006 186.697Z" fill="#1D1D1F"/>
<path d="M349.023 200.602C348.742 201.585 348.602 202.007 348.321 203.271C346.214 197.372 352.956 201.023 352.534 197.653C352.956 197.793 353.237 197.793 353.658 197.933C353.518 198.917 353.798 200.321 353.377 201.023C352.113 202.428 350.568 202.709 349.023 200.602Z" fill="#1D1D1F"/>
<path d="M177.394 151.726C175.99 154.113 173.742 153.973 171.495 151.023C172.197 150.04 172.9 149.197 173.461 148.355C174.725 149.478 176.13 150.602 177.394 151.726Z" fill="#1D1D1F"/>
<path d="M197.759 174.057C197.759 171.95 197.759 170.546 197.759 168.158C199.163 169.563 200.427 170.546 201.41 171.81C201.691 172.231 201.13 173.776 200.568 173.917C199.725 174.338 198.461 174.057 197.759 174.057Z" fill="#1D1D1F"/>
<path d="M201.41 181.782C200.146 181.501 199.022 181.22 197.618 180.939C197.197 181.501 196.775 182.203 195.933 183.186C195.09 182.203 194.247 181.501 193.545 180.658C196.354 180.658 199.303 176.866 201.41 181.782Z" fill="#1D1D1F"/>
<path d="M350.147 197.512C348.883 197.793 347.478 198.355 346.214 198.074C345.371 197.934 344.669 196.67 343.967 195.827C344.248 195.546 344.388 195.265 344.669 194.984C346.635 195.546 348.742 196.108 350.708 196.81C350.568 197.091 350.427 197.231 350.147 197.512Z" fill="#1D1D1F"/>
<path fill-rule="evenodd" clip-rule="evenodd" d="M399.163 201.866C400.427 202.709 401.691 203.551 403.517 204.815C402.393 205.518 401.41 206.079 400.427 206.641C400.006 204.956 399.584 203.411 399.163 201.866Z" fill="#1D1D1F"/>
<path d="M196.916 159.872C195.652 160.434 194.248 160.995 192.281 161.979C193.405 159.591 194.107 158.046 194.809 156.501C195.512 157.765 196.214 158.889 196.916 159.872Z" fill="#1D1D1F"/>
<path d="M253.377 143.158C254.781 143.299 256.186 143.439 257.59 143.72C257.871 143.72 258.152 144.703 257.871 145.124C257.731 145.405 257.028 145.827 256.607 145.686C255.484 145.405 254.36 144.984 253.236 144.563C253.236 144.001 253.377 143.58 253.377 143.158Z" fill="#1D1D1F"/>
<path d="M379.641 192.737C377.674 194.563 375.568 195.967 371.916 194.844C375.006 194.001 377.394 193.299 379.641 192.737Z" fill="#1D1D1F"/>
<path fill-rule="evenodd" clip-rule="evenodd" d="M183.995 250.461C183.573 249.9 183.012 249.338 182.731 248.917C182.59 248.636 182.59 248.355 182.169 246.81C184.697 247.512 186.523 248.074 188.63 248.636C186.944 249.338 185.68 249.9 183.995 250.461Z" fill="#1D1D1F"/>
<path d="M258.5 138.5C261.5 136.167 267.5 130 269 128.5C270.581 126.919 274 124 277 123.5C280 123 284 123 291 124C298 125 299.5 126 303 126" stroke="#1D1D1F" stroke-width="1.5"/>
</g>
<defs>
<clipPath id="clip0">
<rect width="533" height="430" fill="white"/>
</clipPath>
</defs>
</svg>
