<svg width="727" height="430" viewBox="0 0 727 430" fill="none" xmlns="http://www.w3.org/2000/svg">
<g clip-path="url(#clip0)">
<path fill-rule="evenodd" clip-rule="evenodd" d="M414.931 226.081C412.721 201.216 381.915 200.663 381.915 200.663C381.915 200.663 388.408 188.645 382.053 176.903C369.206 152.728 342.268 161.016 334.532 162.674C318.508 165.989 322.514 178.975 315.883 190.164C312.429 195.966 286.597 205.636 283.834 224.562C281.071 243.487 289.36 259.235 304.555 265.728C311.601 268.767 339.782 255.229 346.965 258.13C355.53 261.722 387.993 253.986 393.795 255.92C393.795 255.92 417.141 250.947 414.931 226.081Z" fill="#F0F2F4"/>
<path fill-rule="evenodd" clip-rule="evenodd" d="M505.691 317.531L601.423 220.141C601.423 220.141 620.763 240.033 624.216 238.376C629.88 235.751 622.144 228.015 622.144 228.015C622.144 228.015 640.932 232.436 649.635 232.712C658.476 232.988 654.746 222.904 654.746 222.904C654.746 222.904 665.245 221.799 667.869 217.931C670.494 214.063 662.482 211.991 662.205 210.333C661.929 208.813 685.828 202.044 678.092 196.242C674.224 193.203 645.214 196.38 645.214 196.38C645.214 196.38 619.381 189.059 620.487 186.987C620.487 186.987 646.595 168.2 640.932 165.713C637.754 164.332 621.592 170.824 606.949 174.14C594.654 177.041 584.155 179.527 578.768 183.81C542.298 213.648 479.444 259.788 479.444 259.788L378.186 254.262L394.763 317.669C394.763 317.669 418.799 323.747 446.428 323.609C474.471 323.747 505.691 317.531 505.691 317.531Z" fill="#F0F2F4"/>
<path fill-rule="evenodd" clip-rule="evenodd" d="M446.428 324.714C419.075 324.714 395.039 318.774 394.762 318.636C394.486 318.498 394.21 318.222 394.072 317.945L377.495 254.676C377.357 254.4 377.495 254.124 377.633 253.848C377.771 253.571 378.185 253.433 378.462 253.433L479.305 258.821C483.864 255.367 543.541 211.438 578.353 182.981C583.603 178.698 593.549 176.074 606.949 173.035C612.889 171.653 618.967 169.857 624.355 168.2C634.163 165.299 639.412 163.779 641.484 164.608C642.313 165.022 642.727 165.575 642.866 166.404C643.418 171.101 626.979 183.395 622.006 186.987C624.493 188.645 635.406 192.236 645.49 195.137C649.22 194.723 674.914 192.236 678.921 195.275C680.302 196.381 680.993 197.624 680.855 198.867C680.44 202.459 674.638 205.36 667.455 208.537C666.073 209.228 664.416 209.918 663.587 210.333C664.001 210.609 664.554 210.885 664.968 211.162C666.764 212.267 668.974 213.648 669.389 215.582C669.527 216.549 669.389 217.378 668.698 218.345C666.35 221.799 658.89 223.18 655.989 223.594C656.403 225.39 656.956 228.982 655.298 231.33C654.193 232.85 652.259 233.679 649.634 233.541C642.866 233.264 630.433 230.64 624.769 229.396C626.15 231.192 627.67 233.817 627.255 236.027C627.117 236.994 626.565 238.238 624.769 239.066C621.177 240.724 607.777 227.739 601.561 221.384L506.519 318.084C506.381 318.222 506.243 318.36 505.967 318.36C505.691 318.36 474.194 324.438 446.842 324.576C446.704 324.714 446.566 324.714 446.428 324.714ZM395.868 316.978C399.597 317.807 421.7 322.78 446.566 322.78C446.704 322.78 446.704 322.78 446.842 322.78C472.675 322.78 502.099 317.255 505.414 316.702L601.008 219.45C601.147 219.312 601.423 219.174 601.699 219.174C601.837 219.174 602.252 219.312 602.39 219.45C611.369 228.706 622.282 238.099 624.216 237.547C625.045 237.132 625.598 236.58 625.598 235.889C626.012 233.541 622.835 229.811 621.73 228.706C621.454 228.429 621.315 227.877 621.592 227.601C621.868 227.186 622.282 227.048 622.697 227.186C622.835 227.186 641.484 231.607 650.049 231.883C651.983 231.883 653.364 231.469 654.055 230.363C655.436 228.429 654.608 224.561 654.193 223.318C654.055 223.042 654.193 222.766 654.331 222.489C654.469 222.213 654.746 222.075 655.022 222.075C657.785 221.799 665.521 220.417 667.455 217.516C667.869 216.964 667.869 216.549 667.731 216.273C667.455 215.168 665.659 213.925 664.278 213.096C662.896 212.267 661.791 211.576 661.653 210.609C661.515 209.366 662.758 208.813 666.902 207.017C671.047 205.222 678.782 201.768 679.059 199.005C679.059 198.729 679.197 198.038 677.954 197.209C675.329 195.275 656.818 196.381 645.767 197.486C645.628 197.486 645.49 197.486 645.352 197.486C638.169 195.414 621.177 190.44 620.072 187.816C619.934 187.401 619.934 186.987 620.072 186.711C620.21 186.572 620.21 186.434 620.348 186.434C630.847 178.975 641.484 169.581 641.208 167.094C641.208 167.094 641.208 166.956 640.932 166.818C639.412 166.127 632.09 168.338 625.183 170.41C619.796 172.068 613.579 173.863 607.639 175.245C594.516 178.284 584.846 180.77 579.873 184.777C543.68 214.201 481.101 260.34 480.549 260.893C480.411 261.031 480.134 261.031 479.858 261.031L379.981 255.643L395.868 316.978Z" fill="#1D1D1F"/>
<path fill-rule="evenodd" clip-rule="evenodd" d="M307.733 245.145L202.607 286.311L96.514 196.381L31.4491 142.92C31.4491 142.92 21.6411 147.34 29.5152 156.458C42.0861 171.101 56.1766 184.777 56.1766 184.777C56.1766 184.777 37.9418 212.129 42.0861 216.549C51.6179 226.772 81.3184 243.901 81.3184 243.901L174.841 344.607L336.605 292.251L307.733 245.145Z" fill="#F0F2F4"/>
<path fill-rule="evenodd" clip-rule="evenodd" d="M174.84 345.436C174.564 345.436 174.288 345.298 174.15 345.159L80.6276 244.592C78.2792 243.211 50.6508 227.186 41.3953 217.24C37.1129 212.681 51.0653 190.855 54.9332 184.915C52.1704 182.152 39.8758 169.995 28.8244 157.148C26.0616 153.971 25.0946 150.932 25.6471 148.169C26.6141 144.025 30.8965 142.091 31.0347 142.091C31.3109 141.953 31.7254 141.953 32.0017 142.229L97.0665 195.69L202.745 285.206L307.457 245.316C307.871 245.178 308.424 245.316 308.7 245.73L337.572 291.699C337.71 291.975 337.71 292.251 337.71 292.527C337.71 292.804 337.434 293.08 337.157 293.08L175.393 345.574C174.979 345.436 174.84 345.436 174.84 345.436ZM31.3109 144.025C30.344 144.577 28.1337 146.097 27.5811 148.583C27.1667 150.794 27.9955 153.142 30.344 155.905C42.7767 170.41 56.8672 183.948 57.0054 184.086C57.2816 184.362 57.4198 184.915 57.1435 185.329C48.3024 198.453 40.5665 213.51 42.9149 215.997C52.3085 225.943 81.5946 242.934 81.8709 243.073C82.0091 243.073 82.0091 243.211 82.1472 243.211L175.255 343.364L335.085 291.56L307.319 247.25L202.883 287.002C202.607 287.14 202.193 287.002 201.916 286.864L95.8233 196.933L31.3109 144.025Z" fill="#1D1D1F"/>
<path fill-rule="evenodd" clip-rule="evenodd" d="M416.728 258.406C416.728 258.406 382.33 428.045 398.355 407.323C414.379 386.74 444.771 469.625 444.771 469.625L301.103 457.192L304.556 391.022L286.184 296.119L303.451 247.493L340.473 247.907L416.728 258.406Z" fill="#F0F2F4"/>
<path fill-rule="evenodd" clip-rule="evenodd" d="M444.77 470.592L300.964 458.159C300.412 458.159 299.997 457.607 300.136 457.192L303.451 391.161L285.078 296.395C285.078 296.257 285.078 296.119 285.078 295.843L302.346 247.217C302.484 246.802 302.76 246.526 303.313 246.526L340.335 246.94L416.866 257.301C417.142 257.301 417.418 257.439 417.556 257.715C417.694 257.992 417.833 258.268 417.694 258.406C417.556 258.821 410.235 295.428 403.88 332.036C392.138 400.278 394.901 407.323 396.006 407.876C396.006 407.876 396.421 407.876 397.526 406.494C399.736 403.593 402.361 402.488 405.262 402.903C422.115 405.527 444.632 466.448 445.599 468.935C445.737 469.211 445.599 469.625 445.461 469.901C445.323 470.454 445.047 470.592 444.77 470.592ZM302.07 456.364L443.251 468.52C441.593 464.238 436.62 451.252 430.265 438.267C420.181 417.546 411.478 406.08 404.985 405.113C402.775 404.698 400.841 405.665 399.045 408.014C398.493 408.705 396.973 410.777 395.177 409.948C393.381 409.119 389.099 407.185 401.946 332.036C407.61 298.744 414.379 265.313 415.622 259.235L340.197 249.012L304.004 248.598L287.012 296.257L305.385 390.884C305.385 391.022 305.385 391.022 305.385 391.161L302.07 456.364Z" fill="#1D1D1F"/>
<path fill-rule="evenodd" clip-rule="evenodd" d="M358.431 324.162L283.005 400.693L277.756 643.685L312.706 844.681C316.021 843.991 384.401 844.543 400.702 841.366C399.321 805.725 387.026 647.691 387.026 647.691L384.816 515.074C384.816 515.074 466.182 627.936 485.245 634.015C504.723 640.231 653.64 648.381 653.64 648.381L675.19 563.839L624.354 547.676L522.82 515.351C522.82 515.351 441.178 402.35 429.574 384.945C417.97 367.539 358.431 324.162 358.431 324.162Z" fill="#1D1D1F"/>
<path fill-rule="evenodd" clip-rule="evenodd" d="M312.706 845.648C312.568 845.648 312.292 845.648 312.153 845.51C311.877 845.372 311.739 845.095 311.739 844.957L276.789 643.822V643.684L282.038 400.693C282.038 400.416 282.177 400.278 282.315 400.002L357.74 323.609C358.017 323.333 358.569 323.195 358.984 323.471C361.47 325.267 418.937 367.124 430.541 384.53C441.731 401.383 519.366 508.72 523.649 514.66L675.605 563.009C676.02 563.148 676.296 563.7 676.158 564.115L654.608 648.657C654.469 649.072 654.055 649.348 653.641 649.348C647.562 649.072 504.309 641.06 484.969 634.981C467.425 629.456 399.321 536.624 385.783 517.975L387.993 647.69C388.132 649.21 400.288 806.001 401.669 841.366C401.669 841.78 401.393 842.194 400.979 842.333C389.927 844.405 355.53 844.819 332.598 845.095C322.652 845.234 313.949 845.372 312.982 845.51C312.706 845.648 312.706 845.648 312.706 845.648ZM278.585 643.546L313.397 843.576C315.745 843.438 321.962 843.3 332.322 843.161C354.563 842.885 387.855 842.471 399.597 840.537C398.078 803.791 386.198 649.348 386.059 647.69L383.849 515.074C383.849 514.66 384.125 514.245 384.54 514.245C385.231 513.969 385.507 514.522 385.783 514.798C394.072 526.264 467.839 627.522 485.66 633.186C504.033 639.126 641.622 646.862 653.088 647.414L674.224 564.391L522.682 516.179C522.544 516.179 522.267 516.041 522.267 515.903C521.439 514.798 440.487 402.765 429.022 385.497C418.246 369.334 365.062 330.102 358.569 325.405L283.972 400.969L278.585 643.546Z" fill="#1D1D1F"/>
<path fill-rule="evenodd" clip-rule="evenodd" d="M654.193 211.3C644.247 211.3 636.373 210.195 626.15 206.879C625.736 206.741 625.459 206.189 625.597 205.774C625.736 205.36 626.288 205.084 626.703 205.222C639.55 209.504 648.667 209.919 663.172 209.366C663.725 209.228 664.139 209.78 664.139 210.195C664.139 210.747 663.725 211.162 663.31 211.162C659.995 211.162 656.956 211.3 654.193 211.3Z" fill="#1D1D1F"/>
<path fill-rule="evenodd" clip-rule="evenodd" d="M651.016 224.147C640.793 224.147 628.222 219.865 620.348 217.24C619.934 217.102 619.658 216.549 619.796 216.135C619.934 215.582 620.486 215.444 620.901 215.582C629.604 218.483 644.109 223.318 654.193 222.213C654.746 222.213 655.16 222.489 655.16 223.042C655.16 223.595 654.884 224.009 654.331 224.009C653.364 224.147 652.121 224.147 651.016 224.147Z" fill="#1D1D1F"/>
<path fill-rule="evenodd" clip-rule="evenodd" d="M622.973 228.982C622.835 228.982 622.835 228.982 622.697 228.982C618.967 228.015 613.718 225.667 610.817 223.042C610.402 222.766 610.402 222.075 610.817 221.799C611.093 221.384 611.784 221.384 612.06 221.799C614.823 224.285 619.796 226.495 623.249 227.324C623.802 227.462 624.078 228.015 623.94 228.429C623.802 228.706 623.388 228.982 622.973 228.982Z" fill="#1D1D1F"/>
<path fill-rule="evenodd" clip-rule="evenodd" d="M337.433 249.427C350.557 256.61 370.173 251.637 370.173 251.637C370.173 251.637 352.767 193.065 339.92 190.026C335.499 188.921 326.935 223.733 326.935 223.733C326.935 223.733 338.677 245.283 337.433 249.427Z" fill="#F0F2F4"/>
<path fill-rule="evenodd" clip-rule="evenodd" d="M355.391 254.262C349.451 254.262 342.682 253.295 336.88 250.256C336.466 249.98 336.328 249.565 336.466 249.151C337.295 246.388 330.388 232.436 325.967 224.285C325.829 224.009 325.829 223.871 325.829 223.595C329.145 210.195 335.361 188.092 340.058 189.197C345.722 190.579 352.629 201.492 360.641 221.661C366.581 236.58 371.002 251.223 371.002 251.361C371.14 251.637 371.002 251.914 370.863 252.052C370.725 252.328 370.449 252.466 370.311 252.466C369.896 252.604 363.266 254.262 355.391 254.262ZM338.4 248.874C349.313 254.4 364.785 251.775 368.791 250.947C363.68 234.093 349.451 193.341 339.505 191.131C337.295 191.407 331.631 208.123 327.763 223.871C330.112 227.739 338.538 243.625 338.4 248.874Z" fill="#1D1D1F"/>
<path fill-rule="evenodd" clip-rule="evenodd" d="M346.965 187.677C350.972 191.131 361.885 195.828 360.641 199.143C359.26 202.32 353.182 216.549 347.518 223.456C342.545 229.396 334.947 233.264 321.824 231.468C317.956 230.64 305.247 218.483 312.43 205.36C315.607 199.281 320.857 190.717 328.593 181.599C332.184 177.455 342.959 184.5 346.965 187.677Z" fill="#F0F2F4"/>
<path fill-rule="evenodd" clip-rule="evenodd" d="M327.763 232.85C325.829 232.85 323.757 232.712 321.685 232.436C319.061 231.883 313.811 227.463 311.186 221.522C309.391 217.654 308.009 211.576 311.601 204.945C314.64 199.143 319.889 190.302 327.902 181.047C332.875 175.383 347.38 186.987 347.518 187.125C348.761 188.23 350.833 189.474 353.043 190.855C357.878 193.894 362.575 196.657 361.47 199.558C356.635 210.886 351.938 219.588 348.208 224.147C343.374 229.949 336.605 232.85 327.763 232.85ZM331.77 181.323C330.803 181.323 329.974 181.599 329.421 182.152C321.547 191.407 316.298 200.11 313.259 205.774C310.081 211.714 311.325 217.102 312.844 220.694C315.469 226.357 320.166 230.087 321.961 230.502C333.013 231.883 341.163 229.397 346.689 222.766C350.281 218.345 354.977 209.78 359.674 198.729C360.227 197.348 355.116 194.17 352.076 192.374C349.866 190.993 347.794 189.75 346.274 188.507C342.13 185.053 335.638 181.323 331.77 181.323Z" fill="#1D1D1F"/>
<path fill-rule="evenodd" clip-rule="evenodd" d="M322.514 207.57C322.1 207.57 321.685 207.294 321.547 206.741L321.133 203.149C321.133 202.735 321.271 202.321 321.685 202.182L325.968 200.525L331.079 194.446C331.355 194.032 332.046 194.032 332.322 194.308C332.737 194.585 332.737 195.275 332.46 195.552L327.211 201.906C327.073 202.044 326.935 202.182 326.797 202.182L322.929 203.702L323.343 206.603C323.619 207.017 323.205 207.432 322.514 207.57C322.652 207.57 322.652 207.57 322.514 207.57Z" fill="#1D1D1F"/>
<path fill-rule="evenodd" clip-rule="evenodd" d="M323.204 215.168C322.652 215.168 322.237 215.168 321.685 215.03C321.132 214.892 320.856 214.477 320.994 213.925C321.132 213.372 321.547 213.096 322.099 213.234C323.757 213.648 325.829 213.096 327.211 211.852C327.625 211.576 328.178 211.576 328.454 211.991C328.73 212.405 328.73 212.958 328.316 213.234C326.934 214.477 325 215.168 323.204 215.168Z" fill="#1D1D1F"/>
<path fill-rule="evenodd" clip-rule="evenodd" d="M347.518 207.294C347.518 207.294 343.512 208.675 340.335 206.741C339.782 206.465 339.23 206.05 338.677 205.636C337.434 204.669 336.605 203.426 336.052 202.597C335.362 201.492 335.224 200.663 335.224 200.663C335.224 200.663 335.638 200.525 336.329 200.525C337.71 200.387 340.197 200.525 342.545 202.044C342.96 202.321 343.236 202.459 343.65 202.735C346.275 204.669 347.518 207.294 347.518 207.294Z" fill="#D8D8D8"/>
<path fill-rule="evenodd" clip-rule="evenodd" d="M344.34 208.675C342.959 208.675 341.301 208.399 339.92 207.432C339.367 207.156 338.815 206.741 338.262 206.327C337.157 205.36 336.19 204.255 335.361 203.011V202.873C334.67 201.768 334.532 200.939 334.532 200.801C334.532 200.525 334.532 200.249 334.67 200.11C334.809 199.834 335.085 199.696 335.223 199.696C335.223 199.696 335.637 199.558 336.328 199.558C337.709 199.42 340.472 199.558 343.097 201.216C343.511 201.492 343.926 201.768 344.202 202.044C346.965 204.117 348.208 206.879 348.346 207.017C348.485 207.294 348.485 207.57 348.346 207.708C348.208 207.846 348.07 208.123 347.794 208.261C347.656 208.123 346.274 208.675 344.34 208.675ZM337.019 202.183C337.571 203.288 338.4 204.117 339.367 204.945C339.782 205.36 340.334 205.636 340.887 205.912C342.683 207.017 344.893 206.879 346.136 206.741C345.584 205.912 344.617 204.531 343.097 203.564C342.821 203.288 342.406 203.15 342.13 202.873C340.058 201.63 337.848 201.492 336.604 201.492C336.604 201.63 336.742 201.906 337.019 202.183C337.019 202.183 336.881 202.183 337.019 202.183Z" fill="#1D1D1F"/>
<path fill-rule="evenodd" clip-rule="evenodd" d="M321.547 191.822L318.508 196.104C318.508 196.104 318.508 196.104 318.646 196.104C322.376 197.624 325.967 195.69 325.967 195.69C325.967 195.69 324.31 193.479 321.547 191.822Z" fill="#D8D8D8"/>
<path fill-rule="evenodd" clip-rule="evenodd" d="M321.548 197.624C320.443 197.624 319.337 197.486 318.232 196.933C317.956 196.795 317.68 196.519 317.68 196.381C317.68 196.243 317.68 195.828 317.818 195.552L320.857 191.269C321.133 190.855 321.686 190.717 322.1 190.993C325.001 192.651 326.659 194.999 326.659 195.137C326.797 195.414 326.797 195.552 326.797 195.828C326.797 196.104 326.521 196.243 326.383 196.381C326.106 196.519 324.172 197.624 321.548 197.624ZM319.89 195.552C321.686 195.966 323.344 195.552 324.311 195.276C323.758 194.723 322.929 193.756 321.686 193.065L319.89 195.552Z" fill="#1D1D1F"/>
<path fill-rule="evenodd" clip-rule="evenodd" d="M321.547 191.684L318.508 196.104C318.646 196.242 318.922 196.242 319.06 196.38C319.337 196.519 319.613 196.519 319.751 196.519C322.514 196.933 324.033 193.065 321.547 191.684Z" fill="#1D1D1F"/>
<path fill-rule="evenodd" clip-rule="evenodd" d="M341.716 195.966C340.887 195.552 340.335 195.275 340.611 194.308C341.025 193.203 342.269 192.927 343.236 192.927C345.998 192.789 348.899 193.618 351.248 195.275C351.8 195.552 352.491 196.242 352.353 196.933C352.353 197.486 351.8 197.9 351.248 198.038C350.695 198.176 350.143 198.176 349.59 198.038C347.104 197.624 344.341 196.933 341.716 195.966Z" fill="#1D1D1F"/>
<path fill-rule="evenodd" clip-rule="evenodd" d="M322.652 186.296C322.238 186.02 321.685 185.467 322.1 184.777C322.652 183.948 323.481 183.81 324.31 183.948C326.382 184.224 328.316 185.191 329.836 186.849C330.112 187.263 330.527 187.816 330.388 188.506C330.25 188.921 329.836 189.197 329.421 189.197C329.007 189.197 328.593 189.197 328.178 189.059C326.106 188.368 324.31 187.401 322.652 186.296Z" fill="#1D1D1F"/>
<path fill-rule="evenodd" clip-rule="evenodd" d="M350.972 214.891C352.077 216.135 353.32 217.102 354.702 217.792C356.083 218.483 357.741 218.759 359.26 218.345C361.47 217.516 362.99 215.03 362.714 212.681C362.437 210.333 360.365 208.399 358.017 207.984C355.669 207.57 353.044 208.675 351.662 210.609" fill="#F0F2F4"/>
<path fill-rule="evenodd" clip-rule="evenodd" d="M357.741 219.588C356.497 219.588 355.392 219.312 354.287 218.759C352.906 218.069 351.663 216.964 350.281 215.582C349.867 215.168 350.005 214.615 350.281 214.201C350.696 213.786 351.248 213.924 351.663 214.201C352.906 215.444 354.011 216.411 355.116 216.964C356.359 217.654 357.741 217.792 358.984 217.516C360.78 216.964 362.023 214.753 361.747 212.957C361.471 211.162 359.813 209.504 357.741 209.089C355.807 208.813 353.596 209.642 352.353 211.3C352.077 211.714 351.386 211.852 350.972 211.438C350.557 211.162 350.419 210.471 350.834 210.056C352.491 207.846 355.392 206.741 358.155 207.017C361.056 207.57 363.405 209.918 363.681 212.681C364.095 215.444 362.161 218.483 359.537 219.45C358.984 219.588 358.431 219.588 357.741 219.588Z" fill="#1D1D1F"/>
<path fill-rule="evenodd" clip-rule="evenodd" d="M354.287 215.306C354.149 215.306 354.011 215.306 353.872 215.168C353.458 214.892 353.32 214.339 353.458 213.925C354.563 211.991 357.05 210.747 359.26 211.3C359.813 211.438 360.089 211.852 359.951 212.405C359.813 212.958 359.398 213.234 358.846 213.096C357.464 212.819 355.806 213.51 355.116 214.892C354.978 215.168 354.701 215.306 354.287 215.306Z" fill="#1D1D1F"/>
<path fill-rule="evenodd" clip-rule="evenodd" d="M357.465 215.168C357.05 215.168 356.636 214.891 356.636 214.477C356.498 214.201 356.221 213.924 355.945 213.786C355.531 213.648 355.254 213.096 355.392 212.543C355.531 211.99 356.083 211.852 356.636 211.99C357.603 212.405 358.293 213.096 358.57 213.924C358.708 214.477 358.432 214.891 357.879 215.03C357.603 215.168 357.465 215.168 357.465 215.168Z" fill="#1D1D1F"/>
<path fill-rule="evenodd" clip-rule="evenodd" d="M343.65 202.735C343.236 204.807 341.302 206.05 339.368 205.774C339.091 205.774 338.953 205.636 338.815 205.636C337.572 204.669 336.743 203.426 336.19 202.597C336.19 202.182 336.19 201.768 336.19 201.492C336.19 201.215 336.329 200.939 336.467 200.663C337.848 200.525 340.335 200.663 342.683 202.182C342.959 202.182 343.374 202.459 343.65 202.735Z" fill="#1D1D1F"/>
<path fill-rule="evenodd" clip-rule="evenodd" d="M329.56 231.745L341.164 228.706L349.176 221.108L335.776 243.763L329.56 231.745Z" fill="#1D1D1F"/>
<path fill-rule="evenodd" clip-rule="evenodd" d="M425.706 253.571L457.479 451.253C457.479 451.253 413.411 428.459 396.558 432.051C379.705 435.643 359.398 439.372 344.34 435.643C304.417 425.835 294.471 399.311 294.471 399.311L275.96 318.36L292.675 245.835L314.363 246.112L305.384 275.812C305.384 275.812 325.553 283.272 348.485 285.206C371.416 287.278 397.111 283.963 397.111 283.963L402.498 253.848L425.706 253.571Z" fill="#0A84FF"/>
<path fill-rule="evenodd" clip-rule="evenodd" d="M370.587 280.371L399.045 267.938C399.735 264.208 362.161 242.52 362.161 242.52C362.161 242.52 351.938 238.928 338.4 243.487C334.671 244.73 332.737 246.941 329.145 249.427C319.889 255.782 310.634 264.208 310.634 264.208L370.587 280.371Z" fill="#F0F2F4"/>
<path fill-rule="evenodd" clip-rule="evenodd" d="M353.872 182.014C352.629 179.527 350.419 162.398 352.214 159.773C359.26 149.274 378.185 152.037 379.29 165.713C379.705 170.272 375.146 173.863 373.35 177.593" fill="#F0F2F4"/>
<path fill-rule="evenodd" clip-rule="evenodd" d="M92.2314 266.142L127.32 218.207L204.126 282.719L296.405 243.625C296.405 243.625 290.88 282.167 297.372 312.144C303.727 342.12 322.514 433.985 322.514 433.985L275.27 492.281L265.876 343.64C265.876 343.64 195.009 361.046 174.979 352.895C157.434 345.85 92.2314 266.142 92.2314 266.142Z" fill="#254898"/>
<path fill-rule="evenodd" clip-rule="evenodd" d="M418.522 249.289L453.472 451.943L510.111 479.433L457.34 325.129C457.34 325.129 502.513 322.918 512.321 315.459C522.129 307.999 597.416 228.429 597.416 228.429L575.59 172.896C575.59 172.896 492.014 237.823 483.311 241.415C474.746 245.145 418.522 249.289 418.522 249.289Z" fill="#254898"/>
<path fill-rule="evenodd" clip-rule="evenodd" d="M55.624 215.444C55.4859 215.444 55.2096 215.444 55.0714 215.306L43.8819 207.432C43.4675 207.156 43.3294 206.603 43.6057 206.189C43.8819 205.774 44.4345 205.636 44.8489 205.912L56.0384 213.786C56.4528 214.063 56.591 214.615 56.3147 215.03C56.1766 215.306 55.9003 215.444 55.624 215.444Z" fill="#1D1D1F"/>
<path fill-rule="evenodd" clip-rule="evenodd" d="M61.1492 205.222C61.0111 205.222 60.7348 205.222 60.5967 205.084L48.8546 196.657C48.4402 196.381 48.302 195.828 48.5783 195.414C48.8546 194.999 49.4072 194.861 49.8216 195.137L61.5637 203.564C61.9781 203.84 62.1162 204.393 61.8399 204.807C61.8399 205.084 61.4255 205.222 61.1492 205.222Z" fill="#1D1D1F"/>
<path fill-rule="evenodd" clip-rule="evenodd" d="M67.5044 194.999C67.3663 194.999 67.09 194.999 66.9518 194.861L55.7623 185.882C55.3479 185.606 55.3479 185.053 55.6242 184.639C55.9005 184.224 56.453 184.224 56.8675 184.5L68.057 193.48C68.4714 193.756 68.4714 194.308 68.1951 194.723C68.057 194.861 67.7807 194.999 67.5044 194.999Z" fill="#1D1D1F"/>
<path fill-rule="evenodd" clip-rule="evenodd" d="M208.685 354.415C208.271 354.415 207.856 354.139 207.718 353.586C207.58 353.034 207.994 352.619 208.547 352.481C209.238 352.343 271.264 343.778 280.933 336.595C281.348 336.318 281.9 336.318 282.177 336.733C282.453 337.147 282.453 337.7 282.039 337.976C271.954 345.574 211.31 354.001 208.685 354.415Z" fill="#1D1D1F"/>
<path fill-rule="evenodd" clip-rule="evenodd" d="M427.916 303.302L455.268 454.844L435.79 448.352L427.916 303.302Z" fill="#1D1D1F"/>
<path fill-rule="evenodd" clip-rule="evenodd" d="M472.675 366.986C472.26 366.986 471.984 366.71 471.846 366.295L450.019 301.368C449.881 300.954 450.157 300.401 450.572 300.263C450.986 300.125 451.539 300.401 451.677 300.816L473.503 365.743C473.642 366.157 473.365 366.71 472.951 366.848C472.813 366.986 472.675 366.986 472.675 366.986Z" fill="#1D1D1F"/>
<path fill-rule="evenodd" clip-rule="evenodd" d="M354.425 220.693L351.247 222.075C350.419 222.489 349.313 222.075 349.037 221.246L347.656 218.069C347.241 217.24 347.656 216.135 348.485 215.858L351.662 214.477C352.491 214.063 353.596 214.477 353.872 215.306L355.254 218.483C355.668 219.312 355.254 220.417 354.425 220.693Z" fill="#0A84FF"/>
<path d="M601 121.662C601 87.0699 629.186 59 663.779 59C698.487 59 726.557 87.0699 726.557 121.662C726.557 156.255 698.487 184.324 663.779 184.324C629.07 184.208 601 156.138 601 121.662Z" fill="#34C759"/>
<path fill-rule="evenodd" clip-rule="evenodd" d="M648.638 119.566C629.536 127.02 616.375 96.1547 641.766 84.158C664.478 75.6555 671.466 94.99 671.466 94.99C672.282 95.2229 678.455 88.2346 684.278 94.99C689.752 101.279 687.889 109.2 686.258 107.802C686.491 108.268 695.925 106.987 696.974 125.972C695.925 138.434 681.25 151.246 668.904 144.957C664.128 142.511 675.543 135.755 674.611 131.679C672.864 124.341 665.643 121.895 659.004 120.614C657.024 120.148 650.618 118.867 648.638 119.566Z" fill="#F0F2F4"/>
<path fill-rule="evenodd" clip-rule="evenodd" d="M660.867 108.734C666.574 110.481 679.852 110.131 680.085 113.975C680.201 117.935 680.667 135.173 678.105 144.84C675.892 153.226 669.835 160.68 655.742 165.106C651.432 166.038 632.797 159.632 633.961 142.977C634.311 135.289 635.592 124.108 639.319 111.18C640.95 105.239 655.159 107.336 660.867 108.734Z" fill="#F0F2F4"/>
<path fill-rule="evenodd" clip-rule="evenodd" d="M654.81 165.922C651.433 165.922 645.259 163.825 640.368 159.749C636.757 156.604 632.564 151.13 633.146 142.86C633.496 135.639 634.777 124.108 638.504 110.83C640.834 103.027 660.867 107.918 661.1 107.918C662.963 108.501 665.642 108.85 668.554 109.2C674.843 110.015 680.784 110.714 680.9 113.975C681.249 127.719 680.551 138.784 678.92 145.073C676.241 155.09 668.787 161.962 655.975 165.922C655.626 165.922 655.276 165.922 654.81 165.922ZM648.87 108.035C644.561 108.035 640.834 108.85 640.135 111.296C636.408 124.457 635.126 135.755 634.777 142.977C634.311 150.664 638.155 155.672 641.532 158.584C646.89 163.126 653.645 164.757 655.626 164.408C667.739 160.68 674.843 154.158 677.406 144.724C679.036 138.551 679.735 127.602 679.386 114.091C679.269 112.228 672.98 111.413 668.438 110.947C665.526 110.597 662.73 110.248 660.75 109.665C657.606 108.734 652.947 108.035 648.87 108.035Z" fill="#1D1D1F"/>
<path fill-rule="evenodd" clip-rule="evenodd" d="M646.657 140.181C646.424 140.181 646.191 140.065 645.958 139.832L643.745 136.338C643.512 135.988 643.629 135.639 643.862 135.406L647.589 131.679L649.918 122.943C650.035 122.477 650.501 122.245 650.85 122.361C651.316 122.477 651.549 122.943 651.432 123.293L648.986 132.145C648.986 132.261 648.87 132.378 648.753 132.494L645.376 135.988L647.239 138.9C647.472 139.249 647.356 139.715 647.006 139.948C647.006 140.181 646.89 140.181 646.657 140.181Z" fill="#1D1D1F"/>
<path fill-rule="evenodd" clip-rule="evenodd" d="M647.705 148.101C647.356 148.101 647.006 147.869 647.006 147.519C646.89 147.053 647.123 146.704 647.589 146.587C649.569 146.121 651.432 144.607 652.364 142.627C652.597 142.278 653.063 142.045 653.412 142.278C653.762 142.511 653.995 142.977 653.762 143.326C652.597 145.656 650.384 147.519 647.938 148.101C647.822 148.101 647.705 148.101 647.705 148.101Z" fill="#1D1D1F"/>
<path fill-rule="evenodd" clip-rule="evenodd" d="M663.08 131.213C657.722 130.747 655.043 127.369 655.043 127.369C655.043 127.369 658.537 124.69 663.08 125.273C667.506 125.739 670.534 128.418 670.534 128.418C670.534 128.418 667.156 131.795 663.08 131.213Z" fill="#D8D8D8"/>
<path fill-rule="evenodd" clip-rule="evenodd" d="M662.497 125.622C666.923 126.67 666.807 129 666.574 130.63C666.574 130.63 664.361 131.562 661.682 130.98C659.119 130.514 656.907 129 656.79 128.883C656.79 127.486 659.119 125.389 662.497 125.622Z" fill="#1D1D1F"/>
<path fill-rule="evenodd" clip-rule="evenodd" d="M634.66 130.631C635.126 130.631 635.359 130.514 635.825 130.631C640.367 130.514 643.046 126.787 643.046 126.787C643.046 126.787 640.134 125.04 636.174 124.807C636.174 124.923 634.777 130.165 634.66 130.631Z" fill="#D8D8D8"/>
<path fill-rule="evenodd" clip-rule="evenodd" d="M634.544 130.863C635.126 130.98 635.825 130.863 636.757 130.863C639.436 130.514 641.066 129 641.066 129C640.95 127.486 639.319 125.156 635.942 125.506C635.825 125.506 635.825 126.554 635.709 126.554C635.592 126.67 635.592 127.02 635.476 127.253C635.359 127.719 635.126 128.417 634.893 128.883C634.66 129.466 634.544 130.165 634.544 130.863Z" fill="#1D1D1F"/>
<path fill-rule="evenodd" clip-rule="evenodd" d="M659.352 119.566C658.304 119.566 657.605 119.449 657.372 118.401C657.256 117.12 658.304 116.188 659.352 115.722C662.148 114.324 665.525 113.742 668.554 114.324C669.252 114.441 670.301 114.674 670.534 115.489C670.883 115.955 670.417 116.654 669.951 117.12C669.485 117.586 668.786 117.702 668.321 117.935C665.525 118.75 662.497 119.333 659.352 119.566Z" fill="#1D1D1F"/>
<path fill-rule="evenodd" clip-rule="evenodd" d="M635.476 118.75C634.893 118.634 634.194 118.401 634.194 117.469C634.311 116.421 635.243 115.838 635.941 115.606C638.271 114.907 640.6 115.023 642.93 115.955C643.396 116.188 644.094 116.654 644.211 117.353C644.211 117.818 643.862 118.284 643.512 118.517C643.163 118.75 642.58 118.983 642.114 118.867C639.901 119.216 637.572 119.1 635.476 118.75Z" fill="#1D1D1F"/>
<path fill-rule="evenodd" clip-rule="evenodd" d="M679.27 134.474C680.901 135.173 682.648 135.639 684.511 135.755C686.259 135.872 688.006 135.289 689.52 134.125C691.5 132.261 691.849 128.883 690.452 126.67C689.054 124.457 686.026 123.409 683.347 123.992C680.784 124.69 678.688 127.02 678.105 129.582" fill="#F0F2F4"/>
<path fill-rule="evenodd" clip-rule="evenodd" d="M684.744 136.571C684.627 136.571 684.511 136.571 684.395 136.571C682.764 136.454 680.9 136.105 678.92 135.289C678.454 135.173 678.338 134.591 678.454 134.241C678.571 133.892 679.153 133.659 679.503 133.775C681.366 134.474 682.997 134.94 684.395 134.94C686.025 134.94 687.539 134.474 688.82 133.542C690.451 132.028 690.801 129.116 689.519 127.136C688.355 125.273 685.676 124.341 683.346 124.923C681.017 125.622 679.153 127.602 678.687 129.932C678.571 130.398 678.221 130.631 677.756 130.514C677.29 130.398 677.057 130.048 677.173 129.582C677.756 126.67 680.085 124.225 682.997 123.293C686.142 122.594 689.403 123.875 691.033 126.321C692.664 128.883 692.198 132.611 689.985 134.824C688.471 135.988 686.608 136.571 684.744 136.571Z" fill="#1D1D1F"/>
<path fill-rule="evenodd" clip-rule="evenodd" d="M682.414 133.193C681.948 133.193 681.599 132.844 681.599 132.378C681.715 129.932 683.695 127.719 686.025 127.136C686.49 127.02 686.84 127.253 686.956 127.719C687.073 128.185 686.84 128.534 686.374 128.651C684.627 129 683.229 130.631 683.113 132.378C683.113 132.844 682.88 133.193 682.414 133.193Z" fill="#1D1D1F"/>
<path fill-rule="evenodd" clip-rule="evenodd" d="M685.443 131.562C685.21 131.562 684.977 131.446 684.86 131.213C684.511 130.864 684.045 130.747 683.579 130.747C683.113 130.747 682.764 130.514 682.764 130.048C682.764 129.582 682.997 129.233 683.463 129.233C684.511 129.116 685.559 129.582 686.141 130.281C686.374 130.631 686.374 131.096 686.025 131.329C685.792 131.562 685.675 131.562 685.443 131.562Z" fill="#1D1D1F"/>
<path fill-rule="evenodd" clip-rule="evenodd" d="M76.4053 89.3484C76.4053 39.8476 116.705 -0.335449 166.322 -0.335449C216.056 -0.335449 256.239 39.8476 256.239 89.3484C256.239 138.849 215.939 179.032 166.322 179.032C116.705 179.032 76.4053 138.849 76.4053 89.3484Z" fill="#34C759"/>
<path fill-rule="evenodd" clip-rule="evenodd" d="M138.602 70.2468C147.919 68.7327 132.312 73.2751 151.297 50.2136C170.282 27.0355 186.938 43.6911 192.062 45.9041C235.507 65.0056 206.272 151.661 170.864 97.2684C168.768 94.1237 166.788 90.8625 165.157 87.3683C160.848 78.0505 161.43 77.2352 160.149 67.8009" fill="#F0F2F4"/>
<path fill-rule="evenodd" clip-rule="evenodd" d="M192.877 53.3584C192.761 53.3584 192.877 53.009 192.761 52.8925C189.5 52.0772 186.122 51.3784 182.744 50.6795C178.668 49.8642 174.708 48.9324 170.515 48.4666C155.49 46.7195 134.874 40.6629 122.411 53.009C119.849 55.5714 118.568 59.182 117.054 62.4432C114.841 67.1021 113.327 74.207 115.889 79.2153C118.451 84.3401 125.44 87.2519 130.565 88.766C134.525 89.9308 138.252 92.0273 142.561 91.9108C148.734 91.6778 153.393 84.6895 158.751 82.0106C164.109 79.2153 169.932 77.9341 175.872 76.6529C181.929 75.3717 198.701 76.5364 202.894 72.6928C209.416 66.2868 199.283 50.4466 192.877 53.3584Z" fill="#F0F2F4"/>
<path fill-rule="evenodd" clip-rule="evenodd" d="M205.573 83.6411C202.778 86.32 204.991 91.3283 205.224 95.2884C205.457 99.2485 204.991 102.976 206.389 106.819C207.553 110.313 211.513 111.711 214.309 113.342C221.414 117.535 227.121 116.603 233.41 111.012C246.688 99.2485 232.362 84.6894 220.132 81.1952C216.522 80.147 214.309 78.7493 210.349 80.2634C208.369 80.9623 206.971 82.3599 205.573 83.6411Z" fill="#F0F2F4"/>
<path fill-rule="evenodd" clip-rule="evenodd" d="M223.51 104.49C220.249 108.333 217.337 113.575 215.59 118.35C208.835 137.219 227.354 157.252 227.354 157.252C229.8 156.553 243.893 138.5 245.524 136.403C248.785 131.861 247.504 125.105 246.455 120.097C245.407 115.438 245.757 115.089 243.194 110.779C240.282 106.004 240.632 106.936 236.206 104.49" fill="#F0F2F4"/>
<path fill-rule="evenodd" clip-rule="evenodd" d="M163.177 77.0021C168.302 80.2634 181.114 83.6411 180.298 87.4847C179.25 91.3282 174.941 108.1 169.699 116.836C165.157 124.29 157.237 129.881 142.445 130.114C138.019 129.881 121.829 118.35 127.536 102.51C130.099 95.1718 134.525 84.6893 141.629 73.1585C144.891 68.1502 158.052 74.0903 163.177 77.0021Z" fill="#F0F2F4"/>
<path fill-rule="evenodd" clip-rule="evenodd" d="M142.445 130.929C139.533 130.696 133.011 126.736 129.051 120.679C126.372 116.603 123.926 110.197 126.721 102.277C129.167 95.2884 133.593 84.5729 140.931 72.8092C145.357 65.8209 163.41 76.3034 163.527 76.3034C165.157 77.3517 167.72 78.3999 170.399 79.5646C176.222 82.0106 181.696 84.4565 180.998 87.6012C177.503 100.996 173.776 111.478 170.282 117.185C165.041 126.154 155.839 130.696 142.445 130.929ZM146.405 71.9939C144.542 71.9939 143.144 72.4598 142.445 73.6245C135.107 85.2718 130.798 95.8708 128.352 102.743C125.673 109.964 128.003 116.021 130.448 119.748C134.292 125.688 140.465 129.182 142.445 129.298C155.257 129.065 163.876 124.872 169.001 116.37C172.379 110.779 176.106 100.53 179.483 87.2518C179.949 85.3883 174.009 82.9423 169.816 81.0788C167.137 79.914 164.575 78.8658 162.711 77.7011C158.751 75.3716 151.181 71.9939 146.405 71.9939Z" fill="#1D1D1F"/>
<path fill-rule="evenodd" clip-rule="evenodd" d="M140.814 103.558C140.465 103.558 140.116 103.325 140.116 102.976L138.951 99.0155C138.834 98.6661 138.951 98.3167 139.3 98.0837L143.959 95.5213L148.618 87.7177C148.851 87.3682 149.317 87.2518 149.666 87.4847C150.016 87.7177 150.132 88.1836 149.899 88.533L145.124 96.4531C145.007 96.5696 145.007 96.686 144.891 96.686L140.582 99.132L141.513 102.51C141.63 102.976 141.397 103.325 140.931 103.441C140.931 103.558 140.931 103.558 140.814 103.558Z" fill="#1D1D1F"/>
<path fill-rule="evenodd" clip-rule="evenodd" d="M140 111.478C139.883 111.478 139.65 111.478 139.534 111.478C139.068 111.478 138.835 111.129 138.835 110.663C138.835 110.197 139.184 109.847 139.65 109.964C141.747 110.08 143.96 109.149 145.357 107.518C145.59 107.169 146.173 107.169 146.406 107.518C146.755 107.751 146.755 108.333 146.406 108.566C144.775 110.43 142.329 111.478 140 111.478Z" fill="#1D1D1F"/>
<path fill-rule="evenodd" clip-rule="evenodd" d="M158.985 99.3649C153.86 97.3849 152.346 93.4248 152.346 93.4248C152.346 93.4248 156.422 91.9107 160.732 93.6578C164.808 95.4048 167.138 98.7826 167.138 98.7826C167.138 98.7826 162.828 101.112 158.985 99.3649Z" fill="white"/>
<path fill-rule="evenodd" clip-rule="evenodd" d="M159.916 93.8907C163.877 96.1037 163.178 98.4331 162.479 99.8308C162.479 99.8308 160.033 100.064 157.703 98.7826C155.258 97.6178 153.627 95.5213 153.627 95.4049C153.976 94.0072 156.888 92.726 159.916 93.8907Z" fill="#1D1D1F"/>
<path fill-rule="evenodd" clip-rule="evenodd" d="M131.613 90.8624C132.079 90.9788 132.312 90.9788 132.778 91.0953C137.204 92.26 140.815 89.3482 140.815 89.3482C140.815 89.3482 138.602 86.7858 134.758 85.5046C134.758 85.8541 131.963 90.513 131.613 90.8624Z" fill="white"/>
<path fill-rule="evenodd" clip-rule="evenodd" d="M131.497 91.0954C132.079 91.3284 132.778 91.5613 133.594 91.6778C136.272 92.1437 138.252 91.0954 138.252 91.0954C138.485 89.5813 137.67 86.9024 134.292 86.3201C134.176 86.3201 133.827 87.3683 133.71 87.3683C133.594 87.4848 133.477 87.8342 133.244 87.9507C133.011 88.4166 132.545 88.9989 132.196 89.3484C131.963 89.8142 131.614 90.3966 131.497 91.0954Z" fill="#1D1D1F"/>
<path fill-rule="evenodd" clip-rule="evenodd" d="M158.635 87.1354C157.587 86.9025 156.888 86.553 157.121 85.3883C157.354 84.1071 158.635 83.5248 159.8 83.4083C162.945 82.8259 166.322 83.2918 169.118 84.6895C169.817 84.9224 170.632 85.5048 170.632 86.4366C170.748 87.0189 170.166 87.6013 169.584 87.8342C169.001 88.0672 168.302 88.0672 167.72 88.0672C164.925 88.0672 161.78 87.8342 158.635 87.1354Z" fill="#1D1D1F"/>
<path fill-rule="evenodd" clip-rule="evenodd" d="M135.807 79.5646C135.224 79.3317 134.642 78.8658 134.991 78.0505C135.457 77.0022 136.389 76.7693 137.204 76.7693C139.65 76.7693 141.863 77.4681 143.843 78.9823C144.309 79.4482 144.891 80.0305 144.658 80.7294C144.542 81.1952 144.076 81.5447 143.61 81.7776C143.144 81.8941 142.562 81.8941 142.213 81.7776C140 81.3117 137.787 80.6129 135.807 79.5646Z" fill="#1D1D1F"/>
<path fill-rule="evenodd" clip-rule="evenodd" d="M173.659 107.169C175.057 108.333 176.687 109.265 178.318 109.847C179.949 110.43 181.812 110.43 183.559 109.731C186.005 108.45 187.286 105.305 186.588 102.743C185.889 100.18 183.21 98.3167 180.531 98.2002C177.852 98.2002 175.173 99.7143 173.892 102.16" fill="#F0F2F4"/>
<path fill-rule="evenodd" clip-rule="evenodd" d="M180.764 111.129C179.833 111.129 178.901 111.012 178.086 110.663C176.455 110.08 174.824 109.149 173.194 107.868C172.844 107.635 172.728 107.052 173.077 106.703C173.31 106.353 173.892 106.237 174.242 106.586C175.756 107.868 177.27 108.683 178.668 109.149C180.298 109.731 181.813 109.615 183.327 109.032C185.307 107.984 186.472 105.305 185.773 103.092C185.19 100.996 182.861 99.2486 180.415 99.1321C178.086 99.1321 175.64 100.53 174.475 102.626C174.242 102.976 173.776 103.209 173.427 102.976C173.077 102.743 172.844 102.277 173.077 101.927C174.475 99.2486 177.387 97.5015 180.415 97.5015C183.676 97.6179 186.472 99.8309 187.287 102.626C188.102 105.655 186.588 109.032 183.909 110.546C182.977 110.896 181.813 111.129 180.764 111.129Z" fill="#1D1D1F"/>
<path fill-rule="evenodd" clip-rule="evenodd" d="M177.387 106.819C177.271 106.819 177.271 106.819 177.154 106.819C176.805 106.703 176.572 106.237 176.689 105.887C177.504 103.558 179.95 101.927 182.396 102.16C182.862 102.16 183.094 102.51 183.094 102.976C183.094 103.442 182.745 103.674 182.279 103.674C180.532 103.558 178.669 104.723 178.086 106.47C177.97 106.586 177.62 106.819 177.387 106.819Z" fill="#1D1D1F"/>
<path fill-rule="evenodd" clip-rule="evenodd" d="M180.765 106.12C180.415 106.12 180.182 105.887 180.066 105.655C179.833 105.189 179.367 104.956 178.901 104.839C178.435 104.723 178.202 104.373 178.319 103.907C178.435 103.442 178.785 103.209 179.251 103.325C180.299 103.558 181.114 104.14 181.464 105.072C181.58 105.422 181.463 105.887 180.998 106.12C180.998 106.12 180.881 106.12 180.765 106.12Z" fill="#1D1D1F"/>
<path fill-rule="evenodd" clip-rule="evenodd" d="M51.0146 64.0737C51.0146 64.0737 60.0995 37.9839 82.4622 37.9839C104.825 37.9839 113.56 63.1419 113.56 63.1419C113.56 63.1419 104.01 84.8058 81.7634 84.3399C65.6902 84.107 51.0146 64.0737 51.0146 64.0737Z" fill="#0A84FF"/>
<path fill-rule="evenodd" clip-rule="evenodd" d="M66.5059 61.1618C66.5059 52.4264 73.6107 45.3215 82.3461 45.3215C91.0816 45.3215 98.1864 52.4264 98.1864 61.1618C98.1864 69.8972 91.0816 77.002 82.3461 77.002C73.6107 77.002 66.5059 69.8972 66.5059 61.1618Z" fill="#F0F2F4"/>
<path fill-rule="evenodd" clip-rule="evenodd" d="M71.3975 61.3947C71.3975 55.2217 76.4058 50.2134 82.4623 50.2134C88.5189 50.2134 93.5272 55.2217 93.5272 61.3947C93.5272 67.5678 88.5189 72.5761 82.4623 72.5761C76.4058 72.5761 71.3975 67.5678 71.3975 61.3947Z" fill="#0A84FF"/>
<path fill-rule="evenodd" clip-rule="evenodd" d="M294.579 410.173C294.113 411.804 293.88 413.085 293.297 414.25C293.181 414.599 292.016 414.599 291.317 414.483C291.085 414.483 290.852 413.784 290.735 413.318C290.386 412.037 289.454 409.824 289.92 409.474C291.434 408.193 293.414 408.193 294.579 410.173Z" fill="#1D1D1F"/>
<path fill-rule="evenodd" clip-rule="evenodd" d="M450.399 364.223C448.186 365.738 446.323 367.135 444.459 368.533C445.624 366.553 446.672 364.922 444.692 362.826C446.555 363.175 448.303 363.641 450.399 364.223Z" fill="#1D1D1F"/>
<path fill-rule="evenodd" clip-rule="evenodd" d="M434.093 365.039C436.422 364.34 439.916 364.456 437.121 360.846C439.101 360.38 440.266 363.292 438.868 365.155C438.519 365.621 437.587 365.854 436.888 365.97C436.189 366.087 435.49 365.738 434.792 365.621C434.559 365.388 434.326 365.155 434.093 365.039Z" fill="#1D1D1F"/>
<path fill-rule="evenodd" clip-rule="evenodd" d="M286.775 420.073C286.892 418.093 287.008 416.696 287.125 415.414C287.125 415.065 287.707 414.716 288.057 414.716C288.406 414.716 289.221 414.949 289.221 415.181C289.221 416.463 289.338 417.86 288.988 419.142C288.988 419.491 287.824 419.607 286.775 420.073Z" fill="#1D1D1F"/>
<path fill-rule="evenodd" clip-rule="evenodd" d="M118.802 160.28C115.541 159.348 118.802 155.388 114.26 156.32C114.609 155.854 114.842 155.504 115.192 155.039C116.007 155.039 117.405 154.806 117.405 155.039C117.987 156.553 118.22 158.067 118.802 160.28Z" fill="#1D1D1F"/>
<path fill-rule="evenodd" clip-rule="evenodd" d="M109.95 149.797C110.183 147.701 110.416 145.954 110.649 144.323C110.998 144.323 111.231 144.323 111.581 144.44C111.814 146.07 112.047 147.701 112.28 149.681C111.231 149.797 110.416 149.797 109.95 149.797Z" fill="#1D1D1F"/>
<path fill-rule="evenodd" clip-rule="evenodd" d="M276.409 407.96C275.71 406.912 274.895 406.097 275.011 405.747C275.244 405.048 276.176 404.582 276.758 404C277.224 404.582 278.156 405.165 278.156 405.631C278.039 406.329 277.224 406.912 276.409 407.96Z" fill="#1D1D1F"/>
<path fill-rule="evenodd" clip-rule="evenodd" d="M462.163 381.927C464.609 380.296 466.706 381.228 467.055 383.907C465.424 383.208 463.794 382.626 462.163 381.927Z" fill="#1D1D1F"/>
<path fill-rule="evenodd" clip-rule="evenodd" d="M463.677 349.781C462.28 349.664 460.999 349.664 459.717 349.198C459.368 349.082 459.251 347.917 459.019 346.985C460.882 347.801 462.28 348.383 463.677 348.965C463.561 349.198 463.561 349.431 463.677 349.781Z" fill="#1D1D1F"/>
<path fill-rule="evenodd" clip-rule="evenodd" d="M464.027 378.549C462.746 379.015 461.465 379.598 460.416 380.064C460.416 379.947 460.183 379.132 459.834 378.2C460.999 377.851 461.93 377.618 462.862 377.385C463.212 377.851 463.678 378.2 464.027 378.549Z" fill="#1D1D1F"/>
<path fill-rule="evenodd" clip-rule="evenodd" d="M306.226 411.687C307.158 411.687 308.089 411.687 309.138 411.687C309.021 412.386 309.021 412.968 308.905 413.667C307.973 413.551 307.041 413.318 306.109 413.201C306.109 412.619 306.226 412.153 306.226 411.687Z" fill="#1D1D1F"/>
<path fill-rule="evenodd" clip-rule="evenodd" d="M447.712 336.822C448.527 336.589 449.109 336.123 449.575 336.24C450.507 336.356 451.322 336.822 452.138 337.171C451.672 337.754 451.439 338.569 450.856 339.035C449.109 340.549 447.362 341.83 445.266 342.995C445.033 340.433 445.382 338.22 443.169 336.472C442.703 336.123 443.402 333.794 443.868 332.512C443.985 332.163 445.499 331.814 445.615 331.93C446.314 333.095 446.896 334.26 447.479 335.541C447.712 335.774 447.712 336.123 447.712 336.822Z" fill="#1D1D1F"/>
<path fill-rule="evenodd" clip-rule="evenodd" d="M450.973 328.785C449.808 328.203 448.876 327.62 447.945 327.388C446.896 327.038 445.848 326.805 444.8 326.922C443.752 327.038 442.82 327.62 441.771 327.97C442.004 326.922 442.237 325.873 442.354 324.825C442.82 322.612 443.868 320.749 446.43 321.564C447.712 322.03 448.993 323.311 449.808 324.476C450.507 325.291 450.507 326.689 450.973 328.785Z" fill="#1D1D1F"/>
<path fill-rule="evenodd" clip-rule="evenodd" d="M453.419 369.085C453.536 369.201 453.769 369.434 453.769 369.434C456.331 368.153 458.195 368.619 458.777 371.997C459.592 370.948 460.058 370.133 460.757 369.201C461.572 369.784 462.271 370.366 462.737 370.716C461.689 371.764 460.757 372.812 459.825 373.86C452.721 373.045 452.138 372.696 453.419 369.085Z" fill="#1D1D1F"/>
<path fill-rule="evenodd" clip-rule="evenodd" d="M479.858 401.348C479.858 404.259 482.537 406.123 480.324 408.685C479.509 409.617 475.199 410.433 474.617 409.501C474.267 409.035 474.384 407.404 474.5 407.404C477.529 406.705 477.761 403.677 479.858 401.348Z" fill="#1D1D1F"/>
<path fill-rule="evenodd" clip-rule="evenodd" d="M459.825 394.243C459.825 393.544 459.708 392.962 459.825 392.379C459.941 391.913 460.407 391.448 460.757 390.982C461.222 391.448 462.271 392.03 462.271 392.263C461.921 393.661 462.62 394.359 463.552 395.175C464.134 395.641 464.717 396.922 464.484 397.155C463.901 397.854 462.969 398.552 462.154 398.669C461.455 398.669 460.407 397.97 460.058 397.271C459.592 396.456 459.708 395.291 459.708 394.359C459.708 394.243 459.708 394.243 459.825 394.243Z" fill="#1D1D1F"/>
<path fill-rule="evenodd" clip-rule="evenodd" d="M453.419 369.085C452.255 370.366 451.206 371.764 449.925 372.928C449.459 373.278 448.411 373.045 447.596 373.045C447.712 371.531 447.363 368.968 447.945 368.735C449.576 368.269 451.672 367.454 453.419 369.085Z" fill="#1D1D1F"/>
<path fill-rule="evenodd" clip-rule="evenodd" d="M626.739 203.375C625.69 204.19 624.642 205.471 623.594 205.471C622.895 205.471 621.264 203.724 621.381 203.025C621.614 201.977 622.895 200.812 623.943 200.463C624.642 200.23 625.807 201.511 626.739 202.093C626.739 202.559 626.739 203.025 626.739 203.375Z" fill="#1D1D1F"/>
<path fill-rule="evenodd" clip-rule="evenodd" d="M450.974 376.772C449.809 378.985 449.343 381.547 446.548 381.082C445.849 380.965 444.684 379.101 444.917 378.403C445.849 375.025 448.528 377.005 450.974 376.772Z" fill="#1D1D1F"/>
<path fill-rule="evenodd" clip-rule="evenodd" d="M460.64 310.383C459.592 310.732 458.66 310.965 457.379 311.431C457.495 309.218 457.495 307.354 457.728 305.374C457.845 304.909 458.893 304.326 459.592 304.21C459.941 304.21 460.64 305.141 460.64 305.724C460.757 307.354 460.64 308.869 460.64 310.383Z" fill="#1D1D1F"/>
<path fill-rule="evenodd" clip-rule="evenodd" d="M468.444 371.531C466.93 370.483 465.416 369.318 464.018 368.27C463.785 368.502 463.553 368.619 463.203 368.852C464.135 367.687 465.067 366.522 466.231 365.008C467.978 367.804 468.91 370.25 468.444 371.531Z" fill="#1D1D1F"/>
<path fill-rule="evenodd" clip-rule="evenodd" d="M448.295 385.042C450.508 385.391 451.439 385.973 451.323 388.07C451.206 390.05 450.042 390.05 448.761 390.05C446.78 390.05 446.198 388.536 446.548 387.022C446.664 386.323 447.712 385.74 448.295 385.042Z" fill="#1D1D1F"/>
<path fill-rule="evenodd" clip-rule="evenodd" d="M618.936 204.19C617.072 205.355 615.907 206.519 614.859 206.519C614.044 206.519 613.228 205.005 612.413 204.074C613.228 203.375 614.044 201.977 614.859 201.977C615.907 202.21 617.072 203.258 618.936 204.19Z" fill="#1D1D1F"/>
<path fill-rule="evenodd" clip-rule="evenodd" d="M462.97 291.398C464.833 290.932 466.464 290.466 468.793 290C468.095 291.98 467.629 293.727 466.813 295.241C466.697 295.358 464.833 295.008 464.251 294.426C463.669 293.727 463.436 292.679 462.97 291.398Z" fill="#1D1D1F"/>
<path fill-rule="evenodd" clip-rule="evenodd" d="M450.856 398.319C452.836 394.942 453.302 394.942 455.399 397.737C455.865 398.436 456.913 398.552 457.728 398.902C458.194 399.135 458.777 399.135 459.126 399.484C459.242 399.601 459.01 400.416 458.777 400.649C458.427 400.882 457.728 400.998 457.379 400.765C455.166 400.067 452.953 399.135 450.856 398.319Z" fill="#1D1D1F"/>
<path fill-rule="evenodd" clip-rule="evenodd" d="M454.584 418.818C453.069 420.1 452.138 420.915 451.322 421.614C450.623 420.449 449.692 419.401 449.342 418.236C449.226 417.887 450.74 416.373 451.322 416.489C452.254 416.722 453.069 417.77 454.584 418.818Z" fill="#1D1D1F"/>
<path fill-rule="evenodd" clip-rule="evenodd" d="M469.842 416.14C471.007 418.003 471.706 419.168 472.288 420.333C471.356 420.915 470.192 421.963 469.609 421.847C468.677 421.497 467.746 420.216 467.513 419.284C467.513 418.586 468.677 417.654 469.842 416.14Z" fill="#1D1D1F"/>
<path fill-rule="evenodd" clip-rule="evenodd" d="M472.986 401.697C473.918 401.697 474.966 401.814 476.714 401.93C475.432 403.677 474.384 405.191 473.219 406.472C472.986 406.705 471.589 406.239 471.123 405.774C470.89 405.541 471.123 404.492 471.356 403.91C471.705 403.095 472.404 402.396 472.986 401.697Z" fill="#1D1D1F"/>
<path fill-rule="evenodd" clip-rule="evenodd" d="M433.502 313.76C430.823 313.877 430.358 311.431 430.008 309.451C429.892 308.868 431.056 308.053 431.639 307.354C432.105 307.937 433.036 308.402 433.153 309.101C433.386 310.499 433.386 312.13 433.502 313.76Z" fill="#1D1D1F"/>
<path fill-rule="evenodd" clip-rule="evenodd" d="M457.03 348.12C458.078 349.634 459.243 350.449 459.126 351.148C459.126 352.08 458.078 353.011 457.496 353.943C456.68 353.244 455.399 352.546 455.166 351.614C455.05 350.915 456.098 349.75 457.03 348.12Z" fill="#1D1D1F"/>
<path fill-rule="evenodd" clip-rule="evenodd" d="M456.098 378.985C455.632 381.081 455.283 382.596 454.701 384.692C453.419 383.411 452.371 382.479 451.439 381.547C452.837 380.732 454.235 379.917 456.098 378.985Z" fill="#1D1D1F"/>
<path fill-rule="evenodd" clip-rule="evenodd" d="M462.038 427.088C460.641 426.506 459.476 426.04 458.078 425.574C458.311 424.759 458.66 423.827 458.893 423.011C461.805 423.244 462.504 424.06 462.038 427.088Z" fill="#1D1D1F"/>
<path fill-rule="evenodd" clip-rule="evenodd" d="M496.747 295.358C498.028 295.241 499.309 295.241 500.59 295.125C500.474 296.173 500.357 297.105 500.241 298.153C499.076 297.804 497.795 297.454 496.63 297.105C496.514 296.522 496.63 295.94 496.747 295.358Z" fill="#1D1D1F"/>
<path fill-rule="evenodd" clip-rule="evenodd" d="M465.299 374.559C466.813 374.792 467.978 374.792 468.793 375.141C469.492 375.491 469.958 376.423 470.424 377.121C470.54 377.354 469.841 378.286 469.608 378.286C468.909 378.17 467.978 377.937 467.512 377.471C466.696 376.656 466.114 375.607 465.299 374.559Z" fill="#1D1D1F"/>
<path fill-rule="evenodd" clip-rule="evenodd" d="M457.612 357.787C458.661 357.088 459.476 356.273 460.524 355.69C461.106 355.341 462.038 355.108 462.388 355.341C462.854 355.691 463.319 356.622 463.203 357.205C463.087 357.671 462.155 358.136 461.572 358.136C460.175 358.253 458.894 358.02 457.612 357.787Z" fill="#1D1D1F"/>
<path fill-rule="evenodd" clip-rule="evenodd" d="M470.424 392.845C467.163 394.476 466.697 391.564 465.066 390.516C464.95 390.399 465.066 389.7 465.299 389.584C465.649 389.467 466.231 389.351 466.464 389.584C467.745 390.632 468.91 391.68 470.424 392.845Z" fill="#1D1D1F"/>
<path fill-rule="evenodd" clip-rule="evenodd" d="M451.672 365.94C450.624 366.056 449.575 366.173 448.411 366.289C448.294 365.125 448.294 363.96 448.178 362.795C448.411 362.679 448.76 362.562 448.993 362.446C449.925 363.261 450.857 364.076 451.788 364.892C451.788 365.241 451.672 365.591 451.672 365.94Z" fill="#1D1D1F"/>
<path fill-rule="evenodd" clip-rule="evenodd" d="M441.306 368.852C438.511 370.017 437.579 368.968 437.113 367.338C436.996 366.988 438.278 366.289 438.86 365.823C439.559 366.639 440.258 367.571 441.306 368.852Z" fill="#1D1D1F"/>
<path fill-rule="evenodd" clip-rule="evenodd" d="M483.469 416.605C482.421 417.421 481.372 418.236 480.324 419.051C479.858 418.353 479.509 417.537 479.043 416.838C480.208 416.256 481.372 415.79 482.537 415.208C482.887 415.674 483.236 416.14 483.469 416.605Z" fill="#1D1D1F"/>
<path fill-rule="evenodd" clip-rule="evenodd" d="M450.74 398.203C450.391 398.669 449.925 399.601 449.575 399.601C448.643 399.601 447.595 399.368 447.013 398.785C446.663 398.436 446.896 397.388 446.896 396.572C447.712 396.689 448.643 396.689 449.459 396.922C449.925 397.271 450.391 397.853 450.74 398.203C450.74 398.203 450.856 398.319 450.74 398.203Z" fill="#1D1D1F"/>
<path fill-rule="evenodd" clip-rule="evenodd" d="M485.099 430.116C484.75 428.835 484.284 427.67 483.935 426.389C484.633 426.273 485.798 425.923 485.798 426.04C486.148 427.205 486.38 428.486 486.73 429.767C486.148 429.767 485.682 429.883 485.099 430.116Z" fill="#1D1D1F"/>
<path fill-rule="evenodd" clip-rule="evenodd" d="M463.086 310.499C462.504 309.451 461.921 308.403 461.339 307.354C462.154 307.121 462.969 306.888 463.901 306.656C464.134 307.82 464.251 308.868 464.484 310.033C464.018 310.266 463.552 310.383 463.086 310.499Z" fill="#1D1D1F"/>
<path fill-rule="evenodd" clip-rule="evenodd" d="M477.063 297.571C476.597 298.619 476.248 299.784 475.549 300.599C475.199 300.948 474.035 300.482 473.219 300.366C473.103 300.133 473.103 299.784 472.986 299.551C474.035 298.735 475.083 297.804 476.248 296.988C476.481 297.105 476.83 297.338 477.063 297.571Z" fill="#1D1D1F"/>
<path fill-rule="evenodd" clip-rule="evenodd" d="M456.215 412.18C455.283 412.878 454.584 413.927 454.235 413.81C453.536 413.577 452.604 412.762 452.487 412.063C452.371 411.597 453.419 410.316 454.002 410.433C454.7 410.316 455.283 411.364 456.215 412.18Z" fill="#1D1D1F"/>
<path fill-rule="evenodd" clip-rule="evenodd" d="M464.018 298.503C462.737 298.968 461.573 299.434 460.291 299.9C460.058 299.201 459.942 298.386 459.709 297.687C460.99 297.687 462.388 297.687 463.669 297.687C463.786 297.92 463.902 298.153 464.018 298.503Z" fill="#1D1D1F"/>
<path fill-rule="evenodd" clip-rule="evenodd" d="M447.712 358.835C448.411 358.02 449.226 357.205 449.925 356.389C450.507 356.972 451.09 357.438 451.556 358.02C450.624 358.719 449.692 359.301 448.644 360C448.411 359.534 448.061 359.185 447.712 358.835Z" fill="#1D1D1F"/>
<path fill-rule="evenodd" clip-rule="evenodd" d="M596.456 225.737C596.107 227.251 595.991 228.416 595.641 229.697C594.826 228.766 593.894 227.717 592.38 225.97C594.127 225.854 595.408 225.737 596.456 225.737Z" fill="#1D1D1F"/>
<path fill-rule="evenodd" clip-rule="evenodd" d="M619.634 211.644C618.935 210.48 618.353 209.897 618.353 209.198C618.353 208.849 619.284 208.034 619.634 208.034C620.216 208.15 621.148 208.849 621.148 209.315C621.264 210.014 620.449 210.713 619.634 211.644Z" fill="#1D1D1F"/>
<path fill-rule="evenodd" clip-rule="evenodd" d="M466.697 365.008C463.668 363.494 464.484 361.514 464.484 359.884C464.717 359.767 465.066 359.767 465.299 359.651C465.765 361.165 466.114 362.679 466.697 365.008Z" fill="#1D1D1F"/>
<path fill-rule="evenodd" clip-rule="evenodd" d="M453.652 345.907C453.885 347.537 454.118 348.469 454.002 349.284C453.885 349.75 453.303 350.216 452.721 350.566C452.488 350.682 451.905 350.333 451.439 350.216C451.672 349.634 451.789 349.051 452.022 348.586C452.488 347.887 452.954 347.304 453.652 345.907Z" fill="#1D1D1F"/>
<path fill-rule="evenodd" clip-rule="evenodd" d="M467.628 403.794C467.978 404.725 468.327 405.657 468.56 406.589C468.56 406.706 467.745 407.055 467.279 407.288C466.93 406.356 466.464 405.308 466.114 404.376C466.697 404.143 467.163 404.027 467.628 403.794Z" fill="#1D1D1F"/>
<path fill-rule="evenodd" clip-rule="evenodd" d="M630.117 190.679C629.534 190.912 628.952 191.494 628.369 191.494C627.671 191.378 627.088 190.796 626.506 190.446C626.972 189.98 627.438 189.282 627.904 189.165C628.602 189.165 629.301 189.631 630 189.864C630.117 190.097 630.117 190.446 630.117 190.679Z" fill="#1D1D1F"/>
</g>
<defs>
<clipPath id="clip0">
<rect width="727" height="430" fill="white"/>
</clipPath>
</defs>
</svg>
