<svg width="2036" height="1073" viewBox="0 0 2036 1073" fill="none" xmlns="http://www.w3.org/2000/svg">
<g clip-path="url(#clip0)">
<rect x="217" width="1618" height="992.934" rx="12" fill="#F0F2F4"/>
<g clip-path="url(#clip1)">
<path d="M196 15.2885C196 6.2926 203.338 -1 212.39 -1H1818.61C1827.67 -1 1835 6.2926 1835 15.2885V76H196V15.2885Z" fill="#007AFF"/>
<path d="M315.551 45.3078C320.425 45.3078 324.377 41.3816 324.377 36.5385C324.377 31.6954 320.425 27.7693 315.551 27.7693C310.677 27.7693 306.726 31.6954 306.726 36.5385C306.726 41.3816 310.677 45.3078 315.551 45.3078Z" fill="#34C759"/>
<path d="M286.133 45.3078C291.007 45.3078 294.958 41.3816 294.958 36.5385C294.958 31.6954 291.007 27.7693 286.133 27.7693C281.258 27.7693 277.307 31.6954 277.307 36.5385C277.307 41.3816 281.258 45.3078 286.133 45.3078Z" fill="#FFD60A"/>
<path d="M256.715 45.3078C261.589 45.3078 265.54 41.3816 265.54 36.5385C265.54 31.6954 261.589 27.7693 256.715 27.7693C251.84 27.7693 247.889 31.6954 247.889 36.5385C247.889 41.3816 251.84 45.3078 256.715 45.3078Z" fill="#FF375F"/>
<path d="M1742.33 48.2534C1743.05 48.2534 1743.64 47.6597 1743.64 46.9859V39.8381H1750.66C1751.35 39.8381 1751.95 39.2558 1751.95 38.5365C1751.95 37.8285 1751.35 37.2348 1750.66 37.2348H1743.64V30.0869C1743.64 29.4019 1743.05 28.8196 1742.33 28.8196C1741.63 28.8196 1741.02 29.4019 1741.02 30.0869V37.2348H1734.01C1733.33 37.2348 1732.71 37.8285 1732.71 38.5365C1732.71 39.2558 1733.33 39.8381 1734.01 39.8381H1741.02V46.9859C1741.02 47.6597 1741.63 48.2534 1742.33 48.2534Z" fill="#F0F2F4"/>
<path d="M1786.59 45.3648H1788.53V47.089C1788.53 49.5324 1789.84 50.8112 1792.31 50.8112H1803.98C1806.45 50.8112 1807.76 49.5324 1807.76 47.089V35.4309C1807.76 32.9873 1806.45 31.7085 1803.98 31.7085H1802.02V29.9957C1802.02 27.5523 1800.73 26.2734 1798.24 26.2734H1786.59C1784.09 26.2734 1782.81 27.5523 1782.81 29.9957V41.6424C1782.81 44.0973 1784.09 45.3648 1786.59 45.3648ZM1786.74 43.0925C1785.68 43.0925 1785.09 42.5445 1785.09 41.4369V30.2013C1785.09 29.0936 1785.68 28.5571 1786.74 28.5571H1798.09C1799.14 28.5571 1799.73 29.0936 1799.73 30.2013V31.7085H1792.31C1789.84 31.7085 1788.53 32.9873 1788.53 35.4309V43.0925H1786.74ZM1792.48 48.5276C1791.42 48.5276 1790.84 47.9795 1790.84 46.8833V35.6363C1790.84 34.5402 1791.42 33.9921 1792.48 33.9921H1803.82C1804.88 33.9921 1805.46 34.5402 1805.46 35.6363V46.8833C1805.46 47.9795 1804.88 48.5276 1803.82 48.5276H1792.48Z" fill="#F0F2F4"/>
<path d="M371.904 47.7512H391.567C394.061 47.7512 395.359 46.4724 395.359 44.0288V30.1328C395.359 27.6892 394.061 26.4104 391.567 26.4104H371.904C369.423 26.4104 368.124 27.6778 368.124 30.1328V44.0288C368.124 46.4724 369.423 47.7512 371.904 47.7512ZM372.054 45.4789C370.997 45.4789 370.411 44.9309 370.411 43.8233V30.3383C370.411 29.2307 370.997 28.6827 372.054 28.6827H377.295V45.4789H372.054ZM391.417 28.6827C392.475 28.6827 393.06 29.2307 393.06 30.3383V43.8233C393.06 44.9309 392.475 45.4789 391.417 45.4789H379.466V28.6827H391.417ZM375.042 32.8618C375.457 32.8618 375.801 32.5078 375.801 32.1196C375.801 31.7313 375.457 31.3888 375.042 31.3888H372.687C372.272 31.3888 371.928 31.7313 371.928 32.1196C371.928 32.5078 372.272 32.8618 372.687 32.8618H375.042ZM375.042 35.9332C375.457 35.9332 375.801 35.5908 375.801 35.191C375.801 34.8028 375.457 34.4603 375.042 34.4603H372.687C372.272 34.4603 371.928 34.8028 371.928 35.191C371.928 35.5908 372.272 35.9332 372.687 35.9332H375.042ZM375.042 38.9934C375.457 38.9934 375.801 38.6622 375.801 38.2626C375.801 37.8744 375.457 37.5432 375.042 37.5432H372.687C372.272 37.5432 371.928 37.8744 371.928 38.2626C371.928 38.6622 372.272 38.9934 372.687 38.9934H375.042Z" fill="#F0F2F4"/>
<path d="M1461.39 19H643.564C640.314 19 637.68 21.6174 637.68 24.8462V51.1538C637.68 54.3826 640.314 57 643.564 57H1461.39C1464.64 57 1467.27 54.3826 1467.27 51.1538V24.8462C1467.27 21.6174 1464.64 19 1461.39 19Z" fill="#F0F2F4"/>
<path d="M912.652 43.8432C914.136 43.8432 915.528 43.3981 916.685 42.6373L920.774 46.7101C921.045 46.9698 921.391 47.0997 921.764 47.0997C922.539 47.0997 923.109 46.4967 923.109 45.7359C923.109 45.3834 922.988 45.0401 922.726 44.7804L918.665 40.7261C919.505 39.5479 920.001 38.1006 920.001 36.542C920.001 32.5249 916.694 29.2407 912.652 29.2407C908.619 29.2407 905.303 32.5249 905.303 36.542C905.303 40.5592 908.608 43.8432 912.652 43.8432ZM912.652 41.895C909.692 41.895 907.264 39.4829 907.264 36.542C907.264 33.6104 909.692 31.189 912.652 31.189C915.611 31.189 918.04 33.6104 918.04 36.542C918.04 39.4829 915.611 41.895 912.652 41.895Z" fill="#A7B2BE"/>
<path d="M937.995 45.3277C941.002 45.3277 942.973 43.7691 942.973 41.2642V41.255C942.973 39.3252 941.861 38.2027 939.052 37.5811L937.557 37.2472C935.727 36.8482 934.989 36.1246 934.989 35.0576V35.0484C934.989 33.6475 936.288 32.8589 937.968 32.8497C939.724 32.8403 940.843 33.7124 941.03 34.8907L941.049 35.0113H942.73L942.72 34.8814C942.58 32.8868 940.703 31.3097 938.015 31.3097C935.233 31.3097 933.281 32.8775 933.271 35.0948V35.1041C933.271 37.043 934.439 38.277 937.136 38.8706L938.631 39.1954C940.48 39.6036 941.255 40.3643 941.255 41.4776V41.4868C941.255 42.8506 939.919 43.7877 938.09 43.7877C936.148 43.7877 934.746 42.9434 934.626 41.6075L934.617 41.5054H932.936L932.944 41.6075C933.141 43.7877 935.046 45.3277 937.995 45.3277ZM949.676 45.1886C952.049 45.1886 953.486 43.8526 953.831 42.498L953.85 42.4239H952.225L952.188 42.5074C951.918 43.1104 951.076 43.7506 949.714 43.7506C947.921 43.7506 946.772 42.5445 946.725 40.4756H953.971V39.8448C953.971 36.8575 952.309 34.835 949.574 34.835C946.839 34.835 945.065 36.9502 945.065 40.0396V40.0489C945.065 43.1847 946.8 45.1886 949.676 45.1886ZM949.564 36.273C951.048 36.273 952.15 37.21 952.319 39.186H946.755C946.931 37.2843 948.071 36.273 949.564 36.273ZM959.256 45.1886C960.609 45.1886 961.665 44.6041 962.299 43.5372H962.449V45.0123H964.073V38.1656C964.073 36.0874 962.701 34.835 960.246 34.835C958.098 34.835 956.567 35.8926 956.305 37.4605L956.296 37.5161H957.92L957.931 37.4883C958.191 36.709 958.985 36.2637 960.19 36.2637C961.693 36.2637 962.449 36.9316 962.449 38.1656V39.0748L959.563 39.2511C957.22 39.3902 955.895 40.42 955.895 42.2012V42.2198C955.895 44.0381 957.342 45.1886 959.256 45.1886ZM957.557 42.1826V42.1641C957.557 41.1714 958.229 40.6334 959.761 40.5406L962.449 40.3735V41.2828C962.449 42.7114 961.245 43.7877 959.593 43.7877C958.425 43.7877 957.557 43.1939 957.557 42.1826ZM967.043 45.0123H968.667V38.815C968.667 37.3492 969.769 36.3751 971.319 36.3751C971.673 36.3751 971.982 36.4122 972.318 36.4679V34.8999C972.159 34.8722 971.815 34.835 971.506 34.835C970.142 34.835 969.199 35.4473 968.817 36.4956H968.667V35.0113H967.043V45.0123ZM978.163 45.1886C980.581 45.1886 981.934 43.8989 982.346 42.0898L982.364 41.9878L980.759 41.9972L980.74 42.0527C980.366 43.1661 979.507 43.7598 978.154 43.7598C976.361 43.7598 975.204 42.2847 975.204 39.9839V39.9653C975.204 37.7109 976.342 36.2637 978.154 36.2637C979.602 36.2637 980.497 37.0615 980.749 38.045L980.759 38.0728H982.374L982.364 38.0171C982.065 36.2359 980.6 34.835 978.154 34.835C975.334 34.835 973.541 36.8575 973.541 39.9653V39.9839C973.541 43.1568 975.343 45.1886 978.163 45.1886ZM984.84 45.0123H986.463V39.0932C986.463 37.3398 987.481 36.2637 989.088 36.2637C990.694 36.2637 991.439 37.1264 991.439 38.9263V45.0123H993.065V38.5367C993.065 36.1617 991.804 34.835 989.545 34.835C988.061 34.835 987.116 35.4566 986.613 36.5142H986.463V31.0406H984.84V45.0123ZM1005.54 45.1886C1008.4 45.1886 1010.18 43.2218 1010.18 40.021V40.0025C1010.18 36.7925 1008.4 34.835 1005.54 34.835C1002.67 34.835 1000.9 36.7925 1000.9 40.0025V40.021C1000.9 43.2218 1002.67 45.1886 1005.54 45.1886ZM1005.54 43.7598C1003.63 43.7598 1002.56 42.3775 1002.56 40.021V40.0025C1002.56 37.6368 1003.63 36.2637 1005.54 36.2637C1007.44 36.2637 1008.52 37.6368 1008.52 40.0025V40.021C1008.52 42.3775 1007.44 43.7598 1005.54 43.7598ZM1012.7 45.0123H1014.32V38.815C1014.32 37.3492 1015.43 36.3751 1016.98 36.3751C1017.33 36.3751 1017.64 36.4122 1017.97 36.4679V34.8999C1017.82 34.8722 1017.47 34.835 1017.16 34.835C1015.8 34.835 1014.86 35.4473 1014.47 36.4956H1014.32V35.0113H1012.7V45.0123ZM1029.49 45.1886C1031.86 45.1886 1033.3 43.8526 1033.64 42.498L1033.66 42.4239H1032.04L1032 42.5074C1031.73 43.1104 1030.89 43.7506 1029.52 43.7506C1027.73 43.7506 1026.58 42.5445 1026.54 40.4756H1033.78V39.8448C1033.78 36.8575 1032.12 34.835 1029.38 34.835C1026.65 34.835 1024.87 36.9502 1024.87 40.0396V40.0489C1024.87 43.1847 1026.61 45.1886 1029.49 45.1886ZM1029.38 36.273C1030.86 36.273 1031.96 37.21 1032.13 39.186H1026.56C1026.74 37.2843 1027.88 36.273 1029.38 36.273ZM1036.3 45.0123H1037.93V39.0932C1037.93 37.3398 1038.95 36.2637 1040.55 36.2637C1042.16 36.2637 1042.91 37.1264 1042.91 38.9263V45.0123H1044.53V38.5367C1044.53 36.1617 1043.27 34.835 1041.01 34.835C1039.52 34.835 1038.58 35.4566 1038.08 36.5142H1037.93V35.0113H1036.3V45.0123ZM1051.05 45.0864C1051.36 45.0864 1051.67 45.0493 1051.99 44.9938V43.6206C1051.69 43.6484 1051.53 43.6578 1051.24 43.6578C1050.2 43.6578 1049.79 43.1847 1049.79 42.0064V36.3472H1051.99V35.0113H1049.79V32.4229H1048.1V35.0113H1046.52V36.3472H1048.1V42.4146C1048.1 44.3257 1048.97 45.0864 1051.05 45.0864ZM1058.38 45.1886C1060.75 45.1886 1062.19 43.8526 1062.53 42.498L1062.55 42.4239H1060.93L1060.89 42.5074C1060.62 43.1104 1059.78 43.7506 1058.41 43.7506C1056.62 43.7506 1055.47 42.5445 1055.43 40.4756H1062.67V39.8448C1062.67 36.8575 1061.01 34.835 1058.27 34.835C1055.54 34.835 1053.76 36.9502 1053.76 40.0396V40.0489C1053.76 43.1847 1055.5 45.1886 1058.38 45.1886ZM1058.26 36.273C1059.75 36.273 1060.85 37.21 1061.02 39.186H1055.45C1055.63 37.2843 1056.77 36.273 1058.26 36.273ZM1065.19 45.0123H1066.82V38.815C1066.82 37.3492 1067.92 36.3751 1069.47 36.3751C1069.82 36.3751 1070.13 36.4122 1070.47 36.4679V34.8999C1070.31 34.8722 1069.96 34.835 1069.66 34.835C1068.29 34.835 1067.35 35.4473 1066.97 36.4956H1066.82V35.0113H1065.19V45.0123ZM1079.81 45.0123H1081.44L1083.68 37.2749H1083.83L1086.08 45.0123H1087.71L1090.53 35.0113H1088.92L1086.94 43.0084H1086.79L1084.54 35.0113H1083L1080.75 43.0084H1080.6L1078.62 35.0113H1076.99L1079.81 45.0123ZM1096.41 45.1886C1098.78 45.1886 1100.22 43.8526 1100.57 42.498L1100.59 42.4239H1098.96L1098.93 42.5074C1098.66 43.1104 1097.81 43.7506 1096.45 43.7506C1094.66 43.7506 1093.51 42.5445 1093.46 40.4756H1100.71V39.8448C1100.71 36.8575 1099.05 34.835 1096.31 34.835C1093.57 34.835 1091.8 36.9502 1091.8 40.0396V40.0489C1091.8 43.1847 1093.54 45.1886 1096.41 45.1886ZM1096.3 36.273C1097.79 36.273 1098.89 37.21 1099.06 39.186H1093.49C1093.67 37.2843 1094.81 36.273 1096.3 36.273ZM1108.23 45.1886C1110.78 45.1886 1112.45 43.1382 1112.45 40.021V40.0025C1112.45 36.8667 1110.79 34.835 1108.23 34.835C1106.85 34.835 1105.65 35.5215 1105.1 36.5885H1104.95V31.0406H1103.32V45.0123H1104.95V43.4166H1105.1C1105.71 44.5299 1106.83 45.1886 1108.23 45.1886ZM1107.86 43.7598C1106.03 43.7598 1104.91 42.3311 1104.91 40.021V40.0025C1104.91 37.6925 1106.03 36.2637 1107.86 36.2637C1109.7 36.2637 1110.79 37.6739 1110.79 40.0025V40.021C1110.79 42.3497 1109.7 43.7598 1107.86 43.7598ZM1118.43 45.1886C1120.72 45.1886 1122.46 43.9546 1122.46 42.1734V42.1549C1122.46 40.7261 1121.55 39.9096 1119.65 39.4551L1118.1 39.084C1116.92 38.7964 1116.41 38.3696 1116.41 37.6925V37.6739C1116.41 36.7925 1117.29 36.1802 1118.49 36.1802C1119.7 36.1802 1120.48 36.7276 1120.7 37.5161H1122.3C1122.07 35.8834 1120.61 34.835 1118.5 34.835C1116.36 34.835 1114.75 36.0874 1114.75 37.748V37.7574C1114.75 39.1954 1115.6 40.0118 1117.49 40.4571L1119.05 40.8282C1120.29 41.1251 1120.8 41.5982 1120.8 42.2754V42.294C1120.8 43.2032 1119.84 43.8432 1118.49 43.8432C1117.2 43.8432 1116.39 43.2959 1116.12 42.4609H1114.46C1114.65 44.1123 1116.19 45.1886 1118.43 45.1886ZM1125.84 33.0816C1126.46 33.0816 1126.96 32.5806 1126.96 31.9682C1126.96 31.356 1126.46 30.855 1125.84 30.855C1125.23 30.855 1124.72 31.356 1124.72 31.9682C1124.72 32.5806 1125.23 33.0816 1125.84 33.0816ZM1125.02 45.0123H1126.65V35.0113H1125.02V45.0123ZM1133.29 45.0864C1133.6 45.0864 1133.91 45.0493 1134.23 44.9938V43.6206C1133.93 43.6484 1133.77 43.6578 1133.48 43.6578C1132.43 43.6578 1132.02 43.1847 1132.02 42.0064V36.3472H1134.23V35.0113H1132.02V32.4229H1130.34V35.0113H1128.76V36.3472H1130.34V42.4146C1130.34 44.3257 1131.21 45.0864 1133.29 45.0864ZM1140.61 45.1886C1142.99 45.1886 1144.42 43.8526 1144.77 42.498L1144.79 42.4239H1143.16L1143.13 42.5074C1142.85 43.1104 1142.01 43.7506 1140.65 43.7506C1138.86 43.7506 1137.71 42.5445 1137.66 40.4756H1144.91V39.8448C1144.91 36.8575 1143.25 34.835 1140.51 34.835C1137.78 34.835 1136 36.9502 1136 40.0396V40.0489C1136 43.1847 1137.74 45.1886 1140.61 45.1886ZM1140.5 36.273C1141.99 36.273 1143.09 37.21 1143.26 39.186H1137.69C1137.87 37.2843 1139.01 36.273 1140.5 36.273ZM1152.83 45.0123H1154.45V39.0932C1154.45 37.3398 1155.47 36.2637 1157.08 36.2637C1158.68 36.2637 1159.43 37.1264 1159.43 38.9263V45.0123H1161.05V38.5367C1161.05 36.1617 1159.79 34.835 1157.53 34.835C1156.05 34.835 1155.1 35.4566 1154.6 36.5142H1154.45V35.0113H1152.83V45.0123ZM1166.76 45.1886C1168.11 45.1886 1169.17 44.6041 1169.8 43.5372H1169.95V45.0123H1171.58V38.1656C1171.58 36.0874 1170.2 34.835 1167.75 34.835C1165.6 34.835 1164.07 35.8926 1163.81 37.4605L1163.8 37.5161H1165.42L1165.43 37.4883C1165.69 36.709 1166.49 36.2637 1167.69 36.2637C1169.19 36.2637 1169.95 36.9316 1169.95 38.1656V39.0748L1167.07 39.2511C1164.72 39.3902 1163.4 40.42 1163.4 42.2012V42.2198C1163.4 44.0381 1164.84 45.1886 1166.76 45.1886ZM1165.06 42.1826V42.1641C1165.06 41.1714 1165.73 40.6334 1167.26 40.5406L1169.95 40.3735V41.2828C1169.95 42.7114 1168.75 43.7877 1167.09 43.7877C1165.93 43.7877 1165.06 43.1939 1165.06 42.1826ZM1174.54 45.0123H1176.17V38.815C1176.17 37.4049 1177.17 36.2637 1178.48 36.2637C1179.75 36.2637 1180.58 37.0338 1180.58 38.2213V45.0123H1182.2V38.583C1182.2 37.3121 1183.13 36.2637 1184.53 36.2637C1185.95 36.2637 1186.63 36.9967 1186.63 38.4718V45.0123H1188.25V38.1006C1188.25 36.004 1187.1 34.835 1185.05 34.835C1183.66 34.835 1182.51 35.5307 1181.97 36.5885H1181.82C1181.35 35.5493 1180.4 34.835 1179.04 34.835C1177.72 34.835 1176.77 35.4566 1176.32 36.5328H1176.17V35.0113H1174.54V45.0123ZM1195.29 45.1886C1197.66 45.1886 1199.1 43.8526 1199.45 42.498L1199.46 42.4239H1197.84L1197.8 42.5074C1197.53 43.1104 1196.69 43.7506 1195.33 43.7506C1193.53 43.7506 1192.39 42.5445 1192.34 40.4756H1199.59V39.8448C1199.59 36.8575 1197.92 34.835 1195.19 34.835C1192.45 34.835 1190.68 36.9502 1190.68 40.0396V40.0489C1190.68 43.1847 1192.42 45.1886 1195.29 45.1886ZM1195.18 36.273C1196.66 36.273 1197.77 37.21 1197.93 39.186H1192.37C1192.55 37.2843 1193.68 36.273 1195.18 36.273Z" fill="#A7B2BE"/>
<path d="M615.616 48.9615C615.824 48.9615 616.134 48.8929 616.421 48.7332C623.04 45.1591 625.338 43.5035 625.338 39.3473V30.7264C625.338 29.3562 624.798 28.8653 623.649 28.3744C622.374 27.8377 618.087 26.3532 616.834 25.9308C616.455 25.8051 616.008 25.7253 615.616 25.7253C615.225 25.7253 614.778 25.8281 614.398 25.9308C613.145 26.2848 608.859 27.8491 607.584 28.3744C606.435 28.8539 605.895 29.3562 605.895 30.7264V39.3473C605.895 43.5035 608.204 45.1363 614.8 48.7332C615.099 48.8929 615.409 48.9615 615.616 48.9615ZM616.237 28.0318C617.742 28.6255 621.017 29.7788 622.741 30.384C623.062 30.5095 623.143 30.6808 623.143 31.0918V38.9248C623.143 42.2704 621.454 43.1725 616.271 46.2782C615.95 46.4723 615.788 46.5409 615.628 46.5409V27.9062C615.788 27.9062 615.96 27.9404 616.237 28.0318Z" fill="#F0F2F4"/>
<path d="M1447.82 37.235C1448.15 37.235 1448.42 37.1321 1448.62 36.9152L1453.33 32.1994C1453.59 31.9483 1453.7 31.6743 1453.7 31.3545C1453.7 31.0463 1453.58 30.7494 1453.33 30.521L1448.62 25.7596C1448.42 25.5313 1448.15 25.417 1447.82 25.417C1447.2 25.417 1446.7 25.9309 1446.7 26.5589C1446.7 26.8671 1446.82 27.1184 1447.01 27.3353L1449.76 30.0071C1449.22 29.9273 1448.67 29.8816 1448.12 29.8816C1442.43 29.8816 1437.88 34.4033 1437.88 40.0667C1437.88 45.7302 1442.46 50.2859 1448.15 50.2859C1453.85 50.2859 1458.42 45.7302 1458.42 40.0667C1458.42 39.3816 1457.94 38.8906 1457.25 38.8906C1456.58 38.8906 1456.14 39.3816 1456.14 40.0667C1456.14 44.4741 1452.59 48.0138 1448.15 48.0138C1443.73 48.0138 1440.16 44.4741 1440.16 40.0667C1440.16 35.625 1443.69 32.1082 1448.12 32.1082C1448.86 32.1082 1449.55 32.1652 1450.16 32.268L1447.02 35.3509C1446.82 35.5564 1446.7 35.8077 1446.7 36.1159C1446.7 36.7439 1447.2 37.235 1447.82 37.235Z" fill="#A7B2BE"/>
<path d="M1689.39 41.5283C1689.98 41.5283 1690.45 41.0486 1690.45 40.4778V28.9909L1690.38 27.3011L1691.09 28.1346L1692.69 29.836C1692.88 30.0415 1693.13 30.1443 1693.4 30.1443C1693.93 30.1443 1694.37 29.7675 1694.37 29.2308C1694.37 28.9454 1694.25 28.7399 1694.06 28.5456L1690.2 24.8576C1689.94 24.5835 1689.67 24.4922 1689.39 24.4922C1689.1 24.4922 1688.85 24.5835 1688.57 24.8576L1684.71 28.5456C1684.52 28.7399 1684.4 28.9454 1684.4 29.2308C1684.4 29.7675 1684.83 30.1443 1685.36 30.1443C1685.62 30.1443 1685.9 30.0415 1686.08 29.836L1687.69 28.1346L1688.41 27.2897L1688.31 28.9909V40.4778C1688.31 41.0486 1688.79 41.5283 1689.39 41.5283ZM1682.76 50.6514H1696C1698.5 50.6514 1699.78 49.3725 1699.78 46.9291V35.705C1699.78 33.2614 1698.5 31.9826 1696 31.9826H1692.9V34.2548H1695.85C1696.9 34.2548 1697.5 34.8029 1697.5 35.8991V46.7237C1697.5 47.8198 1696.9 48.3679 1695.85 48.3679H1682.91C1681.85 48.3679 1681.27 47.8198 1681.27 46.7237V35.8991C1681.27 34.8029 1681.85 34.2548 1682.91 34.2548H1685.9V31.9826H1682.76C1680.28 31.9826 1678.98 33.25 1678.98 35.705V46.9291C1678.98 49.3725 1680.28 50.6514 1682.76 50.6514Z" fill="#F0F2F4"/>
<path d="M444.117 46.8035L435.177 38.1142C434.867 37.806 434.707 37.4634 434.707 37.0638C434.707 36.6641 434.867 36.2987 435.189 36.0019L444.129 27.324C444.382 27.0727 444.704 26.9358 445.072 26.9358C445.841 26.9358 446.439 27.5295 446.439 28.2832C446.439 28.6486 446.29 29.0026 446.025 29.265L437.981 37.0524L446.025 44.8624C446.29 45.1251 446.439 45.4677 446.439 45.8444C446.439 46.598 445.841 47.1918 445.072 47.1918C444.704 47.1918 444.382 47.0547 444.117 46.8035Z" fill="#F0F2F4"/>
<path d="M480.201 47.1802C480.579 47.1802 480.89 47.0433 481.155 46.792L490.095 38.1141C490.405 37.7945 490.565 37.4633 490.565 37.0523C490.565 36.6526 490.417 36.2986 490.095 36.0018L481.155 27.3125C480.89 27.0613 480.579 26.9243 480.201 26.9243C479.431 26.9243 478.833 27.518 478.833 28.2717C478.833 28.6371 478.994 28.9909 479.247 29.2536L487.303 37.0637L479.247 44.851C478.982 45.125 478.833 45.4562 478.833 45.833C478.833 46.5865 479.431 47.1802 480.201 47.1802Z" fill="#F0F2F4"/>
</g>
<rect x="257" y="256" width="1537" height="100" rx="22" fill="white"/>
<rect x="257" y="376" width="1537" height="100" rx="22" fill="white"/>
<rect x="257" y="496" width="1537" height="100" rx="20" fill="white"/>
<rect x="257" y="616" width="1537" height="100" rx="20" fill="white"/>
<rect x="257" y="736" width="1537" height="100" rx="20" fill="white"/>
<rect x="257" y="856" width="1537" height="100" rx="20" fill="white"/>
<rect x="297" y="316" width="305" height="20" rx="10" fill="url(#paint0_linear)"/>
<rect x="297" y="316" width="40" height="20" rx="10" fill="#34C759"/>
<rect x="297" y="274" width="135" height="20" rx="10" fill="#F0F2F4"/>
<rect x="511" y="676" width="305" height="20" rx="10" fill="url(#paint1_linear)"/>
<rect x="511" y="634" width="135" height="20" rx="10" fill="#F0F2F4"/>
<rect x="510.804" y="436" width="305" height="20" rx="10" fill="url(#paint2_linear)"/>
<rect x="510.804" y="436" width="40" height="20" rx="10" fill="#0A84FF"/>
<rect x="510.804" y="394" width="135" height="20" rx="10" fill="#F0F2F4"/>
<rect x="1152" y="676" width="622" height="20" rx="10" fill="url(#paint3_linear)"/>
<rect x="1152" y="676" width="40" height="20" rx="10" fill="#34C759"/>
<rect x="1152" y="634" width="135" height="20" rx="10" fill="#F0F2F4"/>
<rect x="938" y="796" width="305" height="20" rx="10" fill="url(#paint4_linear)"/>
<rect x="938" y="796" width="40" height="20" rx="10" fill="#FFD60A"/>
<rect x="938" y="754" width="135" height="20" rx="10" fill="#F0F2F4"/>
<rect x="724.345" y="916" width="563" height="20" rx="10" fill="url(#paint5_linear)"/>
<rect x="724.345" y="916" width="40" height="20" rx="10" fill="#0A84FF"/>
<rect x="724.345" y="874" width="135" height="20" rx="10" fill="#F0F2F4"/>
<rect x="724" y="556" width="494" height="20" rx="10" fill="url(#paint6_linear)"/>
<rect x="724" y="556" width="40" height="20" rx="10" fill="#FFD60A"/>
<rect x="724" y="514" width="135" height="20" rx="10" fill="#F0F2F4"/>
<rect x="257" y="116" width="1538" height="120" rx="22" fill="white"/>
<rect x="1695" y="146" width="60" height="60" rx="12" fill="#F0F2F4"/>
<path fill-rule="evenodd" clip-rule="evenodd" d="M1724.97 177.095C1731.58 177.095 1736.94 181.358 1736.94 183.548C1736.94 185.737 1731.58 190 1724.97 190C1718.36 190 1713 185.737 1713 183.548C1713 181.358 1718.36 177.095 1724.97 177.095ZM1724.97 162C1728.54 162 1731.43 164.89 1731.43 168.456C1731.43 172.021 1728.54 174.912 1724.97 174.912C1721.4 174.912 1718.51 172.021 1718.51 168.456C1718.51 164.89 1721.4 162 1724.97 162Z" fill="#E0E4E7"/>
<rect x="297" y="146" width="620" height="60" rx="12" fill="#F0F2F4"/>
<g opacity="0.9">
<rect x="357" y="166" width="120" height="20" rx="10" fill="#DEE2E6"/>
</g>
<path fill-rule="evenodd" clip-rule="evenodd" d="M327 183.807L322.597 185.844C321.721 186.249 320.695 185.838 320.306 184.924C320.183 184.635 320.134 184.317 320.166 184.003L320.664 179.01L317.445 175.276C316.804 174.532 316.863 173.388 317.576 172.72C317.802 172.509 318.077 172.363 318.374 172.297L323.084 171.248L325.497 166.903C325.977 166.038 327.04 165.743 327.87 166.244C328.132 166.402 328.351 166.63 328.503 166.903L330.916 171.248L335.626 172.297C336.564 172.506 337.162 173.467 336.961 174.445C336.898 174.754 336.758 175.041 336.555 175.276L333.336 179.01L333.834 184.003C333.933 184.997 333.24 185.886 332.287 185.99C331.985 186.023 331.68 185.972 331.402 185.844L327 183.807Z" fill="#E0E4E7"/>
</g>
<g filter="url(#filter0_d)">
<rect x="10" y="556" width="531" height="497" rx="22" fill="#F0F2F4"/>
<circle cx="494" cy="980" r="7" fill="black" fill-opacity="0.05"/>
<rect x="470" y="911" width="31" height="12" rx="6" fill="#A7B2BE" fill-opacity="0.25"/>
<rect x="50" y="911" width="31" height="12" rx="6" fill="#A7B2BE" fill-opacity="0.25"/>
<rect x="110" y="911" width="31" height="12" rx="6" fill="#A7B2BE" fill-opacity="0.25"/>
<rect x="170" y="911" width="31" height="12" rx="6" fill="#A7B2BE" fill-opacity="0.25"/>
<rect x="230" y="911" width="31" height="12" rx="6" fill="#A7B2BE" fill-opacity="0.25"/>
<rect x="290" y="911" width="31" height="12" rx="6" fill="#A7B2BE" fill-opacity="0.25"/>
<rect x="350" y="911" width="31" height="12" rx="6" fill="#A7B2BE" fill-opacity="0.25"/>
<rect x="410" y="911" width="31" height="12" rx="6" fill="#A7B2BE" fill-opacity="0.25"/>
<rect x="55" y="883" width="225" height="22" rx="11" transform="rotate(-90 55 883)" fill="black" fill-opacity="0.05"/>
<path d="M66 882C60.4772 882 56 877.523 56 872L56 729C56 723.477 60.4772 719 66 719V719C71.5228 719 76 723.477 76 729L76 872C76 877.523 71.5228 882 66 882V882Z" fill="#0A84FF"/>
<g filter="url(#filter1_d)">
<rect x="56" y="739" width="20" height="20" rx="10" transform="rotate(-90 56 739)" fill="white"/>
</g>
<rect x="115" y="883" width="225" height="22" rx="11" transform="rotate(-90 115 883)" fill="black" fill-opacity="0.05"/>
<path d="M126 882C120.477 882 116 877.523 116 872L116 697C116 691.477 120.477 687 126 687V687C131.523 687 136 691.477 136 697V872C136 877.523 131.523 882 126 882V882Z" fill="#0A84FF"/>
<g filter="url(#filter2_d)">
<rect x="116" y="707" width="20" height="20" rx="10" transform="rotate(-90 116 707)" fill="white"/>
</g>
<rect x="175" y="883" width="225" height="22" rx="11" transform="rotate(-90 175 883)" fill="black" fill-opacity="0.05"/>
<path d="M186 882C180.477 882 176 877.523 176 872V752C176 746.477 180.477 742 186 742V742C191.523 742 196 746.477 196 752V872C196 877.523 191.523 882 186 882V882Z" fill="#0A84FF"/>
<g filter="url(#filter3_d)">
<rect x="176" y="762" width="20" height="20" rx="10" transform="rotate(-90 176 762)" fill="white"/>
</g>
<rect x="235" y="883" width="225" height="22" rx="11" transform="rotate(-90 235 883)" fill="black" fill-opacity="0.05"/>
<path d="M246 882C240.477 882 236 877.523 236 872V722C236 716.477 240.477 712 246 712V712C251.523 712 256 716.477 256 722V872C256 877.523 251.523 882 246 882V882Z" fill="#0A84FF"/>
<g filter="url(#filter4_d)">
<rect x="236" y="732" width="20" height="20" rx="10" transform="rotate(-90 236 732)" fill="white"/>
</g>
<rect x="295" y="883" width="225" height="22" rx="11" transform="rotate(-90 295 883)" fill="black" fill-opacity="0.05"/>
<path d="M306 882.25C300.477 882.25 296 877.773 296 872.25V779.25C296 773.727 300.477 769.25 306 769.25V769.25C311.523 769.25 316 773.727 316 779.25V872.25C316 877.773 311.523 882.25 306 882.25V882.25Z" fill="#0A84FF"/>
<g filter="url(#filter5_d)">
<rect x="296" y="789.25" width="20" height="20" rx="10" transform="rotate(-90 296 789.25)" fill="white"/>
</g>
<rect x="355" y="883" width="225" height="22" rx="11" transform="rotate(-90 355 883)" fill="black" fill-opacity="0.05"/>
<path d="M366 882C360.477 882 356 877.523 356 872V702C356 696.477 360.477 692 366 692V692C371.523 692 376 696.477 376 702V872C376 877.523 371.523 882 366 882V882Z" fill="#0A84FF"/>
<g filter="url(#filter6_d)">
<rect x="356" y="712" width="20" height="20" rx="10" transform="rotate(-90 356 712)" fill="white"/>
</g>
<rect x="415" y="883" width="225" height="22" rx="11" transform="rotate(-90 415 883)" fill="black" fill-opacity="0.05"/>
<path d="M426 882C420.477 882 416 877.523 416 872V745C416 739.477 420.477 735 426 735V735C431.523 735 436 739.477 436 745V872C436 877.523 431.523 882 426 882V882Z" fill="#0A84FF"/>
<g filter="url(#filter7_d)">
<rect x="416" y="755" width="20" height="20" rx="10" transform="rotate(-90 416 755)" fill="white"/>
</g>
<rect x="475" y="883" width="225" height="22" rx="11" transform="rotate(-90 475 883)" fill="black" fill-opacity="0.05"/>
<path d="M486 882.25C480.477 882.25 476 877.773 476 872.25V779.25C476 773.727 480.477 769.25 486 769.25V769.25C491.523 769.25 496 773.727 496 779.25V872.25C496 877.773 491.523 882.25 486 882.25V882.25Z" fill="#0A84FF"/>
<g filter="url(#filter8_d)">
<rect x="476" y="789.25" width="20" height="20" rx="10" transform="rotate(-90 476 789.25)" fill="white"/>
</g>
<rect x="50" y="596" width="60" height="12" rx="6" fill="#A7B2BE" fill-opacity="0.29"/>
<path fill-rule="evenodd" clip-rule="evenodd" d="M496 596C498.761 596 501 598.239 501 601C501 603.761 498.761 606 496 606C493.239 606 491 603.761 491 601C491 598.239 493.239 596 496 596ZM481 596C483.761 596 486 598.239 486 601C486 603.761 483.761 606 481 606C478.239 606 476 603.761 476 601C476 598.239 478.239 596 481 596ZM466 596C468.761 596 471 598.239 471 601C471 603.761 468.761 606 466 606C463.239 606 461 603.761 461 601C461 598.239 463.239 596 466 596Z" fill="#A7B2BE" fill-opacity="0.25"/>
<rect x="50" y="1001" width="221" height="12" rx="6" fill="#A7B2BE" fill-opacity="0.25"/>
<rect x="50" y="973" width="276" height="12" rx="6" fill="#A7B2BE" fill-opacity="0.29"/>
<g filter="url(#filter9_d)">
<circle cx="494" cy="1006" r="7" fill="#0A84FF"/>
<circle cx="494" cy="1006" r="3" fill="white"/>
</g>
</g>
<g filter="url(#filter10_d)">
<rect x="1511" y="316" width="500" height="458" rx="22" fill="#F0F2F4"/>
<rect x="1551" y="356" width="420" height="246" rx="20" fill="white"/>
<path fill-rule="evenodd" clip-rule="evenodd" d="M1769.09 472.093C1769.14 472.141 1769.18 472.19 1769.23 472.241L1782.41 486.878C1783.56 488.154 1783.44 490.101 1782.14 491.228C1781.56 491.725 1780.82 492 1780.06 492H1742.14C1740.41 492 1739 490.62 1739 488.919C1739 488.087 1739.34 487.29 1739.95 486.71L1745.33 481.576C1746.32 480.634 1747.81 480.432 1749.02 481.079L1751.21 482.248C1752.44 482.905 1753.96 482.686 1754.94 481.712L1764.64 472.112C1765.87 470.903 1767.86 470.895 1769.09 472.093ZM1752.87 466C1755.26 466 1757.2 467.94 1757.2 470.333C1757.2 472.727 1755.26 474.667 1752.87 474.667C1750.47 474.667 1748.53 472.727 1748.53 470.333C1748.53 467.94 1750.47 466 1752.87 466Z" fill="#DEE2E6"/>
<rect x="1551" y="642" width="414" height="4" rx="2" fill="#0A84FF"/>
<g filter="url(#filter11_d)">
<circle cx="1961" cy="644" r="10" fill="white"/>
</g>
<g filter="url(#filter12_i)">
<rect x="1808" y="681" width="163" height="4" rx="2" fill="black" fill-opacity="0.08"/>
</g>
<rect x="1551" y="681" width="256" height="4" rx="2" fill="#0A84FF"/>
<g filter="url(#filter13_d)">
<circle cx="1807" cy="683" r="10" fill="white"/>
</g>
<g filter="url(#filter14_i)">
<rect x="1885" y="720" width="86" height="4" rx="2" fill="black" fill-opacity="0.08"/>
</g>
<path d="M1551 722C1551 720.895 1551.9 720 1553 720H1888C1889.1 720 1890 720.895 1890 722V722C1890 723.105 1889.1 724 1888 724H1553C1551.9 724 1551 723.105 1551 722V722Z" fill="#0A84FF"/>
<g filter="url(#filter15_d)">
<circle cx="1888" cy="722" r="10" fill="white"/>
</g>
</g>
<defs>
<filter id="filter0_d" x="0" y="516" width="591" height="557" filterUnits="userSpaceOnUse" color-interpolation-filters="sRGB">
<feFlood flood-opacity="0" result="BackgroundImageFix"/>
<feColorMatrix in="SourceAlpha" type="matrix" values="0 0 0 0 0 0 0 0 0 0 0 0 0 0 0 0 0 0 127 0" result="hardAlpha"/>
<feOffset dx="20" dy="-10"/>
<feGaussianBlur stdDeviation="15"/>
<feComposite in2="hardAlpha" operator="out"/>
<feColorMatrix type="matrix" values="0 0 0 0 0 0 0 0 0 0 0 0 0 0 0 0 0 0 0.02 0"/>
<feBlend mode="normal" in2="BackgroundImageFix" result="effect1_dropShadow"/>
<feBlend mode="normal" in="SourceGraphic" in2="effect1_dropShadow" result="shape"/>
</filter>
<filter id="filter1_d" x="54.5" y="718" width="23" height="23" filterUnits="userSpaceOnUse" color-interpolation-filters="sRGB">
<feFlood flood-opacity="0" result="BackgroundImageFix"/>
<feColorMatrix in="SourceAlpha" type="matrix" values="0 0 0 0 0 0 0 0 0 0 0 0 0 0 0 0 0 0 127 0" result="hardAlpha"/>
<feMorphology radius="0.5" operator="dilate" in="SourceAlpha" result="effect1_dropShadow"/>
<feOffset dy="0.5"/>
<feGaussianBlur stdDeviation="0.5"/>
<feColorMatrix type="matrix" values="0 0 0 0 0 0 0 0 0 0 0 0 0 0 0 0 0 0 0.1 0"/>
<feBlend mode="normal" in2="BackgroundImageFix" result="effect1_dropShadow"/>
<feBlend mode="normal" in="SourceGraphic" in2="effect1_dropShadow" result="shape"/>
</filter>
<filter id="filter2_d" x="114.5" y="686" width="23" height="23" filterUnits="userSpaceOnUse" color-interpolation-filters="sRGB">
<feFlood flood-opacity="0" result="BackgroundImageFix"/>
<feColorMatrix in="SourceAlpha" type="matrix" values="0 0 0 0 0 0 0 0 0 0 0 0 0 0 0 0 0 0 127 0" result="hardAlpha"/>
<feMorphology radius="0.5" operator="dilate" in="SourceAlpha" result="effect1_dropShadow"/>
<feOffset dy="0.5"/>
<feGaussianBlur stdDeviation="0.5"/>
<feColorMatrix type="matrix" values="0 0 0 0 0 0 0 0 0 0 0 0 0 0 0 0 0 0 0.1 0"/>
<feBlend mode="normal" in2="BackgroundImageFix" result="effect1_dropShadow"/>
<feBlend mode="normal" in="SourceGraphic" in2="effect1_dropShadow" result="shape"/>
</filter>
<filter id="filter3_d" x="174.5" y="741" width="23" height="23" filterUnits="userSpaceOnUse" color-interpolation-filters="sRGB">
<feFlood flood-opacity="0" result="BackgroundImageFix"/>
<feColorMatrix in="SourceAlpha" type="matrix" values="0 0 0 0 0 0 0 0 0 0 0 0 0 0 0 0 0 0 127 0" result="hardAlpha"/>
<feMorphology radius="0.5" operator="dilate" in="SourceAlpha" result="effect1_dropShadow"/>
<feOffset dy="0.5"/>
<feGaussianBlur stdDeviation="0.5"/>
<feColorMatrix type="matrix" values="0 0 0 0 0 0 0 0 0 0 0 0 0 0 0 0 0 0 0.1 0"/>
<feBlend mode="normal" in2="BackgroundImageFix" result="effect1_dropShadow"/>
<feBlend mode="normal" in="SourceGraphic" in2="effect1_dropShadow" result="shape"/>
</filter>
<filter id="filter4_d" x="234.5" y="711" width="23" height="23" filterUnits="userSpaceOnUse" color-interpolation-filters="sRGB">
<feFlood flood-opacity="0" result="BackgroundImageFix"/>
<feColorMatrix in="SourceAlpha" type="matrix" values="0 0 0 0 0 0 0 0 0 0 0 0 0 0 0 0 0 0 127 0" result="hardAlpha"/>
<feMorphology radius="0.5" operator="dilate" in="SourceAlpha" result="effect1_dropShadow"/>
<feOffset dy="0.5"/>
<feGaussianBlur stdDeviation="0.5"/>
<feColorMatrix type="matrix" values="0 0 0 0 0 0 0 0 0 0 0 0 0 0 0 0 0 0 0.1 0"/>
<feBlend mode="normal" in2="BackgroundImageFix" result="effect1_dropShadow"/>
<feBlend mode="normal" in="SourceGraphic" in2="effect1_dropShadow" result="shape"/>
</filter>
<filter id="filter5_d" x="294.5" y="768.25" width="23" height="23" filterUnits="userSpaceOnUse" color-interpolation-filters="sRGB">
<feFlood flood-opacity="0" result="BackgroundImageFix"/>
<feColorMatrix in="SourceAlpha" type="matrix" values="0 0 0 0 0 0 0 0 0 0 0 0 0 0 0 0 0 0 127 0" result="hardAlpha"/>
<feMorphology radius="0.5" operator="dilate" in="SourceAlpha" result="effect1_dropShadow"/>
<feOffset dy="0.5"/>
<feGaussianBlur stdDeviation="0.5"/>
<feColorMatrix type="matrix" values="0 0 0 0 0 0 0 0 0 0 0 0 0 0 0 0 0 0 0.1 0"/>
<feBlend mode="normal" in2="BackgroundImageFix" result="effect1_dropShadow"/>
<feBlend mode="normal" in="SourceGraphic" in2="effect1_dropShadow" result="shape"/>
</filter>
<filter id="filter6_d" x="354.5" y="691" width="23" height="23" filterUnits="userSpaceOnUse" color-interpolation-filters="sRGB">
<feFlood flood-opacity="0" result="BackgroundImageFix"/>
<feColorMatrix in="SourceAlpha" type="matrix" values="0 0 0 0 0 0 0 0 0 0 0 0 0 0 0 0 0 0 127 0" result="hardAlpha"/>
<feMorphology radius="0.5" operator="dilate" in="SourceAlpha" result="effect1_dropShadow"/>
<feOffset dy="0.5"/>
<feGaussianBlur stdDeviation="0.5"/>
<feColorMatrix type="matrix" values="0 0 0 0 0 0 0 0 0 0 0 0 0 0 0 0 0 0 0.1 0"/>
<feBlend mode="normal" in2="BackgroundImageFix" result="effect1_dropShadow"/>
<feBlend mode="normal" in="SourceGraphic" in2="effect1_dropShadow" result="shape"/>
</filter>
<filter id="filter7_d" x="414.5" y="734" width="23" height="23" filterUnits="userSpaceOnUse" color-interpolation-filters="sRGB">
<feFlood flood-opacity="0" result="BackgroundImageFix"/>
<feColorMatrix in="SourceAlpha" type="matrix" values="0 0 0 0 0 0 0 0 0 0 0 0 0 0 0 0 0 0 127 0" result="hardAlpha"/>
<feMorphology radius="0.5" operator="dilate" in="SourceAlpha" result="effect1_dropShadow"/>
<feOffset dy="0.5"/>
<feGaussianBlur stdDeviation="0.5"/>
<feColorMatrix type="matrix" values="0 0 0 0 0 0 0 0 0 0 0 0 0 0 0 0 0 0 0.1 0"/>
<feBlend mode="normal" in2="BackgroundImageFix" result="effect1_dropShadow"/>
<feBlend mode="normal" in="SourceGraphic" in2="effect1_dropShadow" result="shape"/>
</filter>
<filter id="filter8_d" x="474.5" y="768.25" width="23" height="23" filterUnits="userSpaceOnUse" color-interpolation-filters="sRGB">
<feFlood flood-opacity="0" result="BackgroundImageFix"/>
<feColorMatrix in="SourceAlpha" type="matrix" values="0 0 0 0 0 0 0 0 0 0 0 0 0 0 0 0 0 0 127 0" result="hardAlpha"/>
<feMorphology radius="0.5" operator="dilate" in="SourceAlpha" result="effect1_dropShadow"/>
<feOffset dy="0.5"/>
<feGaussianBlur stdDeviation="0.5"/>
<feColorMatrix type="matrix" values="0 0 0 0 0 0 0 0 0 0 0 0 0 0 0 0 0 0 0.1 0"/>
<feBlend mode="normal" in2="BackgroundImageFix" result="effect1_dropShadow"/>
<feBlend mode="normal" in="SourceGraphic" in2="effect1_dropShadow" result="shape"/>
</filter>
<filter id="filter9_d" x="485.5" y="998" width="17" height="17" filterUnits="userSpaceOnUse" color-interpolation-filters="sRGB">
<feFlood flood-opacity="0" result="BackgroundImageFix"/>
<feColorMatrix in="SourceAlpha" type="matrix" values="0 0 0 0 0 0 0 0 0 0 0 0 0 0 0 0 0 0 127 0" result="hardAlpha"/>
<feMorphology radius="0.5" operator="dilate" in="SourceAlpha" result="effect1_dropShadow"/>
<feOffset dy="0.5"/>
<feGaussianBlur stdDeviation="0.5"/>
<feColorMatrix type="matrix" values="0 0 0 0 0 0 0 0 0 0 0 0 0 0 0 0 0 0 0.1 0"/>
<feBlend mode="normal" in2="BackgroundImageFix" result="effect1_dropShadow"/>
<feBlend mode="normal" in="SourceGraphic" in2="effect1_dropShadow" result="shape"/>
</filter>
<filter id="filter10_d" x="1456" y="261" width="580" height="538" filterUnits="userSpaceOnUse" color-interpolation-filters="sRGB">
<feFlood flood-opacity="0" result="BackgroundImageFix"/>
<feColorMatrix in="SourceAlpha" type="matrix" values="0 0 0 0 0 0 0 0 0 0 0 0 0 0 0 0 0 0 127 0" result="hardAlpha"/>
<feOffset dx="-15" dy="-15"/>
<feGaussianBlur stdDeviation="20"/>
<feComposite in2="hardAlpha" operator="out"/>
<feColorMatrix type="matrix" values="0 0 0 0 0 0 0 0 0 0 0 0 0 0 0 0 0 0 0.02 0"/>
<feBlend mode="normal" in2="BackgroundImageFix" result="effect1_dropShadow"/>
<feBlend mode="normal" in="SourceGraphic" in2="effect1_dropShadow" result="shape"/>
</filter>
<filter id="filter11_d" x="1949" y="632" width="24" height="24" filterUnits="userSpaceOnUse" color-interpolation-filters="sRGB">
<feFlood flood-opacity="0" result="BackgroundImageFix"/>
<feColorMatrix in="SourceAlpha" type="matrix" values="0 0 0 0 0 0 0 0 0 0 0 0 0 0 0 0 0 0 127 0" result="hardAlpha"/>
<feOffset/>
<feGaussianBlur stdDeviation="1"/>
<feColorMatrix type="matrix" values="0 0 0 0 0 0 0 0 0 0 0 0 0 0 0 0 0 0 0.2 0"/>
<feBlend mode="normal" in2="BackgroundImageFix" result="effect1_dropShadow"/>
<feBlend mode="normal" in="SourceGraphic" in2="effect1_dropShadow" result="shape"/>
</filter>
<filter id="filter12_i" x="1808" y="681" width="163" height="4" filterUnits="userSpaceOnUse" color-interpolation-filters="sRGB">
<feFlood flood-opacity="0" result="BackgroundImageFix"/>
<feBlend mode="normal" in="SourceGraphic" in2="BackgroundImageFix" result="shape"/>
<feColorMatrix in="SourceAlpha" type="matrix" values="0 0 0 0 0 0 0 0 0 0 0 0 0 0 0 0 0 0 127 0" result="hardAlpha"/>
<feMorphology radius="1" operator="erode" in="SourceAlpha" result="effect1_innerShadow"/>
<feOffset/>
<feGaussianBlur stdDeviation="0.5"/>
<feComposite in2="hardAlpha" operator="arithmetic" k2="-1" k3="1"/>
<feColorMatrix type="matrix" values="0 0 0 0 0.890196 0 0 0 0 0.890196 0 0 0 0 0.890196 0 0 0 1 0"/>
<feBlend mode="normal" in2="shape" result="effect1_innerShadow"/>
</filter>
<filter id="filter13_d" x="1795" y="671" width="24" height="24" filterUnits="userSpaceOnUse" color-interpolation-filters="sRGB">
<feFlood flood-opacity="0" result="BackgroundImageFix"/>
<feColorMatrix in="SourceAlpha" type="matrix" values="0 0 0 0 0 0 0 0 0 0 0 0 0 0 0 0 0 0 127 0" result="hardAlpha"/>
<feOffset/>
<feGaussianBlur stdDeviation="1"/>
<feColorMatrix type="matrix" values="0 0 0 0 0 0 0 0 0 0 0 0 0 0 0 0 0 0 0.2 0"/>
<feBlend mode="normal" in2="BackgroundImageFix" result="effect1_dropShadow"/>
<feBlend mode="normal" in="SourceGraphic" in2="effect1_dropShadow" result="shape"/>
</filter>
<filter id="filter14_i" x="1885" y="720" width="86" height="4" filterUnits="userSpaceOnUse" color-interpolation-filters="sRGB">
<feFlood flood-opacity="0" result="BackgroundImageFix"/>
<feBlend mode="normal" in="SourceGraphic" in2="BackgroundImageFix" result="shape"/>
<feColorMatrix in="SourceAlpha" type="matrix" values="0 0 0 0 0 0 0 0 0 0 0 0 0 0 0 0 0 0 127 0" result="hardAlpha"/>
<feMorphology radius="1" operator="erode" in="SourceAlpha" result="effect1_innerShadow"/>
<feOffset/>
<feGaussianBlur stdDeviation="0.5"/>
<feComposite in2="hardAlpha" operator="arithmetic" k2="-1" k3="1"/>
<feColorMatrix type="matrix" values="0 0 0 0 0.890196 0 0 0 0 0.890196 0 0 0 0 0.890196 0 0 0 1 0"/>
<feBlend mode="normal" in2="shape" result="effect1_innerShadow"/>
</filter>
<filter id="filter15_d" x="1876" y="710" width="24" height="24" filterUnits="userSpaceOnUse" color-interpolation-filters="sRGB">
<feFlood flood-opacity="0" result="BackgroundImageFix"/>
<feColorMatrix in="SourceAlpha" type="matrix" values="0 0 0 0 0 0 0 0 0 0 0 0 0 0 0 0 0 0 127 0" result="hardAlpha"/>
<feOffset/>
<feGaussianBlur stdDeviation="1"/>
<feColorMatrix type="matrix" values="0 0 0 0 0 0 0 0 0 0 0 0 0 0 0 0 0 0 0.2 0"/>
<feBlend mode="normal" in2="BackgroundImageFix" result="effect1_dropShadow"/>
<feBlend mode="normal" in="SourceGraphic" in2="effect1_dropShadow" result="shape"/>
</filter>
<linearGradient id="paint0_linear" x1="602" y1="326" x2="297" y2="326" gradientUnits="userSpaceOnUse">
<stop stop-color="#34C759"/>
<stop offset="1" stop-color="#34C759" stop-opacity="0.15"/>
</linearGradient>
<linearGradient id="paint1_linear" x1="816" y1="686" x2="511" y2="686" gradientUnits="userSpaceOnUse">
<stop stop-color="#34C759"/>
<stop offset="1" stop-color="#34C759" stop-opacity="0.15"/>
</linearGradient>
<linearGradient id="paint2_linear" x1="816" y1="446.5" x2="510.5" y2="446" gradientUnits="userSpaceOnUse">
<stop stop-color="#4070F4"/>
<stop offset="0.0001" stop-color="#0A84FF"/>
<stop offset="1" stop-color="#0A84FF" stop-opacity="0.15"/>
</linearGradient>
<linearGradient id="paint3_linear" x1="1774" y1="686" x2="1152" y2="686" gradientUnits="userSpaceOnUse">
<stop stop-color="#34C759"/>
<stop offset="1" stop-color="#34C759" stop-opacity="0.15"/>
</linearGradient>
<linearGradient id="paint4_linear" x1="1243" y1="806" x2="938" y2="806" gradientUnits="userSpaceOnUse">
<stop stop-color="#FFD60A"/>
<stop offset="1" stop-color="#FFD60A" stop-opacity="0.15"/>
</linearGradient>
<linearGradient id="paint5_linear" x1="1287" y1="926" x2="724.5" y2="926" gradientUnits="userSpaceOnUse">
<stop stop-color="#0A84FF"/>
<stop offset="1" stop-color="#0A84FF" stop-opacity="0.15"/>
</linearGradient>
<linearGradient id="paint6_linear" x1="1218" y1="566" x2="724" y2="566" gradientUnits="userSpaceOnUse">
<stop stop-color="#FFD60A"/>
<stop offset="1" stop-color="#FFD60A" stop-opacity="0.15"/>
</linearGradient>
<clipPath id="clip0">
<rect x="217" width="1618" height="992.934" rx="12" fill="white"/>
</clipPath>
<clipPath id="clip1">
<rect width="1618" height="76" fill="white" transform="translate(217)"/>
</clipPath>
</defs>
</svg>
