<svg width="1310" height="1350" viewBox="0 0 1310 1350" fill="none" xmlns="http://www.w3.org/2000/svg">
<g clip-path="url(#clip0)">
<path d="M1032.95 786H1119.05L1111.51 953.408L1252.75 862.564L1296 937.937L1146.03 1014.5L1296 1091.06L1252.75 1166.44L1111.51 1075.59L1119.05 1243H1032.95L1040.49 1075.59L899.246 1166.44L856 1091.06L1005.97 1014.5L856 937.937L899.246 862.564L1040.49 953.408L1032.95 786Z" fill="#F0F2F4"/>
<g filter="url(#filter0_d)">
<rect x="76" y="335" width="1000" height="680" rx="16" fill="white"/>
<rect x="1016" y="526" width="5" height="13" fill="white"/>
<path d="M149.818 431C157.352 431 161.82 426.339 161.82 418.612C161.82 410.909 157.352 406.273 149.987 406.273H141.439V431H149.818ZM145.918 427.124V410.148H149.734C154.756 410.148 157.376 412.95 157.376 418.612C157.376 424.299 154.756 427.124 149.601 427.124H145.918ZM171.219 431.374C174.129 431.374 175.868 430.01 176.664 428.452H176.809V431H181.011V418.588C181.011 413.686 177.015 412.213 173.477 412.213C169.577 412.213 166.583 413.952 165.617 417.332L169.698 417.912C170.132 416.644 171.364 415.558 173.501 415.558C175.529 415.558 176.64 416.596 176.64 418.419V418.491C176.64 419.747 175.324 419.808 172.052 420.158C168.454 420.544 165.013 421.619 165.013 425.796C165.013 429.442 167.681 431.374 171.219 431.374ZM172.354 428.163C170.531 428.163 169.227 427.33 169.227 425.724C169.227 424.045 170.688 423.345 172.644 423.067C173.791 422.911 176.085 422.621 176.652 422.162V424.347C176.652 426.412 174.986 428.163 172.354 428.163ZM194.667 412.455H191.008V408.011H186.637V412.455H184.005V415.835H186.637V426.146C186.613 429.636 189.149 431.35 192.433 431.254C193.676 431.217 194.534 430.976 195.005 430.819L194.268 427.402C194.027 427.462 193.532 427.571 192.988 427.571C191.89 427.571 191.008 427.185 191.008 425.422V415.835H194.667V412.455ZM203.659 431.374C206.568 431.374 208.307 430.01 209.104 428.452H209.249V431H213.45V418.588C213.45 413.686 209.454 412.213 205.916 412.213C202.017 412.213 199.022 413.952 198.056 417.332L202.137 417.912C202.572 416.644 203.803 415.558 205.941 415.558C207.969 415.558 209.08 416.596 209.08 418.419V418.491C209.08 419.747 207.764 419.808 204.492 420.158C200.894 420.544 197.453 421.619 197.453 425.796C197.453 429.442 200.121 431.374 203.659 431.374ZM204.794 428.163C202.97 428.163 201.666 427.33 201.666 425.724C201.666 424.045 203.127 423.345 205.083 423.067C206.23 422.911 208.524 422.621 209.092 422.162V424.347C209.092 426.412 207.426 428.163 204.794 428.163Z" fill="#1D1D1F"/>
<rect x="138" y="515" width="54" height="435" rx="4" fill="#F0F2F4"/>
<rect x="138" y="662" width="54" height="288" rx="4" fill="#0A84FF"/>
<rect x="280" y="515" width="54" height="435" rx="4" fill="#F0F2F4"/>
<rect x="280" y="586" width="54" height="364" rx="4" fill="#0A84FF"/>
<rect x="422" y="515" width="54" height="435" rx="4" fill="#F0F2F4"/>
<rect x="422" y="714" width="54" height="236" rx="4" fill="#0A84FF"/>
<rect x="564" y="515" width="54" height="435" rx="4" fill="#F0F2F4"/>
<rect x="564" y="662" width="54" height="288" rx="4" fill="#0A84FF"/>
<rect x="706" y="515" width="54" height="435" rx="4" fill="#F0F2F4"/>
<rect x="706" y="818" width="54" height="132" rx="4" fill="#0A84FF"/>
<rect x="848" y="515" width="54" height="435" rx="4" fill="#F0F2F4"/>
<rect x="848" y="714" width="54" height="236" rx="4" fill="#0A84FF"/>
<path d="M935 763L140 763" stroke="#A7B2BE" stroke-width="4" stroke-dasharray="10 14"/>
<path d="M946.977 754.781C943.508 754.758 941.203 757.141 941.203 760.266C941.211 763.281 943.359 765.461 946.164 765.461C947.891 765.461 949.391 764.625 950.164 763.25H950.273C950.266 766.672 949.023 768.711 946.813 768.711C945.43 768.711 944.5 767.914 944.211 766.641H941.359C941.688 769.289 943.781 771.219 946.813 771.219C950.648 771.219 953.094 768.016 953.086 762.508C953.078 756.68 950.047 754.797 946.977 754.781ZM946.984 757.125C948.695 757.125 949.953 758.547 949.953 760.18C949.961 761.836 948.641 763.258 946.953 763.258C945.25 763.258 944.023 761.914 944.016 760.203C944.016 758.484 945.289 757.125 946.984 757.125ZM961.362 771.305C965.221 771.313 967.526 768.266 967.526 763.016C967.526 757.797 965.205 754.781 961.362 754.781C957.518 754.781 955.205 757.789 955.198 763.016C955.198 768.258 957.502 771.305 961.362 771.305ZM961.362 768.859C959.369 768.859 958.119 766.859 958.127 763.016C958.135 759.203 959.377 757.195 961.362 757.195C963.354 757.195 964.596 759.203 964.604 763.016C964.604 766.859 963.362 768.859 961.362 768.859ZM982.778 765.953C982.778 767.781 981.473 768.687 980.223 768.687C978.864 768.687 977.958 767.727 977.958 766.203V759H975.13V766.641C975.13 769.523 976.77 771.156 979.13 771.156C980.926 771.156 982.192 770.211 982.739 768.867H982.864V771H985.606V759H982.778V765.953ZM997.759 762.172C997.368 760.141 995.743 758.844 992.931 758.844C990.04 758.844 988.071 760.266 988.079 762.484C988.071 764.234 989.149 765.391 991.454 765.867L993.501 766.297C994.603 766.539 995.118 766.984 995.118 767.664C995.118 768.484 994.228 769.102 992.884 769.102C991.587 769.102 990.743 768.539 990.501 767.461L987.743 767.727C988.095 769.93 989.946 771.234 992.892 771.234C995.892 771.234 998.009 769.68 998.017 767.406C998.009 765.695 996.907 764.648 994.642 764.156L992.595 763.719C991.376 763.445 990.892 763.023 990.899 762.328C990.892 761.516 991.79 760.953 992.97 760.953C994.274 760.953 994.962 761.664 995.181 762.453L997.759 762.172ZM1004.56 771.211C1006.62 771.211 1007.55 769.984 1008 769.109H1008.17V771H1010.95V755H1008.12V760.984H1008C1007.57 760.117 1006.69 758.844 1004.57 758.844C1001.8 758.844 999.616 761.016 999.616 765.016C999.616 768.969 1001.73 771.211 1004.56 771.211ZM1005.35 768.891C1003.48 768.891 1002.5 767.25 1002.5 765C1002.5 762.766 1003.47 761.164 1005.35 761.164C1007.17 761.164 1008.17 762.672 1008.17 765C1008.17 767.328 1007.16 768.891 1005.35 768.891Z" fill="#1D1D1F"/>
</g>
<path d="M625 408.001C625 404.687 627.687 402 631.001 402H1004.52C1007.84 402 1010.52 404.687 1010.52 408.001V429.001C1010.52 432.315 1007.84 435.002 1004.52 435.002H631.001C627.687 435.002 625 432.315 625 429.001V408.001Z" fill="#313135" fill-opacity="0.05"/>
<path d="M653.229 425.001H655.321L650.741 412.316H648.623L644.043 425.001H646.065L647.234 421.634H652.068L653.229 425.001ZM649.581 414.619H649.73L651.567 419.982H647.735L649.581 414.619ZM657.404 425.001H659.294V411.692H657.404V425.001ZM662.222 425.001H664.111V411.692H662.222V425.001Z" fill="#1D1D1F"/>
<rect x="683.256" y="409.5" width="1.50025" height="18.003" fill="black" fill-opacity="0.05"/>
<path d="M704.347 411.908H702.372V425.001H704.347V411.908ZM708.982 419.17C708.982 417.604 709.941 416.709 711.271 416.709C712.569 416.709 713.355 417.559 713.355 418.985V425.001H715.267V418.755C715.267 416.326 713.93 415.053 711.923 415.053C710.446 415.053 709.481 415.737 709.027 416.779H708.905V415.181H707.071V425.001H708.982V419.17ZM721.967 425.199C724.287 425.199 725.79 423.805 726.001 421.894H724.14C723.897 422.955 723.073 423.582 721.979 423.582C720.362 423.582 719.32 422.233 719.32 420.091C719.32 417.988 720.381 416.664 721.979 416.664C723.194 416.664 723.936 417.432 724.14 418.352H726.001C725.796 416.37 724.179 415.053 721.947 415.053C719.179 415.053 717.389 417.137 717.389 420.136C717.389 423.096 719.115 425.199 721.967 425.199ZM732.181 425.199C734.949 425.199 736.759 423.173 736.759 420.136C736.759 417.08 734.949 415.053 732.181 415.053C729.413 415.053 727.604 417.08 727.604 420.136C727.604 423.173 729.413 425.199 732.181 425.199ZM732.188 423.594C730.378 423.594 729.534 422.015 729.534 420.129C729.534 418.25 730.378 416.652 732.188 416.652C733.984 416.652 734.828 418.25 734.828 420.129C734.828 422.015 733.984 423.594 732.188 423.594ZM738.892 425.001H740.804V418.947C740.804 417.623 741.731 416.703 742.818 416.703C743.879 416.703 744.614 417.406 744.614 418.474V425.001H746.519V418.742C746.519 417.559 747.242 416.703 748.488 416.703C749.499 416.703 750.33 417.265 750.33 418.595V425.001H752.241V418.416C752.241 416.172 750.988 415.053 749.211 415.053C747.798 415.053 746.737 415.731 746.264 416.779H746.161C745.733 415.705 744.832 415.053 743.521 415.053C742.223 415.053 741.258 415.699 740.849 416.779H740.727V415.181H738.892V425.001ZM759.035 425.199C761.177 425.199 762.692 424.144 763.127 422.546L761.318 422.22C760.973 423.147 760.141 423.62 759.055 423.62C757.418 423.62 756.318 422.559 756.267 420.666H763.249V419.989C763.249 416.441 761.126 415.053 758.901 415.053C756.165 415.053 754.362 417.137 754.362 420.155C754.362 423.205 756.139 425.199 759.035 425.199ZM756.274 419.234C756.35 417.841 757.36 416.632 758.914 416.632C760.397 416.632 761.369 417.732 761.375 419.234H756.274Z" fill="#1D1D1F"/>
<rect x="781.762" y="409.5" width="1.50025" height="18.003" fill="black" fill-opacity="0.05"/>
<path d="M800.918 425.001H809.203V423.3H802.893V419.292H808.698V417.598H802.893V413.608H809.127V411.908H800.918V425.001ZM813.121 415.181H811.024L814.041 420.091L810.985 425.001H813.082L815.288 421.331L817.5 425.001H819.591L816.503 420.091L819.565 415.181H817.474L815.288 419.004L813.121 415.181ZM821.528 428.683H823.439V423.473H823.554C823.899 424.1 824.603 425.193 826.393 425.193C828.771 425.193 830.497 423.288 830.497 420.11C830.497 416.926 828.745 415.053 826.374 415.053C824.552 415.053 823.893 416.166 823.554 416.773H823.394V415.181H821.528V428.683ZM823.401 420.091C823.401 418.039 824.296 416.677 825.964 416.677C827.697 416.677 828.566 418.141 828.566 420.091C828.566 422.06 827.671 423.563 825.964 423.563C824.321 423.563 823.401 422.156 823.401 420.091ZM836.871 425.199C839.013 425.199 840.528 424.144 840.963 422.546L839.153 422.22C838.808 423.147 837.977 423.62 836.89 423.62C835.254 423.62 834.154 422.559 834.103 420.666H841.084V419.989C841.084 416.441 838.962 415.053 836.737 415.053C834.001 415.053 832.198 417.137 832.198 420.155C832.198 423.205 833.975 425.199 836.871 425.199ZM834.109 419.234C834.186 417.841 835.196 416.632 836.75 416.632C838.233 416.632 839.205 417.732 839.211 419.234H834.109ZM845.117 419.17C845.117 417.604 846.076 416.709 847.405 416.709C848.703 416.709 849.49 417.559 849.49 418.985V425.001H851.401V418.755C851.401 416.326 850.065 415.053 848.057 415.053C846.581 415.053 845.615 415.737 845.161 416.779H845.04V415.181H843.205V425.001H845.117V419.17ZM861.323 417.579C860.927 416.051 859.731 415.053 857.609 415.053C855.39 415.053 853.818 416.223 853.818 417.962C853.818 419.356 854.662 420.283 856.503 420.692L858.165 421.056C859.111 421.267 859.552 421.689 859.552 422.303C859.552 423.064 858.74 423.658 857.487 423.658C856.343 423.658 855.608 423.166 855.378 422.201L853.53 422.482C853.85 424.221 855.294 425.199 857.5 425.199C859.872 425.199 861.515 423.94 861.515 422.162C861.515 420.775 860.633 419.918 858.83 419.503L857.27 419.145C856.19 418.889 855.723 418.525 855.729 417.86C855.723 417.105 856.541 416.568 857.628 416.568C858.817 416.568 859.367 417.227 859.591 417.885L861.323 417.579ZM867.849 425.199C869.991 425.199 871.506 424.144 871.941 422.546L870.131 422.22C869.786 423.147 868.955 423.62 867.868 423.62C866.232 423.62 865.132 422.559 865.081 420.666H872.062V419.989C872.062 416.441 869.94 415.053 867.715 415.053C864.978 415.053 863.176 417.137 863.176 420.155C863.176 423.205 864.953 425.199 867.849 425.199ZM865.087 419.234C865.164 417.841 866.174 416.632 867.727 416.632C869.211 416.632 870.182 417.732 870.189 419.234H865.087ZM881.541 417.579C881.145 416.051 879.95 415.053 877.827 415.053C875.609 415.053 874.036 416.223 874.036 417.962C874.036 419.356 874.88 420.283 876.721 420.692L878.383 421.056C879.329 421.267 879.771 421.689 879.771 422.303C879.771 423.064 878.959 423.658 877.706 423.658C876.561 423.658 875.826 423.166 875.596 422.201L873.748 422.482C874.068 424.221 875.513 425.199 877.718 425.199C880.09 425.199 881.733 423.94 881.733 422.162C881.733 420.775 880.851 419.918 879.048 419.503L877.488 419.145C876.408 418.889 875.941 418.525 875.947 417.86C875.941 417.105 876.759 416.568 877.846 416.568C879.035 416.568 879.585 417.227 879.809 417.885L881.541 417.579Z" fill="#1D1D1F"/>
<rect x="900.268" y="409.5" width="1.50025" height="18.003" fill="black" fill-opacity="0.05"/>
<g filter="url(#filter1_d)">
<path d="M901.018 409.501C901.018 406.187 903.704 403.5 907.019 403.5H1003.02C1006.34 403.5 1009.02 406.187 1009.02 409.501V427.501C1009.02 430.815 1006.34 433.502 1003.02 433.502H907.019C903.704 433.502 901.018 430.815 901.018 427.501V409.501Z" fill="white"/>
<path d="M919.363 425.001H921.338V420.046H924.023C924.068 420.046 924.107 420.046 924.151 420.046L926.811 425.001H929.061L926.159 419.701C927.763 419.107 928.563 417.77 928.563 416.012C928.563 413.602 927.067 411.908 924.03 411.908H919.363V425.001ZM921.338 418.346V413.602H923.819C925.769 413.602 926.574 414.529 926.574 416.012C926.574 417.489 925.769 418.346 923.844 418.346H921.338ZM934.922 425.199C937.064 425.199 938.579 424.144 939.014 422.546L937.204 422.22C936.859 423.147 936.028 423.62 934.941 423.62C933.305 423.62 932.205 422.559 932.154 420.666H939.135V419.989C939.135 416.441 937.013 415.053 934.788 415.053C932.052 415.053 930.249 417.137 930.249 420.155C930.249 423.205 932.026 425.199 934.922 425.199ZM932.16 419.234C932.237 417.841 933.247 416.632 934.801 416.632C936.284 416.632 937.256 417.732 937.262 419.234H932.16ZM949.358 415.181H947.306L944.825 422.738H944.723L942.236 415.181H940.184L943.751 425.001H945.797L949.358 415.181ZM955.035 425.199C957.177 425.199 958.692 424.144 959.126 422.546L957.317 422.22C956.972 423.147 956.141 423.62 955.054 423.62C953.417 423.62 952.318 422.559 952.267 420.666H959.248V419.989C959.248 416.441 957.125 415.053 954.901 415.053C952.164 415.053 950.362 417.137 950.362 420.155C950.362 423.205 952.139 425.199 955.035 425.199ZM952.273 419.234C952.35 417.841 953.36 416.632 954.913 416.632C956.397 416.632 957.368 417.732 957.375 419.234H952.273ZM963.28 419.17C963.28 417.604 964.239 416.709 965.569 416.709C966.867 416.709 967.653 417.559 967.653 418.985V425.001H969.565V418.755C969.565 416.326 968.229 415.053 966.221 415.053C964.744 415.053 963.779 415.737 963.325 416.779H963.204V415.181H961.369V425.001H963.28V419.17ZM978.349 420.929C978.355 422.597 977.115 423.39 976.041 423.39C974.858 423.39 974.04 422.533 974.04 421.197V415.181H972.128V421.427C972.128 423.863 973.465 425.129 975.351 425.129C976.827 425.129 977.831 424.349 978.285 423.3H978.387V425.001H980.267V415.181H978.349V420.929ZM987.068 425.199C989.209 425.199 990.724 424.144 991.159 422.546L989.35 422.22C989.005 423.147 988.174 423.62 987.087 423.62C985.45 423.62 984.351 422.559 984.299 420.666H991.281V419.989C991.281 416.441 989.158 415.053 986.933 415.053C984.197 415.053 982.394 417.137 982.394 420.155C982.394 423.205 984.172 425.199 987.068 425.199ZM984.306 419.234C984.383 417.841 985.393 416.632 986.946 416.632C988.429 416.632 989.401 417.732 989.407 419.234H984.306Z" fill="#1D1D1F"/>
</g>
<g filter="url(#filter2_d)">
<rect x="255" y="925" width="260" height="260" rx="16" fill="white"/>
<circle cx="333" cy="1105.32" r="42.7742" stroke="#A7B2BE" stroke-opacity="0.15" stroke-width="16.7742"/>
<path d="M332.162 1148.1C355.785 1148.1 374.936 1128.95 374.936 1105.32C374.936 1081.7 355.785 1062.55 332.162 1062.55" stroke="#A7B2BE" stroke-width="16.7742" stroke-linejoin="round"/>
<circle cx="332.161" cy="1148.1" r="8.3871" fill="#A7B2BE"/>
<circle cx="332.161" cy="1062.55" r="8.3871" fill="#A7B2BE"/>
<path d="M285.88 1025.65H310.507V1021.45H292.361V1021.15L301.129 1011.77C307.839 1004.58 309.821 1001.23 309.821 996.9C309.821 990.877 304.942 986.073 298.079 986.073C291.236 986.073 286.032 990.724 286.032 997.586H290.531C290.531 993.145 293.409 990.191 297.927 990.191C302.159 990.191 305.399 992.783 305.399 996.9C305.399 1000.5 303.283 1003.17 298.766 1008.11L285.88 1022.21V1025.65ZM316.626 1017.64H335.002V1025.65H339.5V1017.64H344.837V1013.45H339.5V986.607H333.782L316.626 1013.75V1017.64ZM335.002 1013.45H321.735V1013.14L334.697 992.63H335.002V1013.45ZM365.858 984.777H361.74L349.16 1031.52H353.277L365.858 984.777ZM370.199 1017.64H388.574V1025.65H393.073V1017.64H398.41V1013.45H393.073V986.607H387.354L370.199 1013.75V1017.64ZM388.574 1013.45H375.307V1013.14L388.269 992.63H388.574V1013.45ZM418.058 1026.18C425.854 1026.18 431.286 1021.62 431.325 1015.28C431.286 1010.34 427.989 1006.15 423.776 1005.36V1005.13C427.436 1004.18 429.838 1000.6 429.876 996.443C429.838 990.496 424.844 986.073 418.058 986.073C411.196 986.073 406.201 990.496 406.24 996.443C406.201 1000.6 408.603 1004.18 412.339 1005.13V1005.36C408.05 1006.15 404.753 1010.34 404.791 1015.28C404.753 1021.62 410.185 1026.18 418.058 1026.18ZM418.058 1021.99C412.701 1021.99 409.404 1019.24 409.442 1015.05C409.404 1010.64 413.045 1007.5 418.058 1007.5C422.995 1007.5 426.635 1010.64 426.674 1015.05C426.635 1019.24 423.338 1021.99 418.058 1021.99ZM418.058 1003.46C413.788 1003.46 410.776 1000.79 410.814 996.748C410.776 992.783 413.674 990.191 418.058 990.191C422.366 990.191 425.263 992.783 425.301 996.748C425.263 1000.79 422.251 1003.46 418.058 1003.46Z" fill="#1D1D1F"/>
<path d="M295.27 962.888H295.453L298.583 973.839H301.828L306.22 957.292H302.643L300.086 968.954H299.902L296.829 957.292H293.905L290.889 968.954H290.706L288.126 957.292H284.525L288.905 973.839H292.173L295.27 962.888ZM312.997 963.473C314.557 963.473 315.566 964.516 315.634 966.19H310.245C310.36 964.551 311.449 963.473 312.997 963.473ZM315.703 970.238C315.348 971.075 314.442 971.545 313.123 971.545C311.38 971.545 310.279 970.376 310.234 968.495V968.323H318.914V967.303C318.914 963.289 316.712 960.916 312.986 960.916C309.225 960.916 306.908 963.461 306.908 967.578C306.908 971.683 309.179 974.114 313.031 974.114C316.128 974.114 318.306 972.623 318.811 970.238H315.703ZM327.124 963.473C328.684 963.473 329.693 964.516 329.761 966.19H324.372C324.487 964.551 325.576 963.473 327.124 963.473ZM329.83 970.238C329.475 971.075 328.569 971.545 327.25 971.545C325.507 971.545 324.406 970.376 324.361 968.495V968.323H333.041V967.303C333.041 963.289 330.839 960.916 327.113 960.916C323.352 960.916 321.035 963.461 321.035 967.578C321.035 971.683 323.306 974.114 327.158 974.114C330.255 974.114 332.433 972.623 332.938 970.238H329.83ZM339.439 966.133H339.233V956.363H335.896V973.839H339.233V969.642L340.15 968.702L343.843 973.839H347.799L342.65 966.615L347.466 961.191H343.671L339.439 966.133ZM350.023 973.839H353.36V956.363H350.023V973.839ZM358.405 978.437C361.559 978.437 363.107 977.29 364.185 974.034L368.542 961.191H365.01L362.35 970.777H362.144L359.483 961.191H355.802L360.24 973.919L360.125 974.378C359.85 975.341 359.139 975.742 357.889 975.742C357.752 975.742 357.247 975.742 357.133 975.719V978.403C357.27 978.425 358.279 978.437 358.405 978.437ZM391.796 967.085V964.975H384.848V967.578H388.437L388.425 967.876C388.356 969.871 386.786 971.213 384.515 971.213C381.786 971.213 380.066 969.057 380.066 965.514C380.066 962.039 381.706 959.918 384.377 959.918C386.304 959.918 387.691 960.893 388.207 962.567H391.647C391.166 959.127 388.288 956.868 384.377 956.868C379.561 956.868 376.523 960.216 376.523 965.548C376.523 970.961 379.539 974.263 384.458 974.263C388.976 974.263 391.796 971.511 391.796 967.085ZM400.397 974.114C404.284 974.114 406.623 971.649 406.623 967.509C406.623 963.404 404.249 960.916 400.397 960.916C396.544 960.916 394.17 963.415 394.17 967.509C394.17 971.649 396.509 974.114 400.397 974.114ZM400.397 971.385C398.608 971.385 397.599 969.974 397.599 967.509C397.599 965.078 398.619 963.645 400.397 963.645C402.162 963.645 403.194 965.078 403.194 967.509C403.194 969.963 402.174 971.385 400.397 971.385ZM413.916 971.522C412.758 971.522 411.944 970.949 411.944 970.009C411.944 969.103 412.643 968.587 414.076 968.484L416.633 968.323V969.252C416.633 970.536 415.464 971.522 413.916 971.522ZM412.815 974.034C414.455 974.034 415.831 973.346 416.484 972.188H416.691V973.839H419.924V965.204C419.924 962.498 418.032 960.916 414.684 960.916C411.508 960.916 409.364 962.383 409.146 964.723H412.219C412.494 963.966 413.297 963.553 414.501 963.553C415.877 963.553 416.633 964.149 416.633 965.204V966.236L413.572 966.42C410.43 966.603 408.676 967.933 408.676 970.227C408.676 972.543 410.384 974.034 412.815 974.034ZM423.319 973.839H426.655V956.363H423.319V973.839Z" fill="white"/>
</g>
<rect x="282.694" y="198" width="559" height="169" rx="16" fill="#F0F2F4"/>
<path d="M282.694 211.967C282.694 204.253 288.947 198 296.661 198H827.727C835.441 198 841.694 204.253 841.694 211.967V237.107H282.694V211.967Z" fill="white"/>
<circle cx="357.956" cy="217.554" r="8.38017" fill="#34C759"/>
<circle cx="330.022" cy="217.554" r="8.38017" fill="black" fill-opacity="0.05" style="mix-blend-mode:luminosity"/>
<circle cx="302.247" cy="217.554" r="8.38017" fill="#FF375F"/>
<g style="mix-blend-mode:multiply" opacity="0.9">
<path d="M514.095 216.894C513.695 215.353 512.489 214.347 510.349 214.347C508.111 214.347 506.525 215.527 506.525 217.281C506.525 218.687 507.376 219.622 509.233 220.034L510.91 220.402C511.864 220.615 512.309 221.04 512.309 221.659C512.309 222.427 511.49 223.026 510.226 223.026C509.072 223.026 508.33 222.53 508.098 221.556L506.235 221.84C506.557 223.594 508.014 224.58 510.239 224.58C512.631 224.58 514.288 223.31 514.288 221.517C514.288 220.118 513.398 219.254 511.58 218.835L510.007 218.474C508.917 218.216 508.446 217.849 508.453 217.178C508.446 216.417 509.272 215.876 510.368 215.876C511.567 215.876 512.122 216.54 512.347 217.204L514.095 216.894ZM519.29 224.599C520.928 224.599 521.85 223.768 522.217 223.026H522.295V224.38H524.178V217.803C524.178 214.921 521.908 214.347 520.335 214.347C518.542 214.347 516.892 215.07 516.247 216.875L518.059 217.288C518.342 216.585 519.064 215.908 520.36 215.908C521.605 215.908 522.243 216.559 522.243 217.681V217.726C522.243 218.429 521.521 218.416 519.741 218.622C517.865 218.842 515.944 219.332 515.944 221.582C515.944 223.529 517.407 224.599 519.29 224.599ZM519.709 223.052C518.62 223.052 517.833 222.562 517.833 221.608C517.833 220.576 518.748 220.208 519.864 220.06C520.489 219.976 521.972 219.809 522.25 219.531V220.808C522.25 221.982 521.315 223.052 519.709 223.052ZM529.628 224.599C531.265 224.599 532.187 223.768 532.555 223.026H532.632V224.38H534.515V217.803C534.515 214.921 532.245 214.347 530.672 214.347C528.88 214.347 527.229 215.07 526.584 216.875L528.396 217.288C528.68 216.585 529.402 215.908 530.698 215.908C531.942 215.908 532.581 216.559 532.581 217.681V217.726C532.581 218.429 531.858 218.416 530.079 218.622C528.203 218.842 526.281 219.332 526.281 221.582C526.281 223.529 527.745 224.599 529.628 224.599ZM530.047 223.052C528.957 223.052 528.17 222.562 528.17 221.608C528.17 220.576 529.086 220.208 530.201 220.06C530.827 219.976 532.31 219.809 532.587 219.531V220.808C532.587 221.982 531.652 223.052 530.047 223.052ZM544.504 216.894C544.104 215.353 542.899 214.347 540.758 214.347C538.521 214.347 536.935 215.527 536.935 217.281C536.935 218.687 537.786 219.622 539.643 220.034L541.319 220.402C542.273 220.615 542.718 221.04 542.718 221.659C542.718 222.427 541.899 223.026 540.636 223.026C539.481 223.026 538.74 222.53 538.508 221.556L536.644 221.84C536.967 223.594 538.424 224.58 540.648 224.58C543.041 224.58 544.698 223.31 544.698 221.517C544.698 220.118 543.808 219.254 541.99 218.835L540.416 218.474C539.327 218.216 538.856 217.849 538.862 217.178C538.856 216.417 539.681 215.876 540.777 215.876C541.977 215.876 542.531 216.54 542.757 217.204L544.504 216.894ZM554.505 224.599C556.143 224.599 557.065 223.768 557.432 223.026H557.509V224.38H559.392V217.803C559.392 214.921 557.123 214.347 555.549 214.347C553.757 214.347 552.106 215.07 551.461 216.875L553.273 217.288C553.557 216.585 554.279 215.908 555.575 215.908C556.82 215.908 557.458 216.559 557.458 217.681V217.726C557.458 218.429 556.736 218.416 554.956 218.622C553.08 218.842 551.158 219.332 551.158 221.582C551.158 223.529 552.622 224.599 554.505 224.599ZM554.924 223.052C553.834 223.052 553.048 222.562 553.048 221.608C553.048 220.576 553.963 220.208 555.079 220.06C555.704 219.976 557.187 219.809 557.464 219.531V220.808C557.464 221.982 556.529 223.052 554.924 223.052ZM566.132 224.58C568.472 224.58 569.988 223.174 570.2 221.247H568.324C568.079 222.317 567.247 222.949 566.145 222.949C564.513 222.949 563.462 221.588 563.462 219.428C563.462 217.307 564.533 215.972 566.145 215.972C567.37 215.972 568.118 216.746 568.324 217.674H570.2C569.994 215.676 568.363 214.347 566.112 214.347C563.321 214.347 561.515 216.449 561.515 219.473C561.515 222.459 563.256 224.58 566.132 224.58ZM576.531 224.58C578.691 224.58 580.219 223.516 580.657 221.904L578.832 221.575C578.484 222.51 577.646 222.987 576.55 222.987C574.899 222.987 573.79 221.917 573.739 220.009H580.78V219.325C580.78 215.747 578.639 214.347 576.395 214.347C573.635 214.347 571.817 216.449 571.817 219.493C571.817 222.568 573.61 224.58 576.531 224.58ZM573.745 218.564C573.822 217.159 574.841 215.94 576.408 215.94C577.904 215.94 578.884 217.049 578.89 218.564H573.745Z" fill="#232526"/>
</g>
<g filter="url(#filter3_i)">
<rect x="403" y="321" width="411" height="8" rx="4" fill="black" fill-opacity="0.08"/>
</g>
<rect x="403" y="321" width="203" height="8" rx="4" fill="#0A84FF"/>
<g style="mix-blend-mode:luminosity">
<path d="M404.264 282.097V294.769H408.839C412.615 294.769 414.802 292.442 414.802 288.393C414.802 284.407 412.597 282.097 408.839 282.097H404.264ZM406.231 283.888H408.619C411.245 283.888 412.799 285.557 412.799 288.42C412.799 291.326 411.271 292.977 408.619 292.977H406.231V283.888ZM421.274 294.953C424.066 294.953 425.779 293.083 425.779 289.983C425.779 286.901 424.057 285.021 421.274 285.021C418.481 285.021 416.76 286.901 416.76 289.983C416.76 293.083 418.472 294.953 421.274 294.953ZM421.274 293.276C419.631 293.276 418.709 292.073 418.709 289.983C418.709 287.91 419.631 286.699 421.274 286.699C422.907 286.699 423.838 287.91 423.838 289.983C423.838 292.064 422.907 293.276 421.274 293.276ZM440.136 285.206H438.248L436.545 292.503H436.395L434.428 285.206H432.619L430.652 292.503H430.512L428.799 285.206H426.885L429.519 294.769H431.46L433.427 287.726H433.577L435.552 294.769H437.511L440.136 285.206ZM442.086 294.769H443.974V289.175C443.974 287.682 444.861 286.751 446.257 286.751C447.653 286.751 448.321 287.515 448.321 289.052V294.769H450.209V288.578C450.209 286.303 449.032 285.021 446.898 285.021C445.458 285.021 444.51 285.662 444.044 286.725H443.904V285.206H442.086V294.769ZM452.957 294.769H454.845V281.474H452.957V294.769ZM461.721 294.953C464.514 294.953 466.226 293.083 466.226 289.983C466.226 286.901 464.505 285.021 461.721 285.021C458.929 285.021 457.208 286.901 457.208 289.983C457.208 293.083 458.92 294.953 461.721 294.953ZM461.721 293.276C460.079 293.276 459.157 292.073 459.157 289.983C459.157 287.91 460.079 286.699 461.721 286.699C463.355 286.699 464.286 287.91 464.286 289.983C464.286 292.064 463.355 293.276 461.721 293.276ZM471.627 293.337C470.6 293.337 469.853 292.837 469.853 291.976C469.853 291.133 470.45 290.685 471.767 290.598L474.103 290.448V291.247C474.103 292.433 473.05 293.337 471.627 293.337ZM471.144 294.927C472.4 294.927 473.445 294.382 474.016 293.425H474.165V294.769H475.983V288.235C475.983 286.216 474.63 285.021 472.233 285.021C470.064 285.021 468.518 286.075 468.325 287.717H470.152C470.362 287.041 471.091 286.655 472.145 286.655C473.436 286.655 474.103 287.225 474.103 288.235V289.061L471.513 289.21C469.238 289.351 467.956 290.343 467.956 292.064C467.956 293.812 469.3 294.927 471.144 294.927ZM482.165 294.927C483.482 294.927 484.597 294.303 485.168 293.258H485.317V294.769H487.126V281.474H485.238V286.725H485.098C484.58 285.671 483.473 285.048 482.165 285.048C479.75 285.048 478.196 286.962 478.196 289.983C478.196 293.012 479.732 294.927 482.165 294.927ZM482.7 286.742C484.281 286.742 485.273 287.998 485.273 289.992C485.273 291.994 484.29 293.232 482.7 293.232C481.102 293.232 480.145 292.011 480.145 289.983C480.145 287.972 481.111 286.742 482.7 286.742ZM489.998 294.769H491.877V285.206H489.998V294.769ZM490.938 283.528C491.64 283.528 492.158 283.028 492.158 282.378C492.158 281.719 491.64 281.219 490.938 281.219C490.235 281.219 489.717 281.719 489.717 282.378C489.717 283.028 490.235 283.528 490.938 283.528ZM494.652 294.769H496.54V289.175C496.54 287.682 497.427 286.751 498.823 286.751C500.22 286.751 500.887 287.515 500.887 289.052V294.769H502.775V288.578C502.775 286.303 501.598 285.021 499.464 285.021C498.024 285.021 497.076 285.662 496.61 286.725H496.47V285.206H494.652V294.769ZM509.44 292.995C507.816 292.995 506.902 291.774 506.902 289.869C506.902 287.963 507.816 286.742 509.44 286.742C511.047 286.742 512.031 287.963 512.031 289.869C512.031 291.783 511.056 292.995 509.44 292.995ZM509.467 298.422C512.171 298.422 513.884 297.034 513.884 294.848V285.206H512.075V286.734H511.925C511.39 285.697 510.239 285.048 508.922 285.048C506.481 285.048 504.953 286.962 504.953 289.877C504.953 292.74 506.463 294.628 508.905 294.628C510.222 294.628 511.276 294.057 511.855 293.021H511.996V294.857C511.996 296.121 511.065 296.868 509.493 296.868C508.22 296.868 507.42 296.42 507.262 295.726H505.33C505.532 297.351 507.078 298.422 509.467 298.422ZM521.164 291.362C521.304 293.627 523.192 295.076 526.002 295.076C529.005 295.076 530.885 293.557 530.885 291.133C530.885 289.228 529.813 288.174 527.214 287.568L525.818 287.225C524.167 286.839 523.499 286.321 523.499 285.416C523.499 284.275 524.536 283.528 526.09 283.528C527.565 283.528 528.584 284.257 528.768 285.425H530.683C530.569 283.291 528.689 281.79 526.116 281.79C523.35 281.79 521.506 283.291 521.506 285.548C521.506 287.41 522.551 288.516 524.843 289.052L526.476 289.447C528.154 289.842 528.891 290.422 528.891 291.388C528.891 292.512 527.732 293.329 526.151 293.329C524.457 293.329 523.28 292.565 523.113 291.362H521.164ZM536.329 293.337C535.302 293.337 534.555 292.837 534.555 291.976C534.555 291.133 535.153 290.685 536.47 290.598L538.806 290.448V291.247C538.806 292.433 537.752 293.337 536.329 293.337ZM535.846 294.927C537.102 294.927 538.147 294.382 538.718 293.425H538.867V294.769H540.685V288.235C540.685 286.216 539.333 285.021 536.935 285.021C534.766 285.021 533.221 286.075 533.027 287.717H534.854C535.065 287.041 535.794 286.655 536.847 286.655C538.138 286.655 538.806 287.225 538.806 288.235V289.061L536.215 289.21C533.941 289.351 532.659 290.343 532.659 292.064C532.659 293.812 534.002 294.927 535.846 294.927ZM546.498 293.337C545.471 293.337 544.724 292.837 544.724 291.976C544.724 291.133 545.322 290.685 546.639 290.598L548.975 290.448V291.247C548.975 292.433 547.921 293.337 546.498 293.337ZM546.015 294.927C547.271 294.927 548.316 294.382 548.887 293.425H549.036V294.769H550.854V288.235C550.854 286.216 549.502 285.021 547.104 285.021C544.935 285.021 543.39 286.075 543.196 287.717H545.023C545.234 287.041 545.963 286.655 547.016 286.655C548.307 286.655 548.975 287.225 548.975 288.235V289.061L546.384 289.21C544.11 289.351 542.828 290.343 542.828 292.064C542.828 293.812 544.171 294.927 546.015 294.927ZM553.322 287.91C553.322 289.333 554.165 290.15 555.982 290.58L557.651 290.966C558.608 291.195 559.056 291.564 559.056 292.134C559.056 292.898 558.222 293.425 557.045 293.425C555.903 293.425 555.201 292.969 554.964 292.231H553.076C553.243 293.926 554.727 294.953 557.001 294.953C559.284 294.953 560.962 293.75 560.962 291.95C560.962 290.545 560.11 289.763 558.292 289.342L556.702 288.973C555.666 288.736 555.183 288.376 555.183 287.805C555.183 287.059 555.982 286.558 557.036 286.558C558.108 286.558 558.792 287.006 558.968 287.708H560.777C560.593 286.022 559.188 285.021 557.036 285.021C554.876 285.021 553.322 286.216 553.322 287.91ZM576.575 294.769H578.665L574.09 282.097H571.974L567.398 294.769H569.418L570.586 291.405H575.416L576.575 294.769ZM572.931 284.398H573.08L574.915 289.755H571.087L572.931 284.398ZM588.228 288.332C587.982 286.418 586.533 285.021 584.136 285.021C581.352 285.021 579.657 286.892 579.657 289.956C579.657 293.074 581.361 294.953 584.145 294.953C586.507 294.953 587.982 293.618 588.228 291.695H586.393C586.147 292.723 585.33 293.267 584.136 293.267C582.564 293.267 581.589 292.029 581.589 289.956C581.589 287.919 582.555 286.707 584.136 286.707C585.401 286.707 586.173 287.401 586.393 288.332H588.228ZM594.314 286.628C595.71 286.628 596.623 287.603 596.667 289.105H591.837C591.943 287.612 592.918 286.628 594.314 286.628ZM596.658 292.187C596.307 292.933 595.526 293.346 594.384 293.346C592.874 293.346 591.899 292.284 591.837 290.606V290.501H598.59V289.842C598.59 286.839 596.983 285.021 594.323 285.021C591.627 285.021 589.914 286.962 589.914 290.018C589.914 293.074 591.592 294.953 594.331 294.953C596.518 294.953 598.046 293.899 598.476 292.187H596.658ZM602.323 294.918C603.069 294.918 603.613 294.347 603.613 293.61C603.613 292.872 603.069 292.301 602.323 292.301C601.585 292.301 601.032 292.872 601.032 293.61C601.032 294.347 601.585 294.918 602.323 294.918ZM607.995 294.918C608.742 294.918 609.286 294.347 609.286 293.61C609.286 292.872 608.742 292.301 607.995 292.301C607.258 292.301 606.705 292.872 606.705 293.61C606.705 294.347 607.258 294.918 607.995 294.918ZM613.668 294.918C614.415 294.918 614.959 294.347 614.959 293.61C614.959 292.872 614.415 292.301 613.668 292.301C612.931 292.301 612.377 292.872 612.377 293.61C612.377 294.347 612.931 294.918 613.668 294.918Z" fill="#797979"/>
</g>
<g clip-path="url(#clip1)">
<rect x="316" y="269" width="69" height="69" rx="34.5" fill="#007AFF"/>
<path d="M368.36 284.64L377.432 281.333C378.003 281.125 378.383 280.582 378.383 279.973C378.383 279.001 377.443 278.305 376.513 278.59L352.118 286.059C344.902 288.689 340.1 295.55 340.1 303.231C340.1 310.926 335.281 317.796 328.046 320.416L320.857 323.02C320.294 323.224 319.919 323.758 319.919 324.356C319.919 325.314 320.847 325.997 321.761 325.714L349.181 317.221C354.676 315.231 358.337 310.013 358.337 304.169V298.963C358.337 292.557 362.342 286.834 368.36 284.64Z" fill="white"/>
</g>
</g>
<defs>
<filter id="filter0_d" x="-24" y="235" width="1200" height="880" filterUnits="userSpaceOnUse" color-interpolation-filters="sRGB">
<feFlood flood-opacity="0" result="BackgroundImageFix"/>
<feColorMatrix in="SourceAlpha" type="matrix" values="0 0 0 0 0 0 0 0 0 0 0 0 0 0 0 0 0 0 127 0" result="hardAlpha"/>
<feOffset/>
<feGaussianBlur stdDeviation="50"/>
<feComposite in2="hardAlpha" operator="out"/>
<feColorMatrix type="matrix" values="0 0 0 0 0.113725 0 0 0 0 0.113725 0 0 0 0 0.121569 0 0 0 0.08 0"/>
<feBlend mode="normal" in2="BackgroundImageFix" result="effect1_dropShadow"/>
<feBlend mode="normal" in="SourceGraphic" in2="effect1_dropShadow" result="shape"/>
</filter>
<filter id="filter1_d" x="898.767" y="402" width="112.506" height="34.5023" filterUnits="userSpaceOnUse" color-interpolation-filters="sRGB">
<feFlood flood-opacity="0" result="BackgroundImageFix"/>
<feColorMatrix in="SourceAlpha" type="matrix" values="0 0 0 0 0 0 0 0 0 0 0 0 0 0 0 0 0 0 127 0" result="hardAlpha"/>
<feMorphology radius="0.750126" operator="dilate" in="SourceAlpha" result="effect1_dropShadow"/>
<feOffset dy="0.750126"/>
<feGaussianBlur stdDeviation="0.750126"/>
<feColorMatrix type="matrix" values="0 0 0 0 0 0 0 0 0 0 0 0 0 0 0 0 0 0 0.1 0"/>
<feBlend mode="normal" in2="BackgroundImageFix" result="effect1_dropShadow"/>
<feBlend mode="normal" in="SourceGraphic" in2="effect1_dropShadow" result="shape"/>
</filter>
<filter id="filter2_d" x="215" y="889" width="340" height="340" filterUnits="userSpaceOnUse" color-interpolation-filters="sRGB">
<feFlood flood-opacity="0" result="BackgroundImageFix"/>
<feColorMatrix in="SourceAlpha" type="matrix" values="0 0 0 0 0 0 0 0 0 0 0 0 0 0 0 0 0 0 127 0" result="hardAlpha"/>
<feOffset dy="4"/>
<feGaussianBlur stdDeviation="20"/>
<feComposite in2="hardAlpha" operator="out"/>
<feColorMatrix type="matrix" values="0 0 0 0 0 0 0 0 0 0 0 0 0 0 0 0 0 0 0.07 0"/>
<feBlend mode="normal" in2="BackgroundImageFix" result="effect1_dropShadow"/>
<feBlend mode="normal" in="SourceGraphic" in2="effect1_dropShadow" result="shape"/>
</filter>
<filter id="filter3_i" x="403" y="321" width="411" height="8" filterUnits="userSpaceOnUse" color-interpolation-filters="sRGB">
<feFlood flood-opacity="0" result="BackgroundImageFix"/>
<feBlend mode="normal" in="SourceGraphic" in2="BackgroundImageFix" result="shape"/>
<feColorMatrix in="SourceAlpha" type="matrix" values="0 0 0 0 0 0 0 0 0 0 0 0 0 0 0 0 0 0 127 0" result="hardAlpha"/>
<feMorphology radius="1.38343" operator="erode" in="SourceAlpha" result="effect1_innerShadow"/>
<feOffset/>
<feGaussianBlur stdDeviation="0.691715"/>
<feComposite in2="hardAlpha" operator="arithmetic" k2="-1" k3="1"/>
<feColorMatrix type="matrix" values="0 0 0 0 0.890196 0 0 0 0 0.890196 0 0 0 0 0.890196 0 0 0 1 0"/>
<feBlend mode="normal" in2="shape" result="effect1_innerShadow"/>
</filter>
<clipPath id="clip0">
<rect width="1310" height="1350" fill="white"/>
</clipPath>
<clipPath id="clip1">
<rect x="316" y="269" width="69" height="69" rx="34.5" fill="white"/>
</clipPath>
</defs>
</svg>
