<svg width="1310" height="1350" viewBox="0 0 1310 1350" fill="none" xmlns="http://www.w3.org/2000/svg">
<g clip-path="url(#clip0)">
<path d="M1018.95 578H1105.05L1097.51 410.592L1238.75 501.436L1282 426.063L1132.03 349.5L1282 272.936L1238.75 197.563L1097.51 288.408L1105.05 121H1018.95L1026.49 288.408L885.246 197.563L842 272.936L991.973 349.5L842 426.063L885.246 501.436L1026.49 410.592L1018.95 578Z" fill="#F0F2F4"/>
<g filter="url(#filter0_d)">
<rect x="76" y="335" width="1000" height="680" rx="16" fill="white"/>
<rect x="861" y="392" width="148" height="54" rx="27" fill="#0A84FF" stroke="#0A84FF" stroke-width="4"/>
<path d="M897.266 415.573H899.324C899.262 413.309 897.26 411.665 894.387 411.665C891.549 411.665 889.374 413.288 889.374 415.725C889.374 417.693 890.783 418.846 893.054 419.461L894.725 419.917C896.238 420.317 897.405 420.814 897.405 422.071C897.405 423.452 896.086 424.364 894.27 424.364C892.626 424.364 891.259 423.632 891.135 422.092H888.994C889.132 424.654 891.114 426.235 894.284 426.235C897.605 426.235 899.518 424.488 899.518 422.092C899.518 419.544 897.246 418.556 895.45 418.115L894.069 417.755C892.965 417.472 891.494 416.954 891.501 415.601C891.501 414.4 892.599 413.509 894.339 413.509C895.961 413.509 897.115 414.268 897.266 415.573ZM906.852 415.394H904.677V412.853H902.613V415.394H901.059V417.051H902.613V423.314C902.606 425.24 904.077 426.173 905.706 426.138C906.362 426.131 906.804 426.007 907.046 425.917L906.673 424.212C906.535 424.239 906.279 424.301 905.948 424.301C905.278 424.301 904.677 424.08 904.677 422.886V417.051H906.852V415.394ZM912.223 426.235C913.977 426.235 914.964 425.344 915.358 424.55H915.44V426H917.457V418.957C917.457 415.87 915.026 415.256 913.341 415.256C911.422 415.256 909.654 416.029 908.964 417.963L910.904 418.405C911.208 417.652 911.981 416.927 913.369 416.927C914.702 416.927 915.385 417.624 915.385 418.826V418.874C915.385 419.627 914.612 419.613 912.706 419.834C910.697 420.069 908.639 420.593 908.639 423.003C908.639 425.089 910.206 426.235 912.223 426.235ZM912.672 424.578C911.505 424.578 910.662 424.053 910.662 423.031C910.662 421.926 911.643 421.532 912.837 421.374C913.507 421.284 915.095 421.104 915.392 420.807V422.175C915.392 423.431 914.391 424.578 912.672 424.578ZM920.207 426H922.271V419.523C922.271 418.135 923.341 417.134 924.805 417.134C925.233 417.134 925.717 417.21 925.882 417.258V415.283C925.675 415.256 925.268 415.235 925.006 415.235C923.763 415.235 922.699 415.939 922.313 417.079H922.202V415.394H920.207V426ZM933.247 415.394H931.072V412.853H929.007V415.394H927.453V417.051H929.007V423.314C929 425.24 930.471 426.173 932.1 426.138C932.756 426.131 933.198 426.007 933.44 425.917L933.067 424.212C932.929 424.239 932.674 424.301 932.342 424.301C931.672 424.301 931.072 424.08 931.072 422.886V417.051H933.247V415.394ZM952.256 411.859H950.143V422.244H950.012L942.817 411.859H940.842V426H942.976V415.629H943.107L950.295 426H952.256V411.859ZM959.67 426.214C962.66 426.214 964.614 424.025 964.614 420.745C964.614 417.445 962.66 415.256 959.67 415.256C956.68 415.256 954.726 417.445 954.726 420.745C954.726 424.025 956.68 426.214 959.67 426.214ZM959.677 424.481C957.723 424.481 956.812 422.775 956.812 420.738C956.812 418.708 957.723 416.982 959.677 416.982C961.618 416.982 962.529 418.708 962.529 420.738C962.529 422.775 961.618 424.481 959.677 424.481ZM968.895 426H970.995L973.149 418.342H973.308L975.462 426H977.568L980.682 415.394H978.549L976.484 423.148H976.38L974.309 415.394H972.175L970.09 423.183H969.986L967.908 415.394H965.774L968.895 426Z" fill="white"/>
<path d="M423 408.001C423 404.687 425.687 402 429.001 402H802.522C805.837 402 808.523 404.687 808.523 408.001V429.001C808.523 432.315 805.837 435.002 802.522 435.002H429.001C425.687 435.002 423 432.315 423 429.001V408.001Z" fill="#313135" fill-opacity="0.05"/>
<path d="M451.229 425.001H453.321L448.741 412.316H446.623L442.043 425.001H444.065L445.234 421.634H450.068L451.229 425.001ZM447.581 414.619H447.73L449.567 419.982H445.735L447.581 414.619ZM455.404 425.001H457.294V411.692H455.404V425.001ZM460.222 425.001H462.111V411.692H460.222V425.001Z" fill="#1D1D1F"/>
<rect x="481.256" y="409.5" width="1.50025" height="18.003" fill="black" fill-opacity="0.05"/>
<path d="M502.347 411.908H500.372V425.001H502.347V411.908ZM506.982 419.17C506.982 417.604 507.941 416.709 509.271 416.709C510.569 416.709 511.355 417.559 511.355 418.985V425.001H513.267V418.755C513.267 416.326 511.93 415.053 509.923 415.053C508.446 415.053 507.481 415.737 507.027 416.779H506.905V415.181H505.071V425.001H506.982V419.17ZM519.967 425.199C522.287 425.199 523.79 423.805 524.001 421.894H522.14C521.897 422.955 521.073 423.582 519.979 423.582C518.362 423.582 517.32 422.233 517.32 420.091C517.32 417.988 518.381 416.664 519.979 416.664C521.194 416.664 521.936 417.432 522.14 418.352H524.001C523.796 416.37 522.179 415.053 519.947 415.053C517.179 415.053 515.389 417.137 515.389 420.136C515.389 423.096 517.115 425.199 519.967 425.199ZM530.181 425.199C532.949 425.199 534.759 423.173 534.759 420.136C534.759 417.08 532.949 415.053 530.181 415.053C527.413 415.053 525.604 417.08 525.604 420.136C525.604 423.173 527.413 425.199 530.181 425.199ZM530.188 423.594C528.378 423.594 527.534 422.015 527.534 420.129C527.534 418.25 528.378 416.652 530.188 416.652C531.984 416.652 532.828 418.25 532.828 420.129C532.828 422.015 531.984 423.594 530.188 423.594ZM536.892 425.001H538.804V418.947C538.804 417.623 539.731 416.703 540.818 416.703C541.879 416.703 542.614 417.406 542.614 418.474V425.001H544.519V418.742C544.519 417.559 545.242 416.703 546.488 416.703C547.499 416.703 548.33 417.265 548.33 418.595V425.001H550.241V418.416C550.241 416.172 548.988 415.053 547.211 415.053C545.798 415.053 544.737 415.731 544.264 416.779H544.161C543.733 415.705 542.832 415.053 541.521 415.053C540.223 415.053 539.258 415.699 538.849 416.779H538.727V415.181H536.892V425.001ZM557.035 425.199C559.177 425.199 560.692 424.144 561.127 422.546L559.318 422.22C558.973 423.147 558.141 423.62 557.055 423.62C555.418 423.62 554.318 422.559 554.267 420.666H561.249V419.989C561.249 416.441 559.126 415.053 556.901 415.053C554.165 415.053 552.362 417.137 552.362 420.155C552.362 423.205 554.139 425.199 557.035 425.199ZM554.274 419.234C554.35 417.841 555.36 416.632 556.914 416.632C558.397 416.632 559.369 417.732 559.375 419.234H554.274Z" fill="#1D1D1F"/>
<rect x="579.762" y="409.5" width="1.50025" height="18.003" fill="black" fill-opacity="0.05"/>
<path d="M598.918 425.001H607.203V423.3H600.893V419.292H606.698V417.598H600.893V413.608H607.127V411.908H598.918V425.001ZM611.121 415.181H609.024L612.041 420.091L608.985 425.001H611.082L613.288 421.331L615.5 425.001H617.591L614.503 420.091L617.565 415.181H615.474L613.288 419.004L611.121 415.181ZM619.528 428.683H621.439V423.473H621.554C621.899 424.1 622.603 425.193 624.393 425.193C626.771 425.193 628.497 423.288 628.497 420.11C628.497 416.926 626.745 415.053 624.374 415.053C622.552 415.053 621.893 416.166 621.554 416.773H621.394V415.181H619.528V428.683ZM621.401 420.091C621.401 418.039 622.296 416.677 623.964 416.677C625.697 416.677 626.566 418.141 626.566 420.091C626.566 422.06 625.671 423.563 623.964 423.563C622.321 423.563 621.401 422.156 621.401 420.091ZM634.871 425.199C637.013 425.199 638.528 424.144 638.963 422.546L637.153 422.22C636.808 423.147 635.977 423.62 634.89 423.62C633.254 423.62 632.154 422.559 632.103 420.666H639.084V419.989C639.084 416.441 636.962 415.053 634.737 415.053C632.001 415.053 630.198 417.137 630.198 420.155C630.198 423.205 631.975 425.199 634.871 425.199ZM632.109 419.234C632.186 417.841 633.196 416.632 634.75 416.632C636.233 416.632 637.205 417.732 637.211 419.234H632.109ZM643.117 419.17C643.117 417.604 644.076 416.709 645.405 416.709C646.703 416.709 647.49 417.559 647.49 418.985V425.001H649.401V418.755C649.401 416.326 648.065 415.053 646.057 415.053C644.581 415.053 643.615 415.737 643.161 416.779H643.04V415.181H641.205V425.001H643.117V419.17ZM659.323 417.579C658.927 416.051 657.731 415.053 655.609 415.053C653.39 415.053 651.818 416.223 651.818 417.962C651.818 419.356 652.662 420.283 654.503 420.692L656.165 421.056C657.111 421.267 657.552 421.689 657.552 422.303C657.552 423.064 656.74 423.658 655.487 423.658C654.343 423.658 653.608 423.166 653.378 422.201L651.53 422.482C651.85 424.221 653.294 425.199 655.5 425.199C657.872 425.199 659.515 423.94 659.515 422.162C659.515 420.775 658.633 419.918 656.83 419.503L655.27 419.145C654.19 418.889 653.723 418.525 653.729 417.86C653.723 417.105 654.541 416.568 655.628 416.568C656.817 416.568 657.367 417.227 657.591 417.885L659.323 417.579ZM665.849 425.199C667.991 425.199 669.506 424.144 669.941 422.546L668.131 422.22C667.786 423.147 666.955 423.62 665.868 423.62C664.232 423.62 663.132 422.559 663.081 420.666H670.062V419.989C670.062 416.441 667.94 415.053 665.715 415.053C662.978 415.053 661.176 417.137 661.176 420.155C661.176 423.205 662.953 425.199 665.849 425.199ZM663.087 419.234C663.164 417.841 664.174 416.632 665.727 416.632C667.211 416.632 668.182 417.732 668.189 419.234H663.087ZM679.541 417.579C679.145 416.051 677.95 415.053 675.827 415.053C673.609 415.053 672.036 416.223 672.036 417.962C672.036 419.356 672.88 420.283 674.721 420.692L676.383 421.056C677.329 421.267 677.771 421.689 677.771 422.303C677.771 423.064 676.959 423.658 675.706 423.658C674.561 423.658 673.826 423.166 673.596 422.201L671.748 422.482C672.068 424.221 673.513 425.199 675.718 425.199C678.09 425.199 679.733 423.94 679.733 422.162C679.733 420.775 678.851 419.918 677.048 419.503L675.488 419.145C674.408 418.889 673.941 418.525 673.947 417.86C673.941 417.105 674.759 416.568 675.846 416.568C677.035 416.568 677.585 417.227 677.809 417.885L679.541 417.579Z" fill="#1D1D1F"/>
<rect x="698.268" y="409.5" width="1.50025" height="18.003" fill="black" fill-opacity="0.05"/>
<g filter="url(#filter1_d)">
<path d="M699.018 409.501C699.018 406.187 701.704 403.5 705.019 403.5H801.022C804.336 403.5 807.023 406.187 807.023 409.501V427.501C807.023 430.815 804.336 433.502 801.022 433.502H705.019C701.704 433.502 699.018 430.815 699.018 427.501V409.501Z" fill="white"/>
<path d="M717.363 425.001H719.338V420.046H722.023C722.068 420.046 722.107 420.046 722.151 420.046L724.811 425.001H727.061L724.159 419.701C725.763 419.107 726.563 417.77 726.563 416.012C726.563 413.602 725.067 411.908 722.03 411.908H717.363V425.001ZM719.338 418.346V413.602H721.819C723.769 413.602 724.574 414.529 724.574 416.012C724.574 417.489 723.769 418.346 721.844 418.346H719.338ZM732.922 425.199C735.064 425.199 736.579 424.144 737.014 422.546L735.204 422.22C734.859 423.147 734.028 423.62 732.941 423.62C731.305 423.62 730.205 422.559 730.154 420.666H737.135V419.989C737.135 416.441 735.013 415.053 732.788 415.053C730.052 415.053 728.249 417.137 728.249 420.155C728.249 423.205 730.026 425.199 732.922 425.199ZM730.16 419.234C730.237 417.841 731.247 416.632 732.801 416.632C734.284 416.632 735.256 417.732 735.262 419.234H730.16ZM747.358 415.181H745.306L742.825 422.738H742.723L740.236 415.181H738.184L741.751 425.001H743.797L747.358 415.181ZM753.035 425.199C755.177 425.199 756.692 424.144 757.126 422.546L755.317 422.22C754.972 423.147 754.141 423.62 753.054 423.62C751.417 423.62 750.318 422.559 750.267 420.666H757.248V419.989C757.248 416.441 755.125 415.053 752.901 415.053C750.164 415.053 748.362 417.137 748.362 420.155C748.362 423.205 750.139 425.199 753.035 425.199ZM750.273 419.234C750.35 417.841 751.36 416.632 752.913 416.632C754.397 416.632 755.368 417.732 755.375 419.234H750.273ZM761.28 419.17C761.28 417.604 762.239 416.709 763.569 416.709C764.867 416.709 765.653 417.559 765.653 418.985V425.001H767.565V418.755C767.565 416.326 766.229 415.053 764.221 415.053C762.744 415.053 761.779 415.737 761.325 416.779H761.204V415.181H759.369V425.001H761.28V419.17ZM776.349 420.929C776.355 422.597 775.115 423.39 774.041 423.39C772.858 423.39 772.04 422.533 772.04 421.197V415.181H770.128V421.427C770.128 423.863 771.465 425.129 773.351 425.129C774.827 425.129 775.831 424.349 776.285 423.3H776.387V425.001H778.267V415.181H776.349V420.929ZM785.068 425.199C787.209 425.199 788.724 424.144 789.159 422.546L787.35 422.22C787.005 423.147 786.174 423.62 785.087 423.62C783.45 423.62 782.351 422.559 782.299 420.666H789.281V419.989C789.281 416.441 787.158 415.053 784.933 415.053C782.197 415.053 780.394 417.137 780.394 420.155C780.394 423.205 782.172 425.199 785.068 425.199ZM782.306 419.234C782.383 417.841 783.393 416.632 784.946 416.632C786.429 416.632 787.401 417.732 787.407 419.234H782.306Z" fill="#1D1D1F"/>
</g>
<rect x="1016" y="526" width="5" height="13" fill="white"/>
<path d="M149.818 431C157.352 431 161.82 426.339 161.82 418.612C161.82 410.909 157.352 406.273 149.987 406.273H141.439V431H149.818ZM145.918 427.124V410.148H149.734C154.756 410.148 157.376 412.95 157.376 418.612C157.376 424.299 154.756 427.124 149.601 427.124H145.918ZM171.219 431.374C174.129 431.374 175.868 430.01 176.664 428.452H176.809V431H181.011V418.588C181.011 413.686 177.015 412.213 173.477 412.213C169.577 412.213 166.583 413.952 165.617 417.332L169.698 417.912C170.132 416.644 171.364 415.558 173.501 415.558C175.529 415.558 176.64 416.596 176.64 418.419V418.491C176.64 419.747 175.324 419.808 172.052 420.158C168.454 420.544 165.013 421.619 165.013 425.796C165.013 429.442 167.681 431.374 171.219 431.374ZM172.354 428.163C170.531 428.163 169.227 427.33 169.227 425.724C169.227 424.045 170.688 423.345 172.644 423.067C173.791 422.911 176.085 422.621 176.652 422.162V424.347C176.652 426.412 174.986 428.163 172.354 428.163ZM194.667 412.455H191.008V408.011H186.637V412.455H184.005V415.835H186.637V426.146C186.613 429.636 189.149 431.35 192.433 431.254C193.676 431.217 194.534 430.976 195.005 430.819L194.268 427.402C194.027 427.462 193.532 427.571 192.988 427.571C191.89 427.571 191.008 427.185 191.008 425.422V415.835H194.667V412.455ZM203.659 431.374C206.568 431.374 208.307 430.01 209.104 428.452H209.249V431H213.45V418.588C213.45 413.686 209.454 412.213 205.916 412.213C202.017 412.213 199.022 413.952 198.056 417.332L202.137 417.912C202.572 416.644 203.803 415.558 205.941 415.558C207.969 415.558 209.08 416.596 209.08 418.419V418.491C209.08 419.747 207.764 419.808 204.492 420.158C200.894 420.544 197.453 421.619 197.453 425.796C197.453 429.442 200.121 431.374 203.659 431.374ZM204.794 428.163C202.97 428.163 201.666 427.33 201.666 425.724C201.666 424.045 203.127 423.345 205.083 423.067C206.23 422.911 208.524 422.621 209.092 422.162V424.347C209.092 426.412 207.426 428.163 204.794 428.163Z" fill="#1D1D1F"/>
<path d="M935 763L140 763" stroke="#A7B2BE" stroke-width="4" stroke-dasharray="10 14"/>
<path d="M946.977 754.781C943.508 754.758 941.203 757.141 941.203 760.266C941.211 763.281 943.359 765.461 946.164 765.461C947.891 765.461 949.391 764.625 950.164 763.25H950.273C950.266 766.672 949.023 768.711 946.813 768.711C945.43 768.711 944.5 767.914 944.211 766.641H941.359C941.688 769.289 943.781 771.219 946.813 771.219C950.648 771.219 953.094 768.016 953.086 762.508C953.078 756.68 950.047 754.797 946.977 754.781ZM946.984 757.125C948.695 757.125 949.953 758.547 949.953 760.18C949.961 761.836 948.641 763.258 946.953 763.258C945.25 763.258 944.023 761.914 944.016 760.203C944.016 758.484 945.289 757.125 946.984 757.125ZM961.362 771.305C965.221 771.313 967.526 768.266 967.526 763.016C967.526 757.797 965.205 754.781 961.362 754.781C957.518 754.781 955.205 757.789 955.198 763.016C955.198 768.258 957.502 771.305 961.362 771.305ZM961.362 768.859C959.369 768.859 958.119 766.859 958.127 763.016C958.135 759.203 959.377 757.195 961.362 757.195C963.354 757.195 964.596 759.203 964.604 763.016C964.604 766.859 963.362 768.859 961.362 768.859ZM982.778 765.953C982.778 767.781 981.473 768.687 980.223 768.687C978.864 768.687 977.958 767.727 977.958 766.203V759H975.13V766.641C975.13 769.523 976.77 771.156 979.13 771.156C980.926 771.156 982.192 770.211 982.739 768.867H982.864V771H985.606V759H982.778V765.953ZM997.759 762.172C997.368 760.141 995.743 758.844 992.931 758.844C990.04 758.844 988.071 760.266 988.079 762.484C988.071 764.234 989.149 765.391 991.454 765.867L993.501 766.297C994.603 766.539 995.118 766.984 995.118 767.664C995.118 768.484 994.228 769.102 992.884 769.102C991.587 769.102 990.743 768.539 990.501 767.461L987.743 767.727C988.095 769.93 989.946 771.234 992.892 771.234C995.892 771.234 998.009 769.68 998.017 767.406C998.009 765.695 996.907 764.648 994.642 764.156L992.595 763.719C991.376 763.445 990.892 763.023 990.899 762.328C990.892 761.516 991.79 760.953 992.97 760.953C994.274 760.953 994.962 761.664 995.181 762.453L997.759 762.172ZM1004.56 771.211C1006.62 771.211 1007.55 769.984 1008 769.109H1008.17V771H1010.95V755H1008.12V760.984H1008C1007.57 760.117 1006.69 758.844 1004.57 758.844C1001.8 758.844 999.616 761.016 999.616 765.016C999.616 768.969 1001.73 771.211 1004.56 771.211ZM1005.35 768.891C1003.48 768.891 1002.5 767.25 1002.5 765C1002.5 762.766 1003.47 761.164 1005.35 761.164C1007.17 761.164 1008.17 762.672 1008.17 765C1008.17 767.328 1007.16 768.891 1005.35 768.891Z" fill="#1D1D1F"/>
<path d="M141 947L152.291 920.209C152.542 919.614 153.284 919.409 153.805 919.792L171.171 932.567C171.549 932.845 172.069 932.823 172.422 932.514L195.837 912.04M230.733 912.04L250.598 872.585C250.875 872.035 251.579 871.864 252.078 872.225L264.65 881.328C265.158 881.696 265.876 881.51 266.142 880.942L288.496 833.217C288.814 832.537 289.74 832.437 290.196 833.034L301.832 848.277C302.277 848.861 303.179 848.781 303.516 848.128L329.894 796.958C330.285 796.199 331.387 796.248 331.709 797.039L345.462 830.784C345.672 831.3 346.265 831.545 346.779 831.327L363.532 824.218C363.81 824.1 364.021 823.861 364.103 823.57L367.891 810.194C368.127 809.361 369.24 809.201 369.701 809.935L384.032 832.777C384.409 833.377 385.273 833.406 385.689 832.833L391.175 825.266C391.598 824.683 392.48 824.724 392.846 825.345L403.829 843.955C404.231 844.636 405.228 844.602 405.583 843.895L431.637 792.055C431.981 791.372 432.933 791.311 433.36 791.946L442.917 806.14C443.403 806.863 444.516 806.662 444.719 805.815L460.142 741.421C460.377 740.443 461.745 740.383 462.064 741.337L469.689 764.175C469.974 765.028 471.153 765.101 471.54 764.289L478.345 750.023C478.748 749.178 479.987 749.301 480.217 750.209L489.173 785.621C489.442 786.683 490.977 786.602 491.133 785.518L501.365 714.161C501.497 713.246 502.692 712.984 503.195 713.76L521.007 741.275C521.463 741.979 522.531 741.843 522.795 741.048L529.818 719.954C530.045 719.274 530.892 719.046 531.429 719.52L535.978 723.536C536.511 724.006 537.35 723.787 537.584 723.116L577.558 608.697C577.896 607.731 579.294 607.835 579.485 608.839L586.665 646.544C586.799 647.243 587.6 647.583 588.196 647.193L600.371 639.217C600.917 638.859 601.653 639.111 601.865 639.729L613.518 673.709C613.779 674.473 614.791 674.628 615.269 673.978L619.048 668.846C619.494 668.241 620.423 668.326 620.752 669.002L632.178 692.493C632.642 693.447 634.078 693.117 634.078 692.056V684.448C634.078 683.411 635.461 683.06 635.956 683.97L643.845 698.478C644.264 699.249 645.402 699.145 645.674 698.311L648.302 690.257C648.576 689.418 649.723 689.319 650.136 690.099L664.835 717.841C665.286 718.693 666.563 718.475 666.707 717.522L672.407 679.791C672.565 678.742 674.031 678.629 674.349 679.64L687.911 722.77C688.148 723.525 689.128 723.718 689.634 723.109L697.392 713.77C697.869 713.196 698.782 713.327 699.079 714.01L733.287 792.803C733.688 793.727 735.049 793.545 735.194 792.549L738.33 771.017C738.469 770.063 739.743 769.838 740.2 770.686L747.695 784.596C748.102 785.35 749.208 785.277 749.511 784.474L752.711 776.002C752.97 775.316 753.855 775.133 754.365 775.66L766.358 788.066C766.935 788.663 767.946 788.338 768.066 787.517L778.571 716.116C778.719 715.111 780.098 714.941 780.485 715.881L809.338 785.921C809.733 786.877 811.142 786.679 811.257 785.651L818.12 724.176C818.233 723.163 819.612 722.949 820.027 723.879L831.571 749.752C831.984 750.677 833.351 750.474 833.477 749.469L840.791 691.179C840.913 690.208 842.214 689.972 842.669 690.839L854.744 713.851C855.191 714.704 856.466 714.494 856.617 713.544L860.408 689.7C860.528 688.946 861.415 688.599 862.015 689.072L875.286 699.531C875.865 699.988 876.722 699.681 876.881 698.961L884.367 665.036C884.569 664.12 885.807 663.961 886.234 664.797L900.713 693.153C901.176 694.059 902.537 693.777 902.602 692.762L908.754 596.38C908.809 595.518 909.857 595.126 910.464 595.741L918.458 603.845C919.019 604.414 919.988 604.127 920.149 603.344L935 531" stroke="#0A84FF" stroke-width="6" stroke-linecap="round"/>
</g>
<rect x="531" y="966" width="685" height="158" rx="16" fill="#0A84FF"/>
<rect x="566" y="1005" width="120" height="80" rx="6.4" fill="white"/>
<path d="M569.2 1011.4C569.2 1009.63 570.633 1008.2 572.4 1008.2H679.6C681.368 1008.2 682.8 1009.63 682.8 1011.4V1056.2C682.8 1057.08 682.084 1057.8 681.2 1057.8H570.8C569.917 1057.8 569.2 1057.08 569.2 1056.2V1011.4Z" fill="#F0F2F4"/>
<rect x="575.6" y="1045" width="100.8" height="6.4" rx="3.2" fill="#0A84FF"/>
<rect x="652.4" y="1065.8" width="17.6" height="4.8" rx="2.4" fill="#0A84FF"/>
<rect x="575.6" y="1022.6" width="16" height="12.8" rx="3.2" fill="#0A84FF"/>
<path d="M720.068 1013.73H716.557V1037H720.068V1013.73ZM728.307 1026.64C728.307 1023.85 730.011 1022.26 732.375 1022.26C734.682 1022.26 736.08 1023.77 736.08 1026.31V1037H739.477V1025.9C739.477 1021.58 737.102 1019.32 733.534 1019.32C730.909 1019.32 729.193 1020.53 728.386 1022.39H728.17V1019.55H724.909V1037H728.307V1026.64ZM751.386 1037.35C755.511 1037.35 758.182 1034.88 758.557 1031.48H755.25C754.818 1033.36 753.352 1034.48 751.409 1034.48C748.534 1034.48 746.682 1032.08 746.682 1028.27C746.682 1024.53 748.568 1022.18 751.409 1022.18C753.568 1022.18 754.886 1023.55 755.25 1025.18H758.557C758.193 1021.66 755.318 1019.32 751.352 1019.32C746.432 1019.32 743.25 1023.02 743.25 1028.35C743.25 1033.61 746.318 1037.35 751.386 1037.35ZM769.543 1037.35C774.463 1037.35 777.679 1033.75 777.679 1028.35C777.679 1022.92 774.463 1019.32 769.543 1019.32C764.622 1019.32 761.406 1022.92 761.406 1028.35C761.406 1033.75 764.622 1037.35 769.543 1037.35ZM769.554 1034.5C766.338 1034.5 764.838 1031.69 764.838 1028.34C764.838 1025 766.338 1022.16 769.554 1022.16C772.747 1022.16 774.247 1025 774.247 1028.34C774.247 1031.69 772.747 1034.5 769.554 1034.5ZM781.472 1037H784.869V1026.24C784.869 1023.89 786.517 1022.25 788.449 1022.25C790.335 1022.25 791.642 1023.5 791.642 1025.4V1037H795.028V1025.88C795.028 1023.77 796.312 1022.25 798.528 1022.25C800.324 1022.25 801.801 1023.25 801.801 1025.61V1037H805.199V1025.3C805.199 1021.31 802.972 1019.32 799.812 1019.32C797.301 1019.32 795.415 1020.52 794.574 1022.39H794.392C793.631 1020.48 792.028 1019.32 789.699 1019.32C787.392 1019.32 785.676 1020.47 784.949 1022.39H784.733V1019.55H781.472V1037ZM817.276 1037.35C821.082 1037.35 823.776 1035.48 824.548 1032.64L821.332 1032.06C820.719 1033.7 819.241 1034.55 817.31 1034.55C814.401 1034.55 812.446 1032.66 812.355 1029.3H824.764V1028.09C824.764 1021.78 820.991 1019.32 817.037 1019.32C812.173 1019.32 808.969 1023.02 808.969 1028.39C808.969 1033.81 812.128 1037.35 817.276 1037.35ZM812.366 1026.75C812.503 1024.27 814.298 1022.12 817.06 1022.12C819.696 1022.12 821.423 1024.08 821.435 1026.75H812.366ZM843.776 1037.33C845.878 1037.33 848.207 1036.62 849.776 1035.16L851.344 1037H855.185L851.878 1033.05C852.866 1031.73 853.81 1029.66 853.81 1026.43H850.741C850.741 1027.99 850.378 1029.38 849.776 1030.53L845.116 1024.97L846.707 1023.8C848.639 1022.39 849.798 1020.76 849.798 1018.55C849.798 1015.83 847.605 1013.48 844.026 1013.48C840.48 1013.48 838.151 1015.76 838.151 1018.98C838.151 1021.06 839.241 1022.7 840.707 1024.49C838.048 1026.33 836.241 1028.05 836.241 1030.82C836.241 1034.56 839.094 1037.33 843.776 1037.33ZM847.866 1032.91C846.662 1033.91 845.219 1034.45 843.787 1034.45C841.264 1034.45 839.616 1032.74 839.616 1030.73C839.616 1030.01 840.219 1028.58 842.037 1027.24L842.651 1026.78L847.866 1032.91ZM843.241 1022.7C842.185 1021.41 841.355 1020.22 841.355 1019.03C841.355 1017.68 842.469 1016.32 844.105 1016.32C845.673 1016.32 846.696 1017.55 846.696 1018.64C846.696 1020.02 845.935 1020.86 844.673 1021.69L843.241 1022.7ZM716.557 1076H731.284V1072.98H720.068V1065.85H730.386V1062.84H720.068V1055.75H731.148V1052.73H716.557V1076ZM738.247 1058.55H734.52L739.884 1067.27L734.452 1076H738.179L742.099 1069.48L746.031 1076H749.747L744.259 1067.27L749.702 1058.55H745.986L742.099 1065.34L738.247 1058.55ZM753.19 1082.55H756.588V1073.28H756.793C757.406 1074.4 758.656 1076.34 761.838 1076.34C766.065 1076.34 769.134 1072.95 769.134 1067.31C769.134 1061.65 766.02 1058.32 761.804 1058.32C758.565 1058.32 757.395 1060.3 756.793 1061.38H756.509V1058.55H753.19V1082.55ZM756.52 1067.27C756.52 1063.62 758.111 1061.2 761.077 1061.2C764.156 1061.2 765.702 1063.81 765.702 1067.27C765.702 1070.77 764.111 1073.44 761.077 1073.44C758.156 1073.44 756.52 1070.94 756.52 1067.27ZM780.463 1076.35C784.27 1076.35 786.963 1074.48 787.736 1071.64L784.52 1071.06C783.906 1072.7 782.429 1073.55 780.497 1073.55C777.588 1073.55 775.634 1071.66 775.543 1068.3H787.952V1067.09C787.952 1060.78 784.179 1058.32 780.224 1058.32C775.361 1058.32 772.156 1062.02 772.156 1067.39C772.156 1072.81 775.315 1076.35 780.463 1076.35ZM775.554 1065.75C775.69 1063.27 777.486 1061.12 780.247 1061.12C782.884 1061.12 784.611 1063.08 784.622 1065.75H775.554ZM795.119 1065.64C795.119 1062.85 796.824 1061.26 799.188 1061.26C801.494 1061.26 802.892 1062.77 802.892 1065.31V1076H806.29V1064.9C806.29 1060.58 803.915 1058.32 800.347 1058.32C797.722 1058.32 796.006 1059.53 795.199 1061.39H794.983V1058.55H791.722V1076H795.119V1065.64ZM823.926 1062.81C823.222 1060.09 821.097 1058.32 817.324 1058.32C813.381 1058.32 810.585 1060.4 810.585 1063.49C810.585 1065.97 812.085 1067.61 815.358 1068.34L818.312 1068.99C819.994 1069.36 820.778 1070.11 820.778 1071.2C820.778 1072.56 819.335 1073.61 817.108 1073.61C815.074 1073.61 813.767 1072.74 813.358 1071.02L810.074 1071.52C810.642 1074.61 813.21 1076.35 817.131 1076.35C821.347 1076.35 824.267 1074.11 824.267 1070.95C824.267 1068.49 822.699 1066.97 819.494 1066.23L816.722 1065.59C814.801 1065.14 813.972 1064.49 813.983 1063.31C813.972 1061.97 815.426 1061.01 817.358 1061.01C819.472 1061.01 820.449 1062.18 820.847 1063.35L823.926 1062.81ZM835.526 1076.35C839.332 1076.35 842.026 1074.48 842.798 1071.64L839.582 1071.06C838.969 1072.7 837.491 1073.55 835.56 1073.55C832.651 1073.55 830.696 1071.66 830.605 1068.3H843.014V1067.09C843.014 1060.78 839.241 1058.32 835.287 1058.32C830.423 1058.32 827.219 1062.02 827.219 1067.39C827.219 1072.81 830.378 1076.35 835.526 1076.35ZM830.616 1065.75C830.753 1063.27 832.548 1061.12 835.31 1061.12C837.946 1061.12 839.673 1063.08 839.685 1065.75H830.616ZM859.864 1062.81C859.159 1060.09 857.034 1058.32 853.261 1058.32C849.318 1058.32 846.523 1060.4 846.523 1063.49C846.523 1065.97 848.023 1067.61 851.295 1068.34L854.25 1068.99C855.932 1069.36 856.716 1070.11 856.716 1071.2C856.716 1072.56 855.273 1073.61 853.045 1073.61C851.011 1073.61 849.705 1072.74 849.295 1071.02L846.011 1071.52C846.58 1074.61 849.148 1076.35 853.068 1076.35C857.284 1076.35 860.205 1074.11 860.205 1070.95C860.205 1068.49 858.636 1066.97 855.432 1066.23L852.659 1065.59C850.739 1065.14 849.909 1064.49 849.92 1063.31C849.909 1061.97 851.364 1061.01 853.295 1061.01C855.409 1061.01 856.386 1062.18 856.784 1063.35L859.864 1062.81Z" fill="white"/>
<path d="M1080.08 1053.6H1093.18V1059H1097.16V1053.6H1100.82V1050.07H1097.16V1031.36H1092.02L1080.08 1050.23V1053.6ZM1093.21 1050.07H1084.45V1049.85L1092.99 1036.33H1093.21V1050.07ZM1104.94 1053.6H1118.04V1059H1122.03V1053.6H1125.68V1050.07H1122.03V1031.36H1116.88L1104.94 1050.23V1053.6ZM1118.07 1050.07H1109.31V1049.85L1117.86 1036.33H1118.07V1050.07ZM1140.01 1059.46C1146.39 1059.46 1150.13 1054.25 1150.13 1045.2C1150.13 1036.21 1146.34 1030.99 1140.01 1030.99C1133.66 1030.99 1129.89 1036.19 1129.87 1045.2C1129.87 1054.24 1133.61 1059.45 1140.01 1059.46ZM1140.01 1055.86C1136.27 1055.86 1134.01 1052.1 1134.01 1045.2C1134.03 1038.31 1136.28 1034.52 1140.01 1034.52C1143.72 1034.52 1145.98 1038.31 1145.98 1045.2C1145.98 1052.1 1143.73 1055.86 1140.01 1055.86ZM1169.34 1053.82C1169.35 1056.94 1171.31 1059.57 1174.97 1059.57C1178.58 1059.57 1180.57 1056.94 1180.57 1053.82V1052.36C1180.57 1049.23 1178.64 1046.61 1174.97 1046.61C1171.36 1046.61 1169.35 1049.24 1169.34 1052.36V1053.82ZM1155.44 1038C1155.44 1041.12 1157.41 1043.75 1161.07 1043.75C1164.67 1043.75 1166.67 1041.13 1166.65 1038V1036.55C1166.67 1033.41 1164.72 1030.8 1161.07 1030.8C1157.48 1030.8 1155.44 1033.41 1155.44 1036.55V1038ZM1156.57 1059H1159.8L1178.8 1031.36H1175.57L1156.57 1059ZM1172.48 1052.36C1172.5 1050.81 1173.17 1049.31 1174.97 1049.31C1176.83 1049.31 1177.41 1050.81 1177.41 1052.36V1053.82C1177.41 1055.37 1176.78 1056.87 1174.97 1056.87C1173.13 1056.87 1172.5 1055.36 1172.48 1053.82V1052.36ZM1158.6 1036.55C1158.6 1035.01 1159.27 1033.5 1161.07 1033.5C1162.93 1033.5 1163.51 1034.99 1163.51 1036.55V1038C1163.51 1039.55 1162.88 1041.05 1161.07 1041.05C1159.23 1041.05 1158.6 1039.55 1158.6 1038V1036.55Z" fill="white"/>
<g clip-path="url(#clip1)">
<path d="M987.285 1050H989.196V1044C989.196 1042.72 990.187 1041.79 991.542 1041.79C991.938 1041.79 992.386 1041.86 992.539 1041.91V1040.08C992.347 1040.05 991.97 1040.03 991.727 1040.03C990.577 1040.03 989.592 1040.69 989.234 1041.74H989.132V1040.18H987.285V1050ZM998.073 1050.2C1000.21 1050.2 1001.73 1049.14 1002.16 1047.55L1000.35 1047.22C1000.01 1048.15 999.179 1048.62 998.092 1048.62C996.456 1048.62 995.356 1047.56 995.305 1045.67H1002.29V1044.99C1002.29 1041.44 1000.16 1040.05 997.939 1040.05C995.203 1040.05 993.4 1042.14 993.4 1045.15C993.4 1048.2 995.177 1050.2 998.073 1050.2ZM995.312 1044.23C995.388 1042.84 996.398 1041.63 997.952 1041.63C999.434 1041.63 1000.41 1042.73 1000.41 1044.23H995.312ZM1012.51 1040.18H1010.45L1007.97 1047.74H1007.87L1005.39 1040.18H1003.33L1006.9 1050H1008.95L1012.51 1040.18ZM1018.18 1050.2C1020.32 1050.2 1021.84 1049.14 1022.27 1047.55L1020.46 1047.22C1020.12 1048.15 1019.29 1048.62 1018.2 1048.62C1016.57 1048.62 1015.47 1047.56 1015.41 1045.67H1022.39V1044.99C1022.39 1041.44 1020.27 1040.05 1018.05 1040.05C1015.31 1040.05 1013.51 1042.14 1013.51 1045.15C1013.51 1048.2 1015.29 1050.2 1018.18 1050.2ZM1015.42 1044.23C1015.5 1042.84 1016.51 1041.63 1018.06 1041.63C1019.54 1041.63 1020.52 1042.73 1020.52 1044.23H1015.42ZM1026.43 1044.17C1026.43 1042.6 1027.39 1041.71 1028.71 1041.71C1030.01 1041.71 1030.8 1042.56 1030.8 1043.99V1050H1032.71V1043.75C1032.71 1041.33 1031.37 1040.05 1029.37 1040.05C1027.89 1040.05 1026.93 1040.74 1026.47 1041.78H1026.35V1040.18H1024.52V1050H1026.43V1044.17ZM1041.49 1045.93C1041.5 1047.6 1040.26 1048.39 1039.19 1048.39C1038 1048.39 1037.18 1047.53 1037.18 1046.2V1040.18H1035.27V1046.43C1035.27 1048.86 1036.61 1050.13 1038.49 1050.13C1039.97 1050.13 1040.97 1049.35 1041.43 1048.3H1041.53V1050H1043.41V1040.18H1041.49V1045.93ZM1050.21 1050.2C1052.35 1050.2 1053.87 1049.14 1054.3 1047.55L1052.49 1047.22C1052.15 1048.15 1051.32 1048.62 1050.23 1048.62C1048.59 1048.62 1047.49 1047.56 1047.44 1045.67H1054.42V1044.99C1054.42 1041.44 1052.3 1040.05 1050.08 1040.05C1047.34 1040.05 1045.54 1042.14 1045.54 1045.15C1045.54 1048.2 1047.31 1050.2 1050.21 1050.2ZM1047.45 1044.23C1047.53 1042.84 1048.53 1041.63 1050.09 1041.63C1051.57 1041.63 1052.54 1042.73 1052.55 1044.23H1047.45Z" fill="white" fill-opacity="0.8"/>
</g>
<g filter="url(#filter2_d)">
<rect x="241" y="167" width="320" height="320" rx="16" fill="#0A84FF"/>
<circle cx="401" cy="326.857" r="90" stroke="white" stroke-opacity="0.3" stroke-width="20"/>
<path d="M401 416.857C450.705 416.857 491 376.563 491 326.857C491 277.152 450.705 236.857 401 236.857" stroke="white" stroke-width="20" stroke-linejoin="round"/>
<circle cx="401" cy="417" r="10" fill="white"/>
<circle cx="402" cy="237" r="10" fill="white"/>
<path d="M421.833 308.167H413.5V304H388.5V308.167H380.167C377.875 308.167 376 310.042 376 312.333V316.5C376 323.417 381.583 329 388.5 329H389.25C390.75 333.208 394.417 336.375 398.917 337.125V345.667H388.5V349.833H398.917H403.083H413.5V345.667H403.083V337.125C407.583 336.375 411.25 333.208 412.75 329H413.5C420.417 329 426 323.417 426 316.5V312.333C426 310.042 424.125 308.167 421.833 308.167ZM380.167 316.5V312.333H388.5V324.833C383.917 324.833 380.167 321.083 380.167 316.5ZM421.833 316.5C421.833 321.083 418.083 324.833 413.5 324.833V312.333H421.833V316.5Z" fill="white"/>
</g>
<g filter="url(#filter3_d)">
<path d="M186 916C186 907.163 193.163 900 202 900H325C333.837 900 341 907.163 341 916V1039C341 1047.84 333.837 1055 325 1055H202C193.163 1055 186 1047.84 186 1039V916Z" fill="white"/>
<path d="M208.865 932V922.164H212.459V920.022H202.764V922.164H206.358V932H208.865ZM216.917 932.199C219.73 932.199 221.424 930.415 221.424 927.418C221.424 924.446 219.706 922.645 216.917 922.645C214.127 922.645 212.409 924.455 212.409 927.418C212.409 930.415 214.103 932.199 216.917 932.199ZM216.917 930.224C215.622 930.224 214.891 929.203 214.891 927.418C214.891 925.658 215.63 924.621 216.917 924.621C218.195 924.621 218.942 925.658 218.942 927.418C218.942 929.194 218.203 930.224 216.917 930.224ZM226.678 932.141C227.948 932.141 228.986 931.552 229.476 930.564H229.625V932H231.966V919.35H229.55V924.305H229.409C228.936 923.292 227.915 922.695 226.678 922.695C224.379 922.695 222.951 924.496 222.951 927.41C222.951 930.332 224.371 932.141 226.678 932.141ZM227.5 924.72C228.787 924.72 229.575 925.758 229.575 927.426C229.575 929.103 228.795 930.124 227.5 930.124C226.205 930.124 225.433 929.111 225.433 927.418C225.433 925.741 226.213 924.72 227.5 924.72ZM237.776 930.323C236.938 930.323 236.349 929.908 236.349 929.228C236.349 928.572 236.855 928.198 237.893 928.124L239.744 928.007V928.68C239.744 929.609 238.897 930.323 237.776 930.323ZM236.979 932.141C238.167 932.141 239.163 931.643 239.636 930.805H239.785V932H242.126V925.75C242.126 923.791 240.756 922.645 238.333 922.645C236.033 922.645 234.481 923.708 234.323 925.401H236.548C236.747 924.853 237.328 924.554 238.2 924.554C239.196 924.554 239.744 924.986 239.744 925.75V926.497L237.527 926.629C235.253 926.762 233.983 927.725 233.983 929.385C233.983 931.062 235.22 932.141 236.979 932.141ZM245.388 935.329C247.671 935.329 248.792 934.499 249.572 932.141L252.726 922.844H250.169L248.244 929.784H248.094L246.168 922.844H243.504L246.716 932.058L246.633 932.39C246.434 933.087 245.919 933.378 245.015 933.378C244.915 933.378 244.55 933.378 244.467 933.361V935.304C244.566 935.32 245.297 935.329 245.388 935.329Z" fill="#1D1D1F"/>
<path d="M211.609 958H214.984V955.047H217.199V952.105H214.984V941.09H210.027C207.062 945.555 204.859 949.047 203.336 951.918V955.047H211.609V958ZM206.512 952.023C208.445 948.52 209.957 946.152 211.504 943.844H211.691V952.211H206.512V952.023Z" fill="#1D1D1F"/>
<g filter="url(#filter4_d)">
<path fill-rule="evenodd" clip-rule="evenodd" d="M211 1014.5C209.895 1014.5 209 1015.4 209 1016.5V1029C209 1030.1 209.895 1031 211 1031H225C226.105 1031 227 1030.1 227 1029V1016.5C227 1015.4 226.105 1014.5 225 1014.5H211ZM211.5 1018.5C210.948 1018.5 210.5 1018.95 210.5 1019.5V1028.5C210.5 1029.05 210.948 1029.5 211.5 1029.5H224.5C225.052 1029.5 225.5 1029.05 225.5 1028.5V1019.5C225.5 1018.95 225.052 1018.5 224.5 1018.5H211.5ZM216.25 1022C216.664 1022 217 1021.66 217 1021.25C217 1020.84 216.664 1020.5 216.25 1020.5C215.836 1020.5 215.5 1020.84 215.5 1021.25C215.5 1021.66 215.836 1022 216.25 1022ZM216.25 1025C216.664 1025 217 1024.66 217 1024.25C217 1023.84 216.664 1023.5 216.25 1023.5C215.836 1023.5 215.5 1023.84 215.5 1024.25C215.5 1024.66 215.836 1025 216.25 1025ZM217 1027.25C217 1027.66 216.664 1028 216.25 1028C215.836 1028 215.5 1027.66 215.5 1027.25C215.5 1026.84 215.836 1026.5 216.25 1026.5C216.664 1026.5 217 1026.84 217 1027.25ZM213.25 1025C213.664 1025 214 1024.66 214 1024.25C214 1023.84 213.664 1023.5 213.25 1023.5C212.836 1023.5 212.5 1023.84 212.5 1024.25C212.5 1024.66 212.836 1025 213.25 1025ZM214 1027.25C214 1027.66 213.664 1028 213.25 1028C212.836 1028 212.5 1027.66 212.5 1027.25C212.5 1026.84 212.836 1026.5 213.25 1026.5C213.664 1026.5 214 1026.84 214 1027.25ZM219.25 1022C219.664 1022 220 1021.66 220 1021.25C220 1020.84 219.664 1020.5 219.25 1020.5C218.836 1020.5 218.5 1020.84 218.5 1021.25C218.5 1021.66 218.836 1022 219.25 1022ZM220 1024.25C220 1024.66 219.664 1025 219.25 1025C218.836 1025 218.5 1024.66 218.5 1024.25C218.5 1023.84 218.836 1023.5 219.25 1023.5C219.664 1023.5 220 1023.84 220 1024.25ZM219.25 1028C219.664 1028 220 1027.66 220 1027.25C220 1026.84 219.664 1026.5 219.25 1026.5C218.836 1026.5 218.5 1026.84 218.5 1027.25C218.5 1027.66 218.836 1028 219.25 1028ZM223 1021.25C223 1021.66 222.664 1022 222.25 1022C221.836 1022 221.5 1021.66 221.5 1021.25C221.5 1020.84 221.836 1020.5 222.25 1020.5C222.664 1020.5 223 1020.84 223 1021.25ZM222.25 1025C222.664 1025 223 1024.66 223 1024.25C223 1023.84 222.664 1023.5 222.25 1023.5C221.836 1023.5 221.5 1023.84 221.5 1024.25C221.5 1024.66 221.836 1025 222.25 1025ZM222.25 1028C222.664 1028 223 1027.66 223 1027.25C223 1026.84 222.664 1026.5 222.25 1026.5C221.836 1026.5 221.5 1026.84 221.5 1027.25C221.5 1027.66 221.836 1028 222.25 1028Z" fill="white"/>
</g>
<g filter="url(#filter5_d)">
<circle cx="221" cy="1022" r="19" fill="white"/>
<path d="M212 1013H230V1017.75H212V1013Z" fill="#F0F2F4"/>
<path d="M227.154 1012C228.491 1012 228.976 1012.14 229.465 1012.4C229.954 1012.66 230.338 1013.05 230.599 1013.53C230.861 1014.02 231 1014.51 231 1015.85V1028.15C231 1029.49 230.861 1029.98 230.599 1030.47C230.338 1030.95 229.954 1031.34 229.465 1031.6C228.976 1031.86 228.491 1032 227.154 1032H214.846C213.509 1032 213.024 1031.86 212.535 1031.6C212.046 1031.34 211.662 1030.95 211.401 1030.47C211.139 1029.98 211 1029.49 211 1028.15V1015.85C211 1014.51 211.139 1014.02 211.401 1013.53C211.662 1013.05 212.046 1012.66 212.535 1012.4C213.024 1012.14 213.509 1012 214.846 1012H227.154ZM227.357 1013.5L214.846 1013.5C213.853 1013.5 213.551 1013.56 213.242 1013.72C213.015 1013.85 212.845 1014.01 212.723 1014.24C212.57 1014.53 212.509 1014.81 212.501 1015.64L212.5 1028.15C212.5 1029.15 212.558 1029.45 212.723 1029.76C212.845 1029.99 213.015 1030.15 213.242 1030.28C213.551 1030.44 213.853 1030.5 214.846 1030.5H227.154C228.147 1030.5 228.449 1030.44 228.758 1030.28C228.985 1030.15 229.155 1029.99 229.277 1029.76C229.442 1029.45 229.5 1029.15 229.5 1028.15V1015.85C229.5 1014.85 229.442 1014.55 229.277 1014.24C229.155 1014.01 228.985 1013.85 228.758 1013.72C228.471 1013.57 228.19 1013.51 227.357 1013.5ZM218.247 1020.56C219.778 1020.56 220.885 1021.49 220.885 1022.79C220.885 1023.62 220.46 1024.31 219.144 1025.6L217.522 1027.23V1027.32H221.003V1028.5H215.621V1027.54L218.204 1024.9C219.262 1023.82 219.526 1023.42 219.526 1022.87C219.526 1022.19 218.967 1021.69 218.204 1021.69C217.393 1021.69 216.845 1022.23 216.845 1023.02V1023.04H215.546V1023.02C215.546 1021.57 216.657 1020.56 218.247 1020.56ZM225.799 1020.75V1028.5H224.413V1022.15H224.322L222.394 1023.5V1022.17L224.419 1020.75H225.799ZM227.25 1017C227.664 1017 228 1017.34 228 1017.75C228 1018.16 227.664 1018.5 227.25 1018.5H214.75C214.336 1018.5 214 1018.16 214 1017.75C214 1017.34 214.336 1017 214.75 1017H227.25Z" fill="#1D1D1F"/>
</g>
</g>
</g>
<defs>
<filter id="filter0_d" x="-24" y="235" width="1200" height="880" filterUnits="userSpaceOnUse" color-interpolation-filters="sRGB">
<feFlood flood-opacity="0" result="BackgroundImageFix"/>
<feColorMatrix in="SourceAlpha" type="matrix" values="0 0 0 0 0 0 0 0 0 0 0 0 0 0 0 0 0 0 127 0" result="hardAlpha"/>
<feOffset/>
<feGaussianBlur stdDeviation="50"/>
<feComposite in2="hardAlpha" operator="out"/>
<feColorMatrix type="matrix" values="0 0 0 0 0.113725 0 0 0 0 0.113725 0 0 0 0 0.121569 0 0 0 0.08 0"/>
<feBlend mode="normal" in2="BackgroundImageFix" result="effect1_dropShadow"/>
<feBlend mode="normal" in="SourceGraphic" in2="effect1_dropShadow" result="shape"/>
</filter>
<filter id="filter1_d" x="696.767" y="402" width="112.506" height="34.5023" filterUnits="userSpaceOnUse" color-interpolation-filters="sRGB">
<feFlood flood-opacity="0" result="BackgroundImageFix"/>
<feColorMatrix in="SourceAlpha" type="matrix" values="0 0 0 0 0 0 0 0 0 0 0 0 0 0 0 0 0 0 127 0" result="hardAlpha"/>
<feMorphology radius="0.750126" operator="dilate" in="SourceAlpha" result="effect1_dropShadow"/>
<feOffset dy="0.750126"/>
<feGaussianBlur stdDeviation="0.750126"/>
<feColorMatrix type="matrix" values="0 0 0 0 0 0 0 0 0 0 0 0 0 0 0 0 0 0 0.1 0"/>
<feBlend mode="normal" in2="BackgroundImageFix" result="effect1_dropShadow"/>
<feBlend mode="normal" in="SourceGraphic" in2="effect1_dropShadow" result="shape"/>
</filter>
<filter id="filter2_d" x="171" y="97" width="460" height="460" filterUnits="userSpaceOnUse" color-interpolation-filters="sRGB">
<feFlood flood-opacity="0" result="BackgroundImageFix"/>
<feColorMatrix in="SourceAlpha" type="matrix" values="0 0 0 0 0 0 0 0 0 0 0 0 0 0 0 0 0 0 127 0" result="hardAlpha"/>
<feMorphology radius="10" operator="dilate" in="SourceAlpha" result="effect1_dropShadow"/>
<feOffset/>
<feGaussianBlur stdDeviation="30"/>
<feComposite in2="hardAlpha" operator="out"/>
<feColorMatrix type="matrix" values="0 0 0 0 0 0 0 0 0 0 0 0 0 0 0 0 0 0 0.08 0"/>
<feBlend mode="normal" in2="BackgroundImageFix" result="effect1_dropShadow"/>
<feBlend mode="normal" in="SourceGraphic" in2="effect1_dropShadow" result="shape"/>
</filter>
<filter id="filter3_d" x="156" y="874" width="215" height="215" filterUnits="userSpaceOnUse" color-interpolation-filters="sRGB">
<feFlood flood-opacity="0" result="BackgroundImageFix"/>
<feColorMatrix in="SourceAlpha" type="matrix" values="0 0 0 0 0 0 0 0 0 0 0 0 0 0 0 0 0 0 127 0" result="hardAlpha"/>
<feOffset dy="4"/>
<feGaussianBlur stdDeviation="15"/>
<feComposite in2="hardAlpha" operator="out"/>
<feColorMatrix type="matrix" values="0 0 0 0 0.113725 0 0 0 0 0.113725 0 0 0 0 0.121569 0 0 0 0.08 0"/>
<feBlend mode="normal" in2="BackgroundImageFix" result="effect1_dropShadow"/>
<feBlend mode="normal" in="SourceGraphic" in2="effect1_dropShadow" result="shape"/>
</filter>
<filter id="filter4_d" x="204" y="1011.5" width="28" height="26.5" filterUnits="userSpaceOnUse" color-interpolation-filters="sRGB">
<feFlood flood-opacity="0" result="BackgroundImageFix"/>
<feColorMatrix in="SourceAlpha" type="matrix" values="0 0 0 0 0 0 0 0 0 0 0 0 0 0 0 0 0 0 127 0" result="hardAlpha"/>
<feOffset dy="2"/>
<feGaussianBlur stdDeviation="2.5"/>
<feColorMatrix type="matrix" values="0 0 0 0 0 0 0 0 0 0.478431 0 0 0 0 0.996078 0 0 0 0.4 0"/>
<feBlend mode="normal" in2="BackgroundImageFix" result="effect1_dropShadow"/>
<feBlend mode="normal" in="SourceGraphic" in2="effect1_dropShadow" result="shape"/>
</filter>
<filter id="filter5_d" x="190" y="993" width="62" height="62" filterUnits="userSpaceOnUse" color-interpolation-filters="sRGB">
<feFlood flood-opacity="0" result="BackgroundImageFix"/>
<feColorMatrix in="SourceAlpha" type="matrix" values="0 0 0 0 0 0 0 0 0 0 0 0 0 0 0 0 0 0 127 0" result="hardAlpha"/>
<feOffset dy="2"/>
<feGaussianBlur stdDeviation="6"/>
<feColorMatrix type="matrix" values="0 0 0 0 0 0 0 0 0 0 0 0 0 0 0 0 0 0 0.14 0"/>
<feBlend mode="normal" in2="BackgroundImageFix" result="effect1_dropShadow"/>
<feBlend mode="normal" in="SourceGraphic" in2="effect1_dropShadow" result="shape"/>
</filter>
<clipPath id="clip0">
<rect width="1310" height="1350" fill="white"/>
</clipPath>
<clipPath id="clip1">
<rect width="68" height="11" fill="white" transform="translate(987 1040)"/>
</clipPath>
</defs>
</svg>
