<svg xmlns="http://www.w3.org/2000/svg" width="129.67" height="29.2" viewBox="0 0 129.67 29.2">
  <g id="Logo_Dropdown_Blue_" data-name="Logo Dropdown (Blue)" transform="translate(-0.05 -0.4)">
    <path id="Path_1" data-name="Path 1" d="M31.32,7.25h3V21.7h-3Z"/>
    <path id="Path_2" data-name="Path 2" d="M39.248,11.9A5.25,5.25,0,0,0,36,16.75,5.18,5.18,0,0,0,41.22,22a5.25,5.25,0,1,0-1.972-10.1ZM41.2,14.53a2.28,2.28,0,0,1,2.319,2.22H43.5a2.22,2.22,0,0,1-2.26,2.34,2.28,2.28,0,0,1-.039-4.56Z" fill-rule="evenodd"/>
    <path id="Path_3" data-name="Path 3" d="M58.31,21.21V11.8l-2.89.06v1a3.53,3.53,0,0,0-2.89-1.28,5,5,0,1,0,0,10,3.53,3.53,0,0,0,2.89-1.28v.91a2,2,0,0,1-2.24,2.12,2.27,2.27,0,0,1-2.26-1.25l-2.53,1.46a5,5,0,0,0,4.69,2.4C55.71,25.94,58.31,24.53,58.31,21.21Zm-4.3-6.947a2.4,2.4,0,0,1,1.41,2.287,2.24,2.24,0,0,1-2.4,2.3,2.4,2.4,0,1,1,.99-4.587Z" fill-rule="evenodd"/>
    <path id="Path_4" data-name="Path 4" d="M63.243,11.9A5.25,5.25,0,0,0,60,16.75,5.19,5.19,0,0,0,65.24,22a5.25,5.25,0,1,0-2-10.1ZM65.2,14.53a2.28,2.28,0,0,1,2.322,2.22h-.01a2.22,2.22,0,0,1-2.26,2.34,2.28,2.28,0,0,1-.052-4.56Z" fill-rule="evenodd"/>
    <path id="Path_5" data-name="Path 5" d="M73.65,7.37a1.78,1.78,0,0,0-1.78,1.78,1.8,1.8,0,0,0,1.78,1.78,1.78,1.78,0,0,0,0-3.56Zm1.51,4.43h-3v9.9h3Z" fill-rule="evenodd"/>
    <path id="Path_6" data-name="Path 6" d="M86.707,20.367A5,5,0,0,0,88,16.75a5,5,0,0,0-4.77-5.22,3.71,3.71,0,0,0-3,1.2V11.8h-3V25.68h3V20.79a3.72,3.72,0,0,0,3,1.21A5,5,0,0,0,86.707,20.367ZM82.6,14.45a2.36,2.36,0,0,1,2.4,2.3,2.26,2.26,0,0,1-2.35,2.42,2.36,2.36,0,0,1-.052-4.72Z" fill-rule="evenodd"/>
    <path id="Path_7" data-name="Path 7" d="M97.13,18.73c0,2.28-2,3.25-4.12,3.25a4.34,4.34,0,0,1-4.26-2.36l2.58-1.46A1.62,1.62,0,0,0,93,19.33c.71,0,1.07-.22,1.07-.62,0-1.09-4.87-.51-4.87-3.94,0-2.16,1.82-3.24,3.88-3.24A4.34,4.34,0,0,1,97,13.64L94.42,15a1.46,1.46,0,0,0-1.33-.87c-.52,0-.83.2-.83.55C92.26,15.82,97.13,15.07,97.13,18.73Z"/>
    <path id="Path_8" data-name="Path 8" d="M108,11.8v9.9h-3v-.93A3.41,3.41,0,0,1,102.18,22c-2,0-3.71-1.43-3.71-4.1V11.8h3v5.65a1.639,1.639,0,0,0,1.73,1.8,1.752,1.752,0,0,0,1.84-2V11.8Z"/>
    <path id="Path_9" data-name="Path 9" d="M125,15.62V21.7h-3V15.88c0-1-.47-1.62-1.42-1.62s-1.55.69-1.55,1.86V21.7h-3V15.88c0-1-.47-1.62-1.42-1.62s-1.55.69-1.55,1.86V21.7h-3V11.8h3v.91a3.06,3.06,0,0,1,2.66-1.18,2.931,2.931,0,0,1,2.59,1.3,3.261,3.261,0,0,1,2.87-1.3C123.52,11.53,125,13.15,125,15.62Z"/>
    <path id="Path_10" data-name="Path 10" d="M13.45,4.65V.4H.05V29.6h13.4V25.35a10.35,10.35,0,1,1,0-20.7Z" fill="#07f"/>
    <path id="Path_11" data-name="Path 11" d="M13.45,4.65v20.7a10.35,10.35,0,0,0,0-20.7Z" fill="#07f" opacity="0.3"/>
    <circle id="Ellipse_1" data-name="Ellipse 1" cx="2.2" cy="2.2" r="2.2" transform="translate(125.32 7.34)" fill="#394149"/>
  </g>
</svg>
