<svg width="750" height="460" viewBox="0 0 750 460" fill="none" xmlns="http://www.w3.org/2000/svg">
<path fill-rule="evenodd" clip-rule="evenodd" d="M181.814 131.562C181.657 131.41 181.468 131.296 181.26 131.228C181.053 131.16 180.833 131.14 180.616 131.169C180.399 131.198 180.192 131.275 180.01 131.396C179.828 131.516 179.676 131.675 179.565 131.863L164.204 156.56L164.104 156.747C164.016 156.968 163.983 157.208 164.008 157.445C164.034 157.683 164.117 157.91 164.251 158.108C164.385 158.306 164.566 158.468 164.777 158.58C164.989 158.693 165.225 158.752 165.464 158.753H209.138L209.361 158.733C210.372 158.568 210.926 157.304 210.285 156.444L199.511 141.212L199.357 141.019C198.849 140.502 197.95 140.46 197.331 140.98L193.549 144.672L193.383 144.815C193.228 144.926 193.052 145.005 192.865 145.046C192.679 145.087 192.486 145.091 192.298 145.056C192.11 145.021 191.931 144.949 191.772 144.844C191.613 144.738 191.477 144.602 191.372 144.443L181.97 131.749L181.814 131.562ZM202.8 124C201.297 123.995 199.853 124.584 198.785 125.637C197.718 126.691 197.115 128.124 197.108 129.62C197.111 130.361 197.26 131.094 197.548 131.778C197.835 132.462 198.255 133.083 198.784 133.605C199.312 134.128 199.939 134.541 200.628 134.822C201.317 135.104 202.055 135.247 202.8 135.245C204.303 135.249 205.747 134.66 206.814 133.605C207.881 132.551 208.483 131.118 208.489 129.622C208.483 128.126 207.88 126.695 206.813 125.641C205.746 124.587 204.303 123.998 202.8 124.002V124Z" fill="#F0F2F4"/>
<rect x="20" y="72" width="335" height="227" rx="43" fill="#E0E3EB"/>
<path fill-rule="evenodd" clip-rule="evenodd" d="M181.814 175.562C181.657 175.41 181.468 175.296 181.26 175.228C181.053 175.16 180.833 175.14 180.616 175.169C180.399 175.198 180.192 175.275 180.01 175.396C179.828 175.516 179.676 175.675 179.565 175.863L164.204 200.56L164.104 200.747C164.016 200.968 163.983 201.208 164.008 201.445C164.034 201.683 164.117 201.91 164.251 202.108C164.385 202.306 164.566 202.468 164.777 202.58C164.989 202.693 165.225 202.752 165.464 202.753H209.138L209.361 202.733C210.372 202.568 210.926 201.304 210.285 200.444L199.511 185.212L199.357 185.019C198.849 184.502 197.95 184.46 197.331 184.98L193.549 188.672L193.383 188.815C193.228 188.926 193.052 189.005 192.865 189.046C192.679 189.087 192.486 189.091 192.298 189.056C192.11 189.021 191.931 188.949 191.772 188.844C191.613 188.738 191.477 188.602 191.372 188.443L181.97 175.749L181.814 175.562ZM202.8 168C201.297 167.995 199.853 168.584 198.785 169.637C197.718 170.691 197.115 172.124 197.108 173.62C197.111 174.361 197.26 175.094 197.548 175.778C197.835 176.462 198.255 177.083 198.784 177.605C199.312 178.128 199.939 178.541 200.628 178.822C201.317 179.104 202.055 179.247 202.8 179.245C204.303 179.249 205.747 178.66 206.814 177.605C207.881 176.551 208.483 175.118 208.489 173.622C208.483 172.126 207.88 170.695 206.813 169.641C205.746 168.587 204.303 167.998 202.8 168.002V168Z" fill="#F0F2F4"/>
<rect x="266" y="140" width="462" height="56" rx="28" fill="#F0F2F4" stroke="#0A84FF" stroke-width="4"/>
<path fill-rule="evenodd" clip-rule="evenodd" d="M572 309C572 344.899 542.899 374 507 374C471.101 374 442 344.899 442 309C442 273.101 471.101 244 507 244C542.899 244 572 273.101 572 309Z" stroke="#0A84FF" stroke-width="6" stroke-linecap="round" stroke-linejoin="round"/>
<path fill-rule="evenodd" clip-rule="evenodd" d="M534 309C534 344.899 522.359 374 508 374C493.641 374 482 344.899 482 309C482 273.101 493.641 244 508 244C522.359 244 534 273.101 534 309Z" stroke="#0A84FF" stroke-width="6" stroke-linecap="round" stroke-linejoin="round"/>
<path fill-rule="evenodd" clip-rule="evenodd" d="M507 282C542.899 282 572 293.641 572 308C572 322.359 542.899 334 507 334C471.101 334 442 322.359 442 308C442 293.641 471.101 282 507 282Z" stroke="#0A84FF" stroke-width="6" stroke-linecap="round" stroke-linejoin="round"/>
<path d="M431.558 55.1285L451.693 74.1366C453.748 76.076 453.198 79.4764 450.638 80.6705L432.121 89.3051C429.56 90.4991 426.602 88.7341 426.437 85.9136L424.819 58.271C424.607 54.656 428.925 52.6428 431.558 55.1285Z" fill="white" stroke="#0A84FF" stroke-width="4"/>
<path d="M441.679 86.7244L446.75 97.6001" stroke="#0A84FF" stroke-width="4" stroke-linecap="round"/>
<path d="M303.551 176H306.142L308.801 166.548H308.997L311.656 176H314.256L318.099 162.909H315.466L312.918 172.48H312.79L310.233 162.909H307.599L305.026 172.523H304.898L302.332 162.909H299.699L303.551 176ZM325.276 176H327.867L330.526 166.548H330.722L333.381 176H335.98L339.824 162.909H337.191L334.642 172.48H334.514L331.958 162.909H329.324L326.75 172.523H326.622L324.057 162.909H321.424L325.276 176ZM347.001 176H349.591L352.251 166.548H352.447L355.106 176H357.705L361.549 162.909H358.915L356.367 172.48H356.239L353.682 162.909H351.049L348.475 172.523H348.347L345.782 162.909H343.148L347.001 176Z" fill="#1D1D1F"/>
</svg>
