<svg width="759" height="553" viewBox="0 0 759 553" fill="none" xmlns="http://www.w3.org/2000/svg">
<g clip-path="url(#clip0)">
<path d="M604.471 404.289C563.458 425.73 521.917 446.226 480.116 466.201C463.618 474.429 446.792 481.728 429.95 489.226C418.867 493.669 407.699 497.903 396.287 501.417C387.753 504.054 379.143 506.384 370.457 508.407C358.403 511.167 349.788 512.293 348.468 512.49C333.47 514.417 318.352 515.33 303.243 514.841C284.263 513.845 273.635 512.505 248.531 505.208C234.811 501.116 225.975 497.41 222.779 495.954C213.17 491.886 203.799 487.335 195.02 481.626C183.002 473.757 171.125 464.093 155.882 446.239C145.537 433.686 133.007 413.237 127.753 389.551C126.087 382.699 124.106 368.399 125.595 352.065C130.241 352.933 134.903 353.602 139.565 354.271C150.192 355.611 160.736 356.743 171.481 356.588C194.077 356.264 216.504 351.714 237.94 344.477C270.918 333.336 301.847 315.112 325.535 289.496C334.021 279.833 342.24 269.748 348.643 258.517C353.254 249.653 357.108 240.226 359.282 230.467C361.527 219.811 361.985 208.913 359.82 198.21C359.07 193.737 357.598 189.508 355.719 185.347C354.04 181.202 351.939 177.325 349.108 173.791C344.419 167.102 338.11 161.89 331.223 157.635C316.314 149.537 299.135 144.771 282.13 145.436C246.232 147.82 213.784 166.225 185.174 186.839C156.488 207.146 134.665 235.818 118.583 266.749C111.747 279.652 105.378 292.992 101.063 306.996C100.67 308.169 100.368 309.449 99.9669 310.721C93.4686 307.902 87.1092 304.591 81.0961 300.706C72.832 294.838 77.9164 299.051 69.0357 290.827C61.7264 283.028 63.3189 284.458 60.0683 279.888C43.1037 252.068 36.0064 233.953 35.808 205.951C35.7972 199.731 36.0854 193.534 36.7803 187.27C37.5748 181.013 38.776 174.688 40.3602 168.593C43.1509 157.378 46.4321 146.302 50.6867 135.603C60.0563 113.472 71.2807 91.9879 84.8873 72.0964C95.7631 56.3028 103.99 46.1182 119.653 29.3983C128.722 19.9824 137.843 11.1724 148.525 4.19092C128.795 10.1577 111.339 21.6204 94.9407 33.668C82.981 42.8559 71.7481 53.0039 61.4492 64.0281C46.3996 80.5958 33.3938 99.2306 23.1924 119.19C13.6285 138.698 7.24431 159.862 4.6326 181.524C1.91058 200.769 2.56229 220.481 6.67425 239.564C8.43764 247.728 11.3212 255.679 14.6272 263.363C19.4208 275.076 25.2507 286.37 32.1325 297.044C36.0942 302.773 40.3706 308.327 45.1849 313.421C51.025 319.5 57.8487 324.552 64.7958 329.313C73.8732 335.045 83.5355 339.719 93.5755 343.42C92.7888 349.577 92.2015 355.75 92.1127 361.962C92.0638 379.112 94.5071 396.458 100.043 412.744C114.716 455.63 146.506 491.341 185.116 514.349C199.818 522.53 215.567 528.889 231.478 534.457C253.161 541.886 275.778 546.378 298.638 547.781C332.412 549.442 366.291 544.692 398.721 535.413C426.416 527.668 452.563 515.386 478.762 503.71C498.138 494.606 517.354 484.987 535.775 474.002C565.393 455.875 593.313 435.107 619.771 412.518C633.438 400.756 646.838 388.572 659.579 375.835C641.192 385.117 622.881 394.707 604.471 404.289ZM193.657 221.714C202.039 214.651 198.704 217.498 211.346 208.565C233.24 194.242 244.366 187.998 262.462 182.404C267.389 180.987 272.308 179.67 277.386 178.866C282.043 178.331 286.776 178.103 291.461 178.472C291.66 178.488 291.86 178.504 291.959 178.512C293.757 178.653 296.829 179.067 298.5 179.5C302.433 180.512 304.953 181.643 308.755 183.046C311.759 184.387 314.647 185.919 317.313 187.734C318.255 188.511 319.097 189.279 320.031 190.155C320.873 190.924 321.607 191.784 322.342 192.645C323.604 194.45 324.758 196.346 325.698 198.427C325.942 199.148 326.186 199.869 326.43 200.591C326.986 202.44 327.534 204.39 327.883 206.323C328.222 209.66 328.353 213.081 328.186 216.478C328.146 216.977 328.107 217.475 328.068 217.974C327.221 223.624 325.584 229.113 323.556 234.47C323.541 234.669 323.433 234.761 323.417 234.96C320.466 241.85 316.45 248.254 311.959 254.319C307.6 259.994 302.956 265.446 297.946 270.467C284.706 283.165 285.06 282.491 274.331 290.071C265.753 295.814 256.723 300.919 247.35 305.296C245.999 305.891 244.648 306.487 243.297 307.083C230.747 312.312 217.785 316.405 204.503 319.47C191.651 322.168 194.613 321.498 188.023 322.383C179.622 323.325 171.07 323.654 162.673 323.292C144.92 321.992 147.688 322.511 131.771 319.55C133.046 314.836 134.512 310.237 136.269 305.761C145.183 285.6 155.56 265.955 168.794 248.241C176.268 238.699 184.499 229.719 193.657 221.714Z" fill="#007AFF"/>
<path d="M752.724 310.559C749.507 300.475 740.881 295.38 730.453 297.868C729.425 298.188 728.381 298.708 727.344 299.127C725.28 299.867 723.207 300.707 721.135 301.546C706.866 306.941 692.69 312.443 678.589 318.252C637.04 335.036 597.735 353.904 548.972 369.316C599.869 368.818 649.768 356.805 698.413 342.888C699.234 342.651 700.055 342.415 700.876 342.179C692.766 355.984 685.329 370.143 678.666 384.664C673.635 396.304 668.505 407.937 664.746 419.978C660.093 434.457 656.904 449.453 654.32 464.396C652.178 477.568 650.534 490.78 649.488 504.039C649.301 505.128 649.718 503.656 649.957 503.173C650.705 501.326 651.353 499.471 652.1 497.624C655.353 489.455 657.341 484.596 660.801 476.343C668.082 459.062 675.939 442.127 684.96 425.686C692.74 412.256 700.995 399.165 709.541 386.197C717.519 374.087 725.787 362.1 733.956 350.105C738.363 343.832 742.678 337.452 746.801 330.956C747.963 328.941 749.608 327.165 750.678 325.043C751.41 323.395 752.142 321.748 752.682 319.985C753.44 316.734 753.485 313.628 752.724 310.559Z" fill="#007AFF"/>
</g>
<defs>
<clipPath id="clip0">
<rect width="759" height="553" fill="white"/>
</clipPath>
</defs>
</svg>
