<svg width="750" height="347" viewBox="0 0 750 347" fill="none" xmlns="http://www.w3.org/2000/svg">
<g clip-path="url(#clip0)">
<path opacity="0.6" d="M156.69 235.349H42.0626C35.3666 235.349 29.9385 240.751 29.9385 247.414C29.9385 254.078 35.3666 259.479 42.0626 259.479H156.69C163.386 259.479 168.814 254.078 168.814 247.414C168.814 240.751 163.386 235.349 156.69 235.349Z" fill="#0A84FF"/>
<path opacity="0.3" d="M134.646 273.159H37.6538C33.3927 273.159 29.9385 276.596 29.9385 280.836C29.9385 285.076 33.3927 288.514 37.6538 288.514H134.646C138.907 288.514 142.362 285.076 142.362 280.836C142.362 276.596 138.907 273.159 134.646 273.159Z" fill="#0A84FF"/>
<path fill-rule="evenodd" clip-rule="evenodd" d="M165.779 15.7189C189.883 15.7189 209.425 35.1657 209.425 59.1525V160.936C209.425 184.926 189.883 204.37 165.779 204.37H63.4956C39.3861 204.37 19.8489 184.923 19.8489 160.936V59.1525C19.8489 35.1657 39.3911 15.7189 63.4956 15.7189H165.779ZM107.509 99.4042C107.352 99.2528 107.163 99.1388 106.955 99.0708C106.748 99.0027 106.527 98.9824 106.311 99.0113C106.094 99.0403 105.887 99.1177 105.705 99.2379C105.523 99.358 105.371 99.5177 105.26 99.7049L89.8986 124.402L89.7995 124.589C89.7107 124.81 89.6777 125.05 89.7033 125.287C89.7289 125.525 89.8123 125.752 89.9463 125.95C90.0804 126.148 90.261 126.31 90.4723 126.422C90.6837 126.535 90.9195 126.594 91.1593 126.595H134.833L135.056 126.575C136.067 126.41 136.621 125.146 135.98 124.286L125.206 109.054L125.052 108.861C124.544 108.344 123.645 108.302 123.026 108.822L119.244 112.514L119.078 112.657C118.923 112.768 118.747 112.847 118.56 112.888C118.374 112.929 118.181 112.933 117.993 112.898C117.805 112.863 117.626 112.791 117.467 112.686C117.308 112.58 117.172 112.444 117.067 112.285L107.665 99.5915L107.509 99.4042ZM128.495 91.8424C126.992 91.8371 125.548 92.4261 124.48 93.4798C123.413 94.5336 122.81 95.9659 122.803 97.462C122.806 98.2032 122.955 98.9367 123.243 99.6205C123.53 100.304 123.95 100.925 124.479 101.447C125.007 101.97 125.634 102.383 126.323 102.664C127.012 102.946 127.75 103.089 128.495 103.087C129.998 103.091 131.442 102.502 132.509 101.447C133.576 100.393 134.178 98.9605 134.184 97.4644C134.178 95.9688 133.575 94.5369 132.508 93.4832C131.441 92.4295 129.998 91.8403 128.495 91.8448V91.8424Z" fill="#0A84FF"/>
<path fill-rule="evenodd" clip-rule="evenodd" d="M15.813 11.8174H213.569V292.308H15.813V11.8174Z" stroke="#0A84FF" stroke-width="4"/>
<path d="M17.4628 2.73679H12.1723C8.76341 2.73679 6 5.48671 6 8.87892V14.1436C6 17.5358 8.76341 20.2857 12.1723 20.2857H17.4628C20.8716 20.2857 23.635 17.5358 23.635 14.1436V8.87892C23.635 5.48671 20.8716 2.73679 17.4628 2.73679Z" fill="white" stroke="#0A84FF" stroke-width="3" stroke-linecap="round"/>
<g filter="url(#filter0_d)">
<path d="M115.23 2H109.94C106.531 2 103.768 4.74993 103.768 8.14213V13.4068C103.768 16.799 106.531 19.549 109.94 19.549H115.23C118.639 19.549 121.403 16.799 121.403 13.4068V8.14213C121.403 4.74993 118.639 2 115.23 2Z" fill="black"/>
</g>
<path d="M115.23 2H109.94C106.531 2 103.768 4.74993 103.768 8.14213V13.4068C103.768 16.799 106.531 19.549 109.94 19.549H115.23C118.639 19.549 121.403 16.799 121.403 13.4068V8.14213C121.403 4.74993 118.639 2 115.23 2Z" fill="white" stroke="#0A84FF" stroke-width="3" stroke-linecap="round"/>
<path d="M215.951 2.73679H210.66C207.251 2.73679 204.488 5.48671 204.488 8.87892V14.1436C204.488 17.5358 207.251 20.2857 210.66 20.2857H215.951C219.36 20.2857 222.123 17.5358 222.123 14.1436V8.87892C222.123 5.48671 219.36 2.73679 215.951 2.73679Z" fill="white" stroke="#0A84FF" stroke-width="3" stroke-linecap="round"/>
<path d="M215.951 142.806H210.66C207.251 142.806 204.488 145.556 204.488 148.948V154.213C204.488 157.605 207.251 160.355 210.66 160.355H215.951C219.36 160.355 222.123 157.605 222.123 154.213V148.948C222.123 145.556 219.36 142.806 215.951 142.806Z" fill="white" stroke="#0A84FF" stroke-width="3" stroke-linecap="round"/>
<path d="M17.4628 142.806H12.1723C8.76341 142.806 6 145.556 6 148.948V154.213C6 157.605 8.76341 160.355 12.1723 160.355H17.4628C20.8716 160.355 23.635 157.605 23.635 154.213V148.948C23.635 145.556 20.8716 142.806 17.4628 142.806Z" fill="white" stroke="#0A84FF" stroke-width="3" stroke-linecap="round"/>
<path d="M215.951 283.227H210.66C207.251 283.227 204.488 285.977 204.488 289.369V294.634C204.488 298.026 207.251 300.776 210.66 300.776H215.951C219.36 300.776 222.123 298.026 222.123 294.634V289.369C222.123 285.977 219.36 283.227 215.951 283.227Z" fill="white" stroke="#0A84FF" stroke-width="3" stroke-linecap="round"/>
<g filter="url(#filter1_d)">
<path d="M18.1952 283.227H12.9047C9.49584 283.227 6.73242 285.977 6.73242 289.369V294.634C6.73242 298.026 9.49584 300.776 12.9047 300.776H18.1952C21.604 300.776 24.3674 298.026 24.3674 294.634V289.369C24.3674 285.977 21.604 283.227 18.1952 283.227Z" fill="black"/>
</g>
<path d="M18.1952 283.227H12.9047C9.49584 283.227 6.73242 285.977 6.73242 289.369V294.634C6.73242 298.026 9.49584 300.776 12.9047 300.776H18.1952C21.604 300.776 24.3674 298.026 24.3674 294.634V289.369C24.3674 285.977 21.604 283.227 18.1952 283.227Z" fill="white" stroke="#0A84FF" stroke-width="3" stroke-linecap="round"/>
<g filter="url(#filter2_d)">
<path d="M117.073 283.227H111.782C108.374 283.227 105.61 285.977 105.61 289.369V294.634C105.61 298.026 108.374 300.776 111.782 300.776H117.073C120.482 300.776 123.245 298.026 123.245 294.634V289.369C123.245 285.977 120.482 283.227 117.073 283.227Z" fill="black"/>
</g>
<path d="M117.073 283.227H111.782C108.374 283.227 105.61 285.977 105.61 289.369V294.634C105.61 298.026 108.374 300.776 111.782 300.776H117.073C120.482 300.776 123.245 298.026 123.245 294.634V289.369C123.245 285.977 120.482 283.227 117.073 283.227Z" fill="white" stroke="#0A84FF" stroke-width="3" stroke-linecap="round"/>
<path d="M124.127 335.825C124.127 330.737 119.982 326.612 114.869 326.612C109.755 326.612 105.61 330.737 105.61 335.825C105.61 340.914 109.755 345.039 114.869 345.039C119.982 345.039 124.127 340.914 124.127 335.825Z" fill="white" stroke="#0A84FF" stroke-width="3" stroke-linecap="round"/>
<path fill-rule="evenodd" clip-rule="evenodd" d="M112.673 300.379H116.709V325.603H112.673V300.379Z" fill="#0A84FF"/>
<path d="M417.001 235.349H302.374C295.678 235.349 290.25 240.751 290.25 247.414C290.25 254.078 295.678 259.479 302.374 259.479H417.001C423.697 259.479 429.125 254.078 429.125 247.414C429.125 240.751 423.697 235.349 417.001 235.349Z" fill="#E0E3EB"/>
<path d="M394.957 273.159H297.965C293.704 273.159 290.25 276.596 290.25 280.836C290.25 285.076 293.704 288.514 297.965 288.514H394.957C399.219 288.514 402.673 285.076 402.673 280.836C402.673 276.596 399.219 273.159 394.957 273.159Z" fill="#E0E3EB"/>
<path fill-rule="evenodd" clip-rule="evenodd" d="M426.09 15.7189C450.194 15.7189 469.736 35.1657 469.736 59.1525V160.936C469.736 184.926 450.194 204.37 426.09 204.37H323.807C299.697 204.37 280.16 184.923 280.16 160.936V59.1525C280.16 35.1657 299.702 15.7189 323.807 15.7189H426.09ZM367.82 99.4042C367.663 99.2528 367.474 99.1388 367.266 99.0708C367.059 99.0027 366.839 98.9824 366.622 99.0113C366.405 99.0403 366.198 99.1177 366.016 99.2379C365.834 99.358 365.682 99.5177 365.571 99.7049L350.21 124.402L350.11 124.589C350.022 124.81 349.989 125.05 350.014 125.287C350.04 125.525 350.123 125.752 350.257 125.95C350.391 126.148 350.572 126.31 350.783 126.422C350.995 126.535 351.231 126.594 351.47 126.595H395.144L395.367 126.575C396.378 126.41 396.932 125.146 396.291 124.286L385.517 109.054L385.363 108.861C384.855 108.344 383.956 108.302 383.337 108.822L379.555 112.514L379.389 112.657C379.234 112.768 379.058 112.847 378.871 112.888C378.685 112.929 378.492 112.933 378.304 112.898C378.116 112.863 377.937 112.791 377.778 112.686C377.619 112.58 377.483 112.444 377.378 112.285L367.976 99.5915L367.82 99.4042ZM388.806 91.8424C387.303 91.8371 385.859 92.4261 384.791 93.4798C383.724 94.5336 383.121 95.9659 383.114 97.462C383.117 98.2032 383.266 98.9367 383.554 99.6205C383.841 100.304 384.261 100.925 384.79 101.447C385.318 101.97 385.945 102.383 386.634 102.664C387.323 102.946 388.061 103.089 388.806 103.087C390.309 103.091 391.753 102.502 392.82 101.447C393.887 100.393 394.489 98.9605 394.495 97.4644C394.489 95.9688 393.886 94.5369 392.819 93.4832C391.752 92.4295 390.309 91.8403 388.806 91.8448V91.8424Z" fill="#E0E3EB"/>
<path d="M677.312 235.349H562.685C555.989 235.349 550.561 240.751 550.561 247.414C550.561 254.078 555.989 259.479 562.685 259.479H677.312C684.008 259.479 689.437 254.078 689.437 247.414C689.437 240.751 684.008 235.349 677.312 235.349Z" fill="#E0E3EB"/>
<path d="M655.269 273.159H558.276C554.015 273.159 550.561 276.596 550.561 280.836C550.561 285.076 554.015 288.514 558.276 288.514H655.269C659.53 288.514 662.984 285.076 662.984 280.836C662.984 276.596 659.53 273.159 655.269 273.159Z" fill="#E0E3EB"/>
<path fill-rule="evenodd" clip-rule="evenodd" d="M686.353 15.7189C710.458 15.7189 730 35.1657 730 59.1525V160.936C730 184.926 710.458 204.37 686.353 204.37H584.07C559.961 204.37 540.424 184.923 540.424 160.936V59.1525C540.424 35.1657 559.966 15.7189 584.07 15.7189H686.353ZM628.084 99.4042C627.927 99.2528 627.737 99.1388 627.53 99.0708C627.323 99.0027 627.102 98.9824 626.886 99.0113C626.669 99.0403 626.462 99.1177 626.28 99.2379C626.098 99.358 625.946 99.5177 625.835 99.7049L610.473 124.402L610.374 124.589C610.285 124.81 610.252 125.05 610.278 125.287C610.304 125.525 610.387 125.752 610.521 125.95C610.655 126.148 610.836 126.31 611.047 126.422C611.258 126.535 611.494 126.594 611.734 126.595H655.408L655.631 126.575C656.641 126.41 657.196 125.146 656.555 124.286L645.78 109.054L645.627 108.861C645.119 108.344 644.22 108.302 643.601 108.822L639.819 112.514L639.653 112.657C639.498 112.768 639.321 112.847 639.135 112.888C638.948 112.929 638.755 112.933 638.567 112.898C638.38 112.863 638.201 112.791 638.042 112.686C637.882 112.58 637.746 112.444 637.642 112.285L628.24 99.5915L628.084 99.4042ZM649.07 91.8424C647.566 91.8371 646.122 92.4261 645.055 93.4798C643.988 94.5336 643.385 95.9659 643.378 97.462C643.381 98.2032 643.53 98.9367 643.817 99.6205C644.105 100.304 644.525 100.925 645.053 101.447C645.582 101.97 646.208 102.383 646.898 102.664C647.587 102.946 648.325 103.089 649.07 103.087C650.573 103.091 652.017 102.502 653.084 101.447C654.151 100.393 654.753 98.9605 654.759 97.4644C654.752 95.9688 654.15 94.5369 653.083 93.4832C652.016 92.4295 650.573 91.8403 649.07 91.8448V91.8424Z" fill="#E0E3EB"/>
</g>
<defs>
<filter id="filter0_d" x="99.7676" y="-1" width="25.635" height="25.549" filterUnits="userSpaceOnUse" color-interpolation-filters="sRGB">
<feFlood flood-opacity="0" result="BackgroundImageFix"/>
<feColorMatrix in="SourceAlpha" type="matrix" values="0 0 0 0 0 0 0 0 0 0 0 0 0 0 0 0 0 0 127 0" result="hardAlpha"/>
<feOffset dy="1"/>
<feGaussianBlur stdDeviation="2"/>
<feColorMatrix type="matrix" values="0 0 0 0 0 0 0 0 0 0 0 0 0 0 0 0 0 0 0.0879316 0"/>
<feBlend mode="normal" in2="BackgroundImageFix" result="effect1_dropShadow"/>
<feBlend mode="normal" in="SourceGraphic" in2="effect1_dropShadow" result="shape"/>
</filter>
<filter id="filter1_d" x="2.73242" y="280.227" width="25.635" height="25.549" filterUnits="userSpaceOnUse" color-interpolation-filters="sRGB">
<feFlood flood-opacity="0" result="BackgroundImageFix"/>
<feColorMatrix in="SourceAlpha" type="matrix" values="0 0 0 0 0 0 0 0 0 0 0 0 0 0 0 0 0 0 127 0" result="hardAlpha"/>
<feOffset dy="1"/>
<feGaussianBlur stdDeviation="2"/>
<feColorMatrix type="matrix" values="0 0 0 0 0 0 0 0 0 0 0 0 0 0 0 0 0 0 0.0879316 0"/>
<feBlend mode="normal" in2="BackgroundImageFix" result="effect1_dropShadow"/>
<feBlend mode="normal" in="SourceGraphic" in2="effect1_dropShadow" result="shape"/>
</filter>
<filter id="filter2_d" x="101.61" y="280.227" width="25.635" height="25.549" filterUnits="userSpaceOnUse" color-interpolation-filters="sRGB">
<feFlood flood-opacity="0" result="BackgroundImageFix"/>
<feColorMatrix in="SourceAlpha" type="matrix" values="0 0 0 0 0 0 0 0 0 0 0 0 0 0 0 0 0 0 127 0" result="hardAlpha"/>
<feOffset dy="1"/>
<feGaussianBlur stdDeviation="2"/>
<feColorMatrix type="matrix" values="0 0 0 0 0 0 0 0 0 0 0 0 0 0 0 0 0 0 0.0879316 0"/>
<feBlend mode="normal" in2="BackgroundImageFix" result="effect1_dropShadow"/>
<feBlend mode="normal" in="SourceGraphic" in2="effect1_dropShadow" result="shape"/>
</filter>
<clipPath id="clip0">
<rect width="750" height="347" fill="white"/>
</clipPath>
</defs>
</svg>
