<svg width="45" height="46" viewBox="0 0 45 46" fill="none" xmlns="http://www.w3.org/2000/svg">
<g clip-path="url(#clip0)">
<rect y="0.5" width="45" height="45" rx="22.5" fill="#007AFF"/>
<path d="M34.1474 10.7003L40.0638 8.54345C40.4364 8.40762 40.6843 8.05333 40.6843 7.65674C40.6843 7.0223 40.0709 6.56856 39.4642 6.7543L23.5545 11.6254C18.8485 13.341 15.717 17.8156 15.717 22.8246C15.717 27.843 12.574 32.3239 7.8555 34.0326L3.16693 35.7304C2.80001 35.8633 2.5556 36.2118 2.5556 36.602C2.5556 37.2264 3.16038 37.6722 3.7568 37.4874L21.6396 31.9487C25.2233 30.6509 27.6104 27.2477 27.6104 23.4363L27.6104 20.0411C27.6104 15.8633 30.2222 12.1312 34.1474 10.7003Z" fill="white"/>
</g>
<defs>
<clipPath id="clip0">
<rect y="0.5" width="45" height="45" rx="22.5" fill="white"/>
</clipPath>
</defs>
</svg>
