<svg id="katman_1" data-name="katman 1" xmlns="http://www.w3.org/2000/svg" viewBox="0 0 130.03 129.41"><defs><style>.cls-1{fill:#d0f224;}</style></defs><path class="cls-1" d="M60.16,17.78a3.32,3.32,0,0,1,5.41-1.29l6.25,5.91a3.32,3.32,0,0,0,4.83-.28l5.51-6.6a3.33,3.33,0,0,1,5.53.64l3.84,7.69a3.32,3.32,0,0,0,4.64,1.38l7.44-4.31a3.32,3.32,0,0,1,5,2.49l1,8.54a3.33,3.33,0,0,0,3.89,2.89l8.46-1.51a3.32,3.32,0,0,1,3.82,4l-2,8.36a3.33,3.33,0,0,0,2.67,4.05l8.47,1.47a3.32,3.32,0,0,1,2.2,5.1l-4.73,7.18a3.31,3.31,0,0,0,1.12,4.71l7.45,4.28a3.32,3.32,0,0,1,.33,5.55l-6.9,5.13a3.32,3.32,0,0,0-.56,4.81l5.54,6.57a3.33,3.33,0,0,1-1.59,5.33l-8.24,2.45a3.31,3.31,0,0,0-2.17,4.33l3,8.07a3.32,3.32,0,0,1-3.32,4.46l-8.58-.51a3.33,3.33,0,0,0-3.53,3.32l0,8.6a3.33,3.33,0,0,1-4.65,3.06l-7.89-3.42a3.32,3.32,0,0,0-4.44,1.92L95,140.28a3.32,3.32,0,0,1-5.41,1.28l-6.25-5.9a3.32,3.32,0,0,0-4.83.28L73,142.54a3.33,3.33,0,0,1-5.53-.64l-3.84-7.69A3.32,3.32,0,0,0,59,132.82l-7.44,4.32a3.33,3.33,0,0,1-5-2.5l-1-8.54a3.33,3.33,0,0,0-3.89-2.89l-8.46,1.52a3.32,3.32,0,0,1-3.82-4l2-8.37a3.31,3.31,0,0,0-2.66-4l-8.47-1.47a3.33,3.33,0,0,1-2.2-5.11l4.73-7.17a3.33,3.33,0,0,0-1.12-4.72l-7.46-4.28A3.33,3.33,0,0,1,13.9,80l6.9-5.12a3.32,3.32,0,0,0,.56-4.81l-5.54-6.57a3.33,3.33,0,0,1,1.59-5.33l8.24-2.45a3.33,3.33,0,0,0,2.17-4.33l-3-8.08a3.33,3.33,0,0,1,3.32-4.46l8.58.52A3.32,3.32,0,0,0,40.28,36l0-8.6a3.33,3.33,0,0,1,4.65-3.06l7.89,3.42a3.32,3.32,0,0,0,4.44-1.92Z" transform="translate(-12.56 -14.32)"/><circle cx="40.84" cy="89.95" r="1.7"/><circle cx="98.68" cy="76.21" r="1.7"/><path d="M88.85,95.18l8.53-4.4L87.14,65.13a.35.35,0,0,0-.38-.21l-2.7.58-2.63-1.57Z" transform="translate(-12.56 -14.32)"/><path d="M80.37,63.86l-1,.59a7.08,7.08,0,0,0-.82-1.14,3.73,3.73,0,0,0-3.74-1.46h0l-.27.08a.91.91,0,0,0-.16-.11,2.89,2.89,0,0,0-2.45-.38c-1.72.47-3.16,2.13-4,4.69a14.48,14.48,0,0,0-.75,5.53L64,73.54c-.93.56-.95.6-.86,1.58.07.74,2.28,21.73,2.28,21.73l22.75-1.41L80.62,63.75Zm-4.68,2.76-3.41,2a8.88,8.88,0,0,1,1-4,3.78,3.78,0,0,1,1-1.21A8.39,8.39,0,0,1,75.69,66.62Zm-3.45-4a1.82,1.82,0,0,1,1.11,0A5.13,5.13,0,0,0,72.25,64a10.44,10.44,0,0,0-1.15,5.34L68.3,71C68.23,68.06,69.58,63.32,72.24,62.6Zm.4,16.7c.55,1.83,5.54,1.08,6.85,5.37,1,3.37-.45,6.2-3.33,7.08a7.28,7.28,0,0,1-5.89-.56V87.85s2.3,1,3.83.53a1.42,1.42,0,0,0,1-1.8c-.73-2.38-4.68-1.3-5.88-5.22-1-3.3.39-7.23,5.17-8.69a6.19,6.19,0,0,1,2.92-.31l-.12,4.42a6.5,6.5,0,0,0-2.82.17C72.23,77.6,72.53,79,72.64,79.3ZM76.76,66a9.74,9.74,0,0,0-1.27-3c1.37-.07,2.38,1.27,2.86,2.1Z" transform="translate(-12.56 -14.32)"/><path d="M50.48,92.06l-.76-1.79-2.4,1-.8-1.9L45.18,90l.81,1.9-1.46.62-1-2.34-1.39.59,1.76,4.14Z" transform="translate(-12.56 -14.32)"/><path d="M48.2,86.3l-.34-1.91-2.62.47-.12-.68,2.39-1.72-.36-2-2.71,2a1.74,1.74,0,0,0-1.94-.81l-.17,0c-1.44.26-2,1.29-1.66,3.1l.5,2.78ZM44,85.09l-1.72.31-.14-.78c-.11-.62,0-1,.59-1.08l.16,0c.57-.1.86.18,1,.81Z" transform="translate(-12.56 -14.32)"/><path d="M47.44,75.52a3.17,3.17,0,0,0-3-3.67l-.8-.07a3.11,3.11,0,0,0-3.49,3.14,3.21,3.21,0,0,0,3,3.66l.81.06A3.13,3.13,0,0,0,47.44,75.52Zm-1.54-.15c-.07.84-.73,1.34-1.85,1.25l-.8-.06c-1.12-.09-1.69-.68-1.62-1.52s.74-1.33,1.82-1.24l.81.06C45.37,74,46,74.53,45.9,75.37Z" transform="translate(-12.56 -14.32)"/><path d="M47.92,70.42l.6-1.6-4.15-1.57,4.71.11.22-.58-3.6-3.05,4.16,1.58.68-1.81L43.85,61,43,63.28l3,2.43-3.82-.14-.88,2.32Z" transform="translate(-12.56 -14.32)"/><path d="M54.11,58.16l1.35-1.39-2.06-2,1.44-1.49,2.06,2,1.35-1.4-5.14-5-1.35,1.4,2,1.9L52.29,53.7l-2-1.91L49,53.19Z" transform="translate(-12.56 -14.32)"/><path d="M60.1,52.56l4-2.54-.81-1.27-2.36,1.49L60.16,49l1.77-1.13-.74-1.17-1.77,1.12-.7-1.1L61,45.34l-.81-1.27-3.87,2.45Z" transform="translate(-12.56 -14.32)"/><path d="M65.91,49.22l4.14-1.56-.54-1.42-2.3.87-2-5.27-1.83.69Z" transform="translate(-12.56 -14.32)"/><path d="M72,47.23l4.37-.68-.24-1.5-2.43.38-.87-5.56-1.94.3Z" transform="translate(-12.56 -14.32)"/><path d="M81.28,46.81a3.17,3.17,0,0,0,3.68-3L85,43a3.11,3.11,0,0,0-3.12-3.51,3.21,3.21,0,0,0-3.67,3l-.06.81A3.13,3.13,0,0,0,81.28,46.81Zm.15-1.54c-.84-.07-1.34-.73-1.25-1.85l.07-.81c.09-1.11.69-1.67,1.52-1.61s1.33.74,1.24,1.83l-.07.81C82.85,44.74,82.27,45.34,81.43,45.27Z" transform="translate(-12.56 -14.32)"/><path d="M91.15,49.07,92.9,50l2.86-3.25-1.1,4.19,1.65.87L101,46.21l-1.59-.85L96.61,48.9l1.17-4.41-1.37-.72-2.89,3.46,1.34-4.29L93.13,42Z" transform="translate(-12.56 -14.32)"/><path d="M100.62,55.7a3.17,3.17,0,0,0,4.77,0l.56-.57a3.11,3.11,0,0,0-.16-4.69,3.2,3.2,0,0,0-4.73-.05l-.56.58A3.12,3.12,0,0,0,100.62,55.7Zm1.1-1.09c-.6-.59-.56-1.42.22-2.22l.57-.57c.79-.8,1.6-.85,2.2-.26s.55,1.41-.22,2.19l-.56.58C103.15,55.12,102.32,55.2,101.72,54.61Z" transform="translate(-12.56 -14.32)"/><path d="M104.11,59.39l1,1.66,2.27-1.37.36.59-1.62,2.46,1.05,1.75L109,61.63a1.72,1.72,0,0,0,2.1.07l.15-.09c1.25-.75,1.39-1.91.44-3.49l-1.45-2.41Zm4.36-.36,1.5-.9.41.68c.33.54.31.93-.17,1.22l-.13.08c-.5.3-.87.14-1.2-.41Z" transform="translate(-12.56 -14.32)"/><path d="M107.94,66.48l1.37,4.2,1.44-.47L110,67.87l5.35-1.74-.6-1.87Z" transform="translate(-12.56 -14.32)"/><path d="M116.88,72.11l-7.13.55.21,2.73c.18,2.27,1.43,3.37,3.5,3.21l.74-.06c2.08-.16,3.07-1.43,2.89-3.7Zm-1.29,2.76c.08,1.08-.39,1.57-1.59,1.66l-.7.06c-1.18.09-1.76-.31-1.84-1.38l-.06-.72,4.14-.32Z" transform="translate(-12.56 -14.32)"/><path d="M64.15,115.59l1.86.61,1.76-5.36,1.62.53.47-1.43-5.1-1.67-.47,1.43,1.61.53Z" transform="translate(-12.56 -14.32)"/><path d="M74.63,117.89a3.17,3.17,0,0,0,3.64-3.09l0-.8a3.11,3.11,0,0,0-3.17-3.46,3.19,3.19,0,0,0-3.62,3l-.06.81A3.12,3.12,0,0,0,74.63,117.89Zm.12-1.54c-.83-.06-1.34-.72-1.26-1.84l.05-.8c.08-1.12.67-1.69,1.51-1.63s1.33.72,1.25,1.81l0,.8C76.17,115.8,75.6,116.4,74.75,116.35Z" transform="translate(-12.56 -14.32)"/><path d="M86.4,116.76l1.91-.51-1.83-6.91-1.91.51Z" transform="translate(-12.56 -14.32)"/><path d="M91.65,115.14l1.75-.83L92.33,112l.82-.39c1.56-.74,2.08-1.78,1.45-3.1l-.07-.17c-.63-1.32-1.71-1.7-3.43-.88l-2.51,1.18Zm.11-4.31L91,109.17l.68-.32c.55-.26.93-.2,1.19.35l.07.14c.26.54.09.91-.48,1.18Z" transform="translate(-12.56 -14.32)"/><path d="M101.91,109.09a3.17,3.17,0,0,0,.52-4.75l-.51-.61a3.12,3.12,0,0,0-4.69-.33,3.2,3.2,0,0,0-.54,4.7l.52.62A3.12,3.12,0,0,0,101.91,109.09Zm-1-1.21c-.65.54-1.47.41-2.18-.45l-.52-.63c-.71-.86-.67-1.68,0-2.21s1.47-.4,2.16.44l.52.63C101.6,106.51,101.6,107.34,100.94,107.88Z" transform="translate(-12.56 -14.32)"/></svg>