<svg width="512" height="512" viewBox="0 0 512 512" fill="none" xmlns="http://www.w3.org/2000/svg">
<path d="M207.528 187.158C214.325 136.657 229.252 104.947 265.946 104.947C281.971 104.947 300.941 109.437 305.336 144.47L307.152 159.005L429.466 146.161L426.668 130.401C412.094 48.163 355.595 0 271.674 0C145.492 0 76 92.76 76 259.368C76 421.631 142.138 512 262.24 512C364.545 512 436 439.315 436 336.665C435.985 190.176 288.842 135.884 207.528 187.158V187.158ZM262.24 264.033C295.17 264.033 313.304 290.173 313.304 337.627C313.304 369.001 305.262 406.41 266.956 406.41C240.574 406.41 212.185 382.369 212.185 329.608C212.187 288.555 230.893 264.033 262.24 264.033Z" fill="#1D1D1F"/>
</svg>
