<svg xmlns="http://www.w3.org/2000/svg" viewBox="0 0 20 17" id="twitter"><path d="M19.881 1.928a8.3 8.3 0 01-2.344.643 4.115 4.115 0 001.795-2.26c-.79.46-1.664.796-2.595.983a4.083 4.083 0 00-6.959 3.72A11.566 11.566 0 011.361.759a4.002 4.002 0 00-.553 2.055c0 1.419.722 2.666 1.816 3.4a4.07 4.07 0 01-1.849-.512v.05c0 1.98 1.405 3.631 3.275 4.007a4.147 4.147 0 01-1.836.07 4.097 4.097 0 003.822 2.837A8.19 8.19 0 01.97 14.413c-.324 0-.646-.02-.971-.056a11.616 11.616 0 006.272 1.833c7.515 0 11.62-6.221 11.62-11.608 0-.173 0-.348-.013-.523a8.247 8.247 0 002.041-2.114l-.039-.017z" fill="#000" fill-rule="nonzero"/></svg>