<svg width="80" height="80" viewBox="0 0 80 80" fill="none" xmlns="http://www.w3.org/2000/svg">
<path d="M20.0002 40C31.0461 40 40.0004 31.0453 40.0004 19.9999C40.0004 8.95432 31.0461 0 20.0002 0C8.95447 0 0 8.95432 0 19.9999C0 31.0453 8.95447 40 20.0002 40Z" fill="#1D1D1F"/>
<path d="M20.0002 80C31.0461 80 40.0004 71.0453 40.0004 60C40.0004 48.9547 31.0461 40 20.0002 40C8.95447 40 0 48.9547 0 60C0 71.0453 8.95447 80 20.0002 80Z" fill="#1D1D1F"/>
<path d="M60.0001 80C71.0465 80 80 71.0453 80 60C80 48.9547 71.0465 40 60.0001 40C48.9542 40 39.9999 48.9547 39.9999 60C39.9999 71.0453 48.9542 80 60.0001 80Z" fill="#1D1D1F"/>
<path d="M39.9999 0H80L39.9999 40V0Z" fill="#1D1D1F"/>
</svg>
