<svg width="750" height="460" viewBox="0 0 750 460" fill="none" xmlns="http://www.w3.org/2000/svg">
<path d="M195 230C195 329.411 275.589 410 375 410C474.411 410 555 329.411 555 230C555 130.589 474.411 50 375 50" stroke="#0A84FF" stroke-width="24" stroke-linecap="round"/>
<path d="M375 88.5714C453.109 88.5714 516.429 151.891 516.429 230C516.429 308.109 453.109 371.429 375 371.429C296.891 371.429 233.572 308.109 233.572 230C233.572 197.872 244.284 168.246 262.333 144.5" stroke="#34C759" stroke-width="24" stroke-linecap="round"/>
<path d="M375 127.143C431.807 127.143 477.857 173.194 477.857 230C477.857 286.806 431.807 332.857 375 332.857C318.194 332.857 272.143 286.806 272.143 230C272.143 186.834 298.734 149.878 336.429 134.619" stroke="#0A84FF" stroke-width="24" stroke-linecap="round"/>
<g filter="url(#filter0_d)">
<rect x="75" y="30" width="120" height="120" rx="24" fill="white"/>
<path d="M160.2 93.6H109.8C105.84 93.6 102.6 96.84 102.6 100.8V115.2C102.6 119.16 105.84 122.4 109.8 122.4H160.2C164.16 122.4 167.4 119.16 167.4 115.2V100.8C167.4 96.84 164.16 93.6 160.2 93.6ZM117 115.2C113.04 115.2 109.8 111.96 109.8 108C109.8 104.04 113.04 100.8 117 100.8C120.96 100.8 124.2 104.04 124.2 108C124.2 111.96 120.96 115.2 117 115.2ZM160.2 57.6H109.8C105.84 57.6 102.6 60.84 102.6 64.8V79.2C102.6 83.16 105.84 86.4 109.8 86.4H160.2C164.16 86.4 167.4 83.16 167.4 79.2V64.8C167.4 60.84 164.16 57.6 160.2 57.6ZM117 79.2C113.04 79.2 109.8 75.96 109.8 72C109.8 68.04 113.04 64.8 117 64.8C120.96 64.8 124.2 68.04 124.2 72C124.2 75.96 120.96 79.2 117 79.2Z" fill="#0A84FF"/>
</g>
<path d="M355.241 207.767C345.781 207.703 339.495 214.202 339.495 222.724C339.516 230.949 345.376 236.893 353.025 236.893C357.734 236.893 361.825 234.614 363.934 230.864H364.232C364.211 240.196 360.823 245.757 354.793 245.757C351.022 245.757 348.486 243.584 347.698 240.111H339.921C340.816 247.334 346.526 252.597 354.793 252.597C365.255 252.597 371.924 243.861 371.903 228.839C371.881 212.945 363.614 207.81 355.241 207.767ZM355.262 214.159C359.928 214.159 363.359 218.037 363.359 222.49C363.38 227.007 359.779 230.885 355.177 230.885C350.532 230.885 347.187 227.22 347.165 222.554C347.165 217.866 350.638 214.159 355.262 214.159ZM393.907 207.767C384.447 207.703 378.161 214.202 378.161 222.724C378.183 230.949 384.042 236.893 391.691 236.893C396.4 236.893 400.491 234.614 402.6 230.864H402.898C402.877 240.196 399.489 245.757 393.46 245.757C389.688 245.757 387.153 243.584 386.364 240.111H378.587C379.482 247.334 385.192 252.597 393.46 252.597C403.921 252.597 410.59 243.861 410.569 228.839C410.548 212.945 402.281 207.81 393.907 207.767ZM393.928 214.159C398.594 214.159 402.025 218.037 402.025 222.49C402.046 227.007 398.445 230.885 393.843 230.885C389.198 230.885 385.853 227.22 385.832 222.554C385.832 217.866 389.305 214.159 393.928 214.159Z" fill="#34C759"/>
<path d="M713.889 402.73L717.389 417.749C717.944 420.115 715.333 421.985 713.222 420.72L700 412.798L686.722 420.72C684.611 421.985 682 420.115 682.556 417.749L686.111 402.785L674.444 392.828C672.556 391.232 673.556 388.206 676 387.986L691.444 386.666L697.444 372.582C698.389 370.327 701.611 370.327 702.556 372.582L708.556 386.611L724 387.931C726.444 388.151 727.444 391.177 725.556 392.772L713.889 402.73ZM656.611 358.058C652.611 359.819 650 363.78 650 368.126V393.983C650 424.516 671.333 453.068 700 460C728.667 453.068 750 424.516 750 393.983V368.126C750 363.78 747.389 359.819 743.389 358.058L704.5 340.949C701.611 339.684 698.333 339.684 695.5 340.949L656.611 358.058Z" fill="#E0E3EB"/>
<defs>
<filter id="filter0_d" x="55.8" y="10.8" width="168" height="168" filterUnits="userSpaceOnUse" color-interpolation-filters="sRGB">
<feFlood flood-opacity="0" result="BackgroundImageFix"/>
<feColorMatrix in="SourceAlpha" type="matrix" values="0 0 0 0 0 0 0 0 0 0 0 0 0 0 0 0 0 0 127 0" result="hardAlpha"/>
<feOffset dx="4.8" dy="4.8"/>
<feGaussianBlur stdDeviation="12"/>
<feComposite in2="hardAlpha" operator="out"/>
<feColorMatrix type="matrix" values="0 0 0 0 0 0 0 0 0 0 0 0 0 0 0 0 0 0 0.12 0"/>
<feBlend mode="normal" in2="BackgroundImageFix" result="effect1_dropShadow"/>
<feBlend mode="normal" in="SourceGraphic" in2="effect1_dropShadow" result="shape"/>
</filter>
</defs>
</svg>
