<svg width="512" height="512" viewBox="0 0 512 512" fill="none" xmlns="http://www.w3.org/2000/svg">
<path d="M363.395 231.083C397.321 205.976 414.474 174.291 414.474 136.557C414.474 69.921 353.742 0 252.096 0C93.62 0 84.466 144.392 80.988 151.117L199.728 170.204C201.407 165.47 198.579 105.062 249.386 105.062C295.134 105.062 296.862 153.245 277.101 172.503C263.191 186.071 254.567 183.895 211.696 187.283L196.095 296.341C210.78 292.87 235.554 284.3 257.853 284.3C283.444 284.3 309.269 302.464 309.269 343.055C309.269 386.737 281.745 406.292 254.469 406.292C196.471 406.292 198.603 340.435 196.945 336.097L75.158 350.072C76.722 353.074 79.134 512 255.143 512C357.038 512 436.842 438.915 436.842 346.908C436.842 294.701 408.908 251.972 363.395 231.083V231.083Z" fill="#1D1D1F"/>
</svg>
