<svg width="16" height="20" viewBox="0 0 16 20" fill="none" xmlns="http://www.w3.org/2000/svg">
<path d="M14 6.66667H13V4.7619C13 2.13333 10.76 0 8 0C5.51228 0 3.44702 1.73318 3.06375 4C3.0218 4.2481 3 4.50259 3 4.7619H5C5 4.49793 5.03736 4.24246 5.10733 4C5.4564 2.79036 6.61717 1.90476 8 1.90476C9.66 1.90476 11 3.18095 11 4.7619V6.66667H2C0.9 6.66667 0 7.52381 0 8.57143V18.0952C0 19.1429 0.9 20 2 20H14C15.1 20 16 19.1429 16 18.0952V8.57143C16 7.52381 15.1 6.66667 14 6.66667ZM14 18.0952H2V8.57143H14V18.0952ZM8 15.2381C9.1 15.2381 10 14.381 10 13.3333C10 12.2857 9.1 11.4286 8 11.4286C6.9 11.4286 6 12.2857 6 13.3333C6 14.381 6.9 15.2381 8 15.2381Z" fill="#007AFF"/>
</svg>
