<svg width="750" height="460" viewBox="0 0 750 460" fill="none" xmlns="http://www.w3.org/2000/svg">
<rect x="398" y="75" width="329" height="221" rx="37" stroke="#0A84FF" stroke-width="6"/>
<path d="M537 186C537 199.807 548.193 211 562 211C575.807 211 587 199.807 587 186C587 172.193 575.807 161 562 161" stroke="#0A84FF" stroke-width="12" stroke-linecap="round"/>
<rect x="20" y="72" width="335" height="227" rx="43" fill="#E0E3EB"/>
<path fill-rule="evenodd" clip-rule="evenodd" d="M181.814 176.562C181.657 176.41 181.468 176.296 181.26 176.228C181.053 176.16 180.833 176.14 180.616 176.169C180.399 176.198 180.192 176.275 180.01 176.396C179.828 176.516 179.676 176.675 179.565 176.863L164.204 201.56L164.104 201.747C164.016 201.968 163.983 202.208 164.008 202.445C164.034 202.683 164.117 202.91 164.251 203.108C164.385 203.306 164.566 203.468 164.777 203.58C164.989 203.693 165.225 203.752 165.464 203.753H209.138L209.361 203.733C210.372 203.568 210.926 202.304 210.285 201.444L199.511 186.212L199.357 186.019C198.849 185.502 197.95 185.46 197.331 185.98L193.549 189.672L193.383 189.815C193.228 189.926 193.052 190.005 192.865 190.046C192.679 190.087 192.486 190.091 192.298 190.056C192.11 190.021 191.931 189.949 191.772 189.844C191.613 189.738 191.477 189.602 191.372 189.443L181.97 176.749L181.814 176.562ZM202.8 169C201.297 168.995 199.853 169.584 198.785 170.637C197.718 171.691 197.115 173.124 197.108 174.62C197.111 175.361 197.26 176.094 197.548 176.778C197.835 177.462 198.255 178.083 198.784 178.605C199.312 179.128 199.939 179.541 200.628 179.822C201.317 180.104 202.055 180.247 202.8 180.245C204.303 180.249 205.747 179.66 206.814 178.605C207.881 177.551 208.483 176.118 208.489 174.622C208.483 173.126 207.88 171.695 206.813 170.641C205.746 169.587 204.303 168.998 202.8 169.002V169Z" fill="#F0F2F4"/>
<path d="M151.752 329H37.1241C30.4281 329 25 334.402 25 341.065C25 347.729 30.4281 353.13 37.1241 353.13H151.752C158.448 353.13 163.875 347.729 163.875 341.065C163.875 334.402 158.448 329 151.752 329Z" fill="#E0E3EB"/>
<path opacity="0.8" d="M129.707 366.81H32.7153C28.4542 366.81 25 370.247 25 374.487C25 378.727 28.4542 382.165 32.7153 382.165H129.707C133.968 382.165 137.424 378.727 137.424 374.487C137.424 370.247 133.968 366.81 129.707 366.81Z" fill="#E3E5EC"/>
</svg>
